<?xml version="1.0" encoding="UTF-8" standalone="no"?>
<!-- Generator: Adobe Illustrator 23.0.1, SVG Export Plug-In . SVG Version: 6.00 Build 0)  -->

<svg
   xmlns:dc="http://purl.org/dc/elements/1.1/"
   xmlns:cc="http://creativecommons.org/ns#"
   xmlns:rdf="http://www.w3.org/1999/02/22-rdf-syntax-ns#"
   xmlns:svg="http://www.w3.org/2000/svg"
   xmlns="http://www.w3.org/2000/svg"
   xmlns:sodipodi="http://sodipodi.sourceforge.net/DTD/sodipodi-0.dtd"
   xmlns:inkscape="http://www.inkscape.org/namespaces/inkscape"
   version="1.0"
   id="Layer_1"
   x="0px"
   y="0px"
   viewBox="0 0 536.00757 460.60419"
   enable-background="new 0 0 550 488"
   xml:space="preserve"
   sodipodi:docname="02_szuletesi_hely.svg"
   width="536.00757"
   height="460.60419"
   inkscape:version="0.92.3 (2405546, 2018-03-11)"><metadata
   id="metadata411"><rdf:RDF><cc:Work
       rdf:about=""><dc:format>image/svg+xml</dc:format><dc:type
         rdf:resource="http://purl.org/dc/dcmitype/StillImage" /><dc:title></dc:title></cc:Work></rdf:RDF></metadata><defs
   id="defs409" /><sodipodi:namedview
   pagecolor="#ffffff"
   bordercolor="#666666"
   borderopacity="1"
   objecttolerance="10"
   gridtolerance="10"
   guidetolerance="10"
   inkscape:pageopacity="0"
   inkscape:pageshadow="2"
   inkscape:window-width="1533"
   inkscape:window-height="845"
   id="namedview407"
   showgrid="false"
   fit-margin-top="0"
   fit-margin-left="0"
   fit-margin-right="0"
   fit-margin-bottom="0"
   inkscape:zoom="1.3678459"
   inkscape:cx="324.05072"
   inkscape:cy="182.12154"
   inkscape:window-x="67"
   inkscape:window-y="207"
   inkscape:window-maximized="1"
   inkscape:current-layer="Layer_1" />
<g
   id="g4"
   transform="translate(-6.996223,-13.695805)">
	<rect
   y="0"
   width="550"
   height="488"
   id="rect2"
   x="0"
   style="fill:none" />
</g>
<path
   d="m 292.50378,4.904195 c 0.2,-2.2 -1.5,-4.20000004 -3.7,-4.40000004 l -7.3,-0.5 c -2.3,-0.1 -4.2,1.60000004 -4.2,3.80000004 l -0.7,19.1 c -0.1,2.3 1.7,4.2 4,4.4 l 5.7,0.4 c 2.3,0.1 4.3,-1.6 4.5,-3.8 z"
   id="path6"
   inkscape:connector-curvature="0"
   style="fill:#004371" />
<path
   d="m 312.70378,7.604195 c 0.4,-2.2 -1.1,-4.3 -3.4,-4.6 l -7.2,-1.1 c -2.2,-0.3 -4.3,1.4 -4.5,3.6 l -2.1,19 c -0.2,2.2 1.4,4.3 3.6,4.6 l 5.7,0.9 c 2.2,0.3 4.4,-1.3 4.8,-3.5 z"
   id="path8"
   inkscape:connector-curvature="0"
   style="fill:#004371" />
<path
   d="m 332.70378,11.804195 c 0.5,-2.2 -0.8,-4.4 -3,-4.9 l -7.1,-1.6 c -2.2,-0.4 -4.4,1.1 -4.8,3.3 l -3.6,18.7 c -0.4,2.2 1.1,4.4 3.3,4.8 l 5.6,1.3 c 2.2,0.5 4.5,-0.9 5,-3.1 z"
   id="path10"
   inkscape:connector-curvature="0"
   style="fill:#004371" />
<path
   d="m 352.20378,17.504195 c 0.7,-2.1 -0.4,-4.5 -2.6,-5.2 l -7,-2 c -2.2,-0.6 -4.4,0.6 -5,2.8 l -5,18.4 c -0.6,2.2 0.7,4.5 2.9,5.1 l 5.5,1.6 c 2.1,0.7 4.5,-0.4 5.2,-2.6 z"
   id="path12"
   inkscape:connector-curvature="0"
   style="fill:#004371" />
<path
   d="m 371.30378,24.704195 c 0.9,-2.1 -0.1,-4.5 -2.2,-5.3 l -6.8,-2.6 c -2.1,-0.8 -4.4,0.2 -5.2,2.4 l -6.4,18 c -0.8,2.1 0.3,4.5 2.4,5.4 l 5.4,2 c 2.1,0.9 4.5,-0.1 5.4,-2.2 z"
   id="path14"
   inkscape:connector-curvature="0"
   style="fill:#004371" />
<path
   d="m 407.50378,43.404195 c 1.2,-1.9 0.6,-4.4 -1.4,-5.6 l -6.3,-3.7 c -2,-1.1 -4.5,-0.3 -5.6,1.7 l -9.1,16.8 c -1.1,2 -0.3,4.5 1.7,5.6 l 4.9,3 c 1.9,1.2 4.5,0.5 5.7,-1.4 z"
   id="path16"
   inkscape:connector-curvature="0"
   style="fill:#004371" />
<path
   d="m 424.40378,54.804195 c 1.3,-1.8 0.9,-4.4 -0.9,-5.7 l -6.1,-4.1 c -1.9,-1.3 -4.4,-0.7 -5.6,1.1 l -10.4,16 c -1.2,1.9 -0.7,4.5 1.2,5.8 l 4.8,3.2 c 1.8,1.3 4.4,0.9 5.7,-0.9 z"
   id="path18"
   inkscape:connector-curvature="0"
   style="fill:#004371" />
<path
   d="m 440.40378,67.404195 c 1.5,-1.7 1.2,-4.3 -0.5,-5.7 l -5.7,-4.6 c -1.8,-1.4 -4.3,-1.1 -5.7,0.7 l -11.5,15.2 c -1.4,1.8 -1,4.4 0.7,5.9 l 4.5,3.6 c 1.8,1.4 4.4,1.2 5.9,-0.5 z"
   id="path20"
   inkscape:connector-curvature="0"
   style="fill:#004371" />
<path
   d="m 455.40378,81.304195 c 1.6,-1.6 1.6,-4.2 -0.1,-5.7 l -5.3,-5.1 c -1.7,-1.5 -4.3,-1.3 -5.8,0.3 l -12.7,14.3 c -1.5,1.7 -1.3,4.3 0.3,5.8 l 4.1,4 c 1.6,1.5 4.3,1.5 5.9,-0.1 z"
   id="path22"
   inkscape:connector-curvature="0"
   style="fill:#004371" />
<path
   d="m 469.30378,96.204195 c 1.7,-1.5 1.9,-4.1 0.4,-5.8 l -4.9,-5.4 c -1.6,-1.6 -4.2,-1.7 -5.8,-0.1 l -13.7,13.3 c -1.6,1.6 -1.7,4.199995 -0.1,5.799995 l 3.9,4.3 c 1.5,1.7 4.1,1.9 5.8,0.4 z"
   id="path24"
   inkscape:connector-curvature="0"
   style="fill:#004371" />
<path
   d="m 482.00378,112.20419 c 1.8,-1.3 2.2,-3.9 0.9,-5.8 l -4.6,-5.7 c -1.4,-1.799995 -3.9,-2.099995 -5.7,-0.6 l -14.7,12.2 c -1.7,1.4 -2,4.1 -0.6,5.9 l 3.7,4.4 c 1.3,1.8 3.9,2.2 5.7,0.9 z"
   id="path26"
   inkscape:connector-curvature="0"
   style="fill:#004371" />
<path
   d="m 493.50378,129.00419 c 1.9,-1.2 2.5,-3.7 1.2,-5.6 l -4.1,-6.1 c -1.3,-1.9 -3.8,-2.4 -5.6,-1 l -15.6,11 c -1.8,1.3 -2.3,3.9 -1.1,5.8 l 3.2,4.8 c 1.3,1.9 3.8,2.4 5.8,1.2 z"
   id="path28"
   inkscape:connector-curvature="0"
   style="fill:#004371" />
<path
   d="m 439.90378,144.20419 c -1.8,1.3 -2.3,3.9 -1,5.8 l 3.4,4.8 c 1.2,1.9 3.8,2.4 5.7,1.2 l 16.2,-10.2 c 1.9,-1.2 2.5,-3.7 1.2,-5.6 l -4.4,-6.3 c -1.3,-1.9 -3.8,-2.3 -5.6,-1 z"
   id="path30"
   inkscape:connector-curvature="0"
   style="fill:#004371" />
<path
   d="m 427.90378,129.30419 c -1.7,1.5 -1.9,4.1 -0.4,5.8 l 3.7,4.6 c 1.4,1.8 4,2.1 5.8,0.7 l 15.2,-11.6 c 1.8,-1.4 2.1,-3.9 0.7,-5.7 l -4.9,-6 c -1.5,-1.7 -4.1,-1.9 -5.8,-0.4 z"
   id="path32"
   inkscape:connector-curvature="0"
   style="fill:#004371" />
<path
   d="m 414.60378,115.40419 c -1.6,1.6 -1.5,4.3 0,5.9 l 4.2,4.1 c 1.6,1.6 4.2,1.7 5.9,0.2 l 14.1,-12.9 c 1.7,-1.5 1.8,-4.1 0.2,-5.8 l -5.5,-5.4 c -1.6,-1.599995 -4.2,-1.599995 -5.7,0.1 z"
   id="path34"
   inkscape:connector-curvature="0"
   style="fill:#004371" />
<path
   d="m 400.10378,102.90419 c -1.4,1.8 -1.1,4.4 0.7,5.8 l 4.4,3.9 c 1.7,1.5 4.3,1.3 5.9,-0.3 l 12.9,-14.099995 c 1.5,-1.7 1.4,-4.3 -0.3,-5.7 l -5.8,-5 c -1.8,-1.4 -4.4,-1.1 -5.8,0.6 z"
   id="path36"
   inkscape:connector-curvature="0"
   style="fill:#004371" />
<path
   d="m 384.60378,91.604195 c -1.2,1.9 -0.7,4.5 1.1,5.8 l 4.9,3.299995 c 1.8,1.3 4.4,1 5.8,-0.799995 l 11.6,-15.2 c 1.4,-1.8 1,-4.4 -0.8,-5.7 l -6.4,-4.4 c -1.8,-1.3 -4.4,-0.8 -5.6,1.1 z"
   id="path38"
   inkscape:connector-curvature="0"
   style="fill:#004371" />
<path
   d="m 368.20378,81.804195 c -1.1,2 -0.3,4.5 1.7,5.6 l 5,3 c 1.9,1.2 4.5,0.5 5.7,-1.4 l 10.1,-16.2 c 1.2,-1.9 0.6,-4.4 -1.3,-5.6 l -6.6,-3.9 c -2,-1.1 -4.5,-0.3 -5.5,1.7 z"
   id="path40"
   inkscape:connector-curvature="0"
   style="fill:#004371" />
<path
   d="m 350.90378,73.604195 c -0.9,2.1 0.1,4.6 2.1,5.5 l 5.4,2.4 c 2,1 4.5,0.2 5.5,-1.9 l 8.6,-17 c 1,-2 0.2,-4.5 -1.8,-5.5 l -7.1,-3.2 c -2.1,-1 -4.5,0 -5.3,2.1 z"
   id="path42"
   inkscape:connector-curvature="0"
   style="fill:#004371" />
<path
   d="m 332.90378,66.904195 c -0.7,2.2 0.5,4.5 2.6,5.2 l 5.5,2 c 2.1,0.8 4.5,-0.3 5.4,-2.4 l 7.1,-17.7 c 0.8,-2.1 -0.2,-4.5 -2.3,-5.3 l -7.3,-2.7 c -2.1,-0.7 -4.5,0.5 -5.2,2.6 z"
   id="path44"
   inkscape:connector-curvature="0"
   style="fill:#004371" />
<path
   d="m 314.50378,61.904195 c -0.5,2.2 0.9,4.5 3.1,5 l 5.7,1.4 c 2.2,0.6 4.5,-0.7 5.1,-2.9 l 5.4,-18.3 c 0.6,-2.2 -0.6,-4.4 -2.8,-5 l -7.5,-1.9 c -2.2,-0.6 -4.4,0.8 -4.9,3 z"
   id="path46"
   inkscape:connector-curvature="0"
   style="fill:#004371" />
<path
   d="m 295.60378,58.604195 c -0.3,2.2 1.3,4.3 3.5,4.6 l 5.8,1 c 2.2,0.4 4.4,-1.1 4.8,-3.3 l 3.7,-18.7 c 0.4,-2.2 -1,-4.4 -3.2,-4.8 l -7.6,-1.3 c -2.2,-0.3 -4.3,1.3 -4.6,3.5 z"
   id="path48"
   inkscape:connector-curvature="0"
   style="fill:#004371" />
<path
   d="m 276.50378,56.904195 c -0.1,2.3 1.7,4.2 3.9,4.4 l 5.9,0.5 c 2.3,0.2 4.3,-1.5 4.5,-3.8 l 2,-19 c 0.2,-2.2 -1.4,-4.2 -3.7,-4.4 l -7.7,-0.6 c -2.3,-0.1 -4.2,1.6 -4.3,3.8 z"
   id="path50"
   inkscape:connector-curvature="0"
   style="fill:#004371" />
<path
   d="m 293.50378,72.904195 c 0.3,-2.2 -1.3,-4.2 -3.6,-4.4 l -8.3,-0.9 c -2.3,-0.1 -4.2,1.6 -4.3,3.9 l -0.9,19.1 c -0.1,2.3 1.7,4.2 3.9,4.3 l 6.1,0.7 c 2.2,0.2 4.3,-1.5 4.6,-3.7 z"
   id="path52"
   inkscape:connector-curvature="0"
   style="fill:#004371" />
<path
   d="m 314.80378,76.804195 c 0.5,-2.2 -0.8,-4.4 -3,-4.9 l -8.2,-1.5 c -2.2,-0.4 -4.3,1.1 -4.7,3.3 l -3,18.9 c -0.3,2.2 1.2,4.4 3.4,4.8 l 6,1.1 c 2.2,0.5 4.4,-0.9 5,-3.1 z"
   id="path54"
   inkscape:connector-curvature="0"
   style="fill:#004371" />
<path
   d="m 335.50378,83.004195 c 0.8,-2.1 -0.3,-4.5 -2.5,-5.2 l -8,-2.4 c -2.2,-0.7 -4.4,0.6 -5,2.8 l -5,18.4 c -0.6,2.2 0.7,4.499995 2.9,5.199995 l 5.9,1.7 c 2.1,0.7 4.5,-0.4 5.3,-2.5 z"
   id="path56"
   inkscape:connector-curvature="0"
   style="fill:#004371" />
<path
   d="m 355.30378,91.504195 c 1,-2 0.1,-4.5 -1.9,-5.4 l -7.6,-3.3 c -2.1,-0.9 -4.5,0.1 -5.3,2.2 l -7,17.799995 c -0.8,2.1 0.2,4.5 2.3,5.4 l 5.6,2.4 c 2,1 4.5,0.1 5.5,-1.9 z"
   id="path58"
   inkscape:connector-curvature="0"
   style="fill:#004371" />
<path
   d="m 374.20378,102.10419 c 1.2,-1.9 0.6,-4.399995 -1.3,-5.599995 l -7.2,-4.2 c -2,-1.1 -4.5,-0.3 -5.5,1.7 l -8.9,16.899995 c -1.1,2 -0.3,4.5 1.7,5.6 l 5.2,3.1 c 1.9,1.2 4.5,0.6 5.7,-1.3 z"
   id="path60"
   inkscape:connector-curvature="0"
   style="fill:#004371" />
<path
   d="m 391.70378,114.70419 c 1.4,-1.8 1.1,-4.3 -0.7,-5.7 l -6.6,-5.1 c -1.9,-1.3 -4.4,-0.8 -5.7,1.1 l -10.7,15.8 c -1.3,1.9 -0.8,4.5 1.1,5.7 l 4.8,3.7 c 1.8,1.4 4.4,1 5.9,-0.7 z"
   id="path62"
   inkscape:connector-curvature="0"
   style="fill:#004371" />
<path
   d="m 407.90378,129.10419 c 1.6,-1.6 1.6,-4.2 -0.1,-5.7 l -6.1,-5.7 c -1.7,-1.5 -4.3,-1.3 -5.7,0.4 l -12.3,14.6 c -1.5,1.7 -1.3,4.3 0.4,5.8 l 4.4,4.2 c 1.6,1.5 4.3,1.5 5.9,-0.1 z"
   id="path64"
   inkscape:connector-curvature="0"
   style="fill:#004371" />
<path
   d="m 422.30378,145.10419 c 1.8,-1.4 2,-4 0.6,-5.7 l -5.5,-6.2 c -1.5,-1.7 -4.1,-1.8 -5.7,-0.2 l -13.8,13.2 c -1.6,1.6 -1.7,4.2 -0.2,5.9 l 4.1,4.6 c 1.4,1.7 4.1,2 5.8,0.6 z"
   id="path66"
   inkscape:connector-curvature="0"
   style="fill:#004371" />
<path
   d="m 435.00378,162.60419 c 1.9,-1.2 2.4,-3.8 1.2,-5.6 l -4.9,-6.7 c -1.3,-1.8 -3.8,-2.2 -5.6,-0.9 l -15.2,11.6 c -1.8,1.4 -2.2,4 -0.9,5.8 l 3.7,4.9 c 1.2,1.9 3.8,2.4 5.7,1.2 z"
   id="path68"
   inkscape:connector-curvature="0"
   style="fill:#004371" />
<path
   d="m 381.00378,177.50419 c -1.8,1.4 -2.1,4.1 -0.7,5.9 l 3.9,5.2 c 1.3,1.9 3.9,2.4 5.8,1.1 l 16,-10.5 c 1.9,-1.2 2.4,-3.8 1.1,-5.6 l -5.5,-7.5 c -1.4,-1.8 -3.9,-2.1 -5.7,-0.7 z"
   id="path70"
   inkscape:connector-curvature="0"
   style="fill:#004371" />
<path
   d="m 367.20378,162.80419 c -1.5,1.7 -1.5,4.3 0.1,5.9 l 4.5,4.7 c 1.5,1.7 4.2,1.8 5.9,0.3 l 14.4,-12.6 c 1.7,-1.5 1.8,-4.1 0.3,-5.7 l -6.4,-6.7 c -1.6,-1.6 -4.2,-1.5 -5.7,0.1 z"
   id="path72"
   inkscape:connector-curvature="0"
   style="fill:#004371" />
<path
   d="m 351.60378,150.10419 c -1.3,1.8 -0.9,4.5 0.9,5.8 l 5.1,4 c 1.7,1.4 4.4,1.2 5.9,-0.5 l 12.5,-14.4 c 1.5,-1.7 1.3,-4.3 -0.5,-5.7 l -7.4,-5.7 c -1.8,-1.3 -4.4,-0.9 -5.7,0.9 z"
   id="path74"
   inkscape:connector-curvature="0"
   style="fill:#004371" />
<path
   d="m 334.30378,139.70419 c -1,2 -0.3,4.5 1.7,5.6 l 5.6,3.3 c 1.9,1.2 4.5,0.6 5.7,-1.3 l 10.4,-16 c 1.2,-1.9 0.7,-4.4 -1.3,-5.6 l -8,-4.7 c -2,-1.1 -4.4,-0.3 -5.5,1.7 z"
   id="path76"
   inkscape:connector-curvature="0"
   style="fill:#004371" />
<path
   d="m 315.80378,131.80419 c -0.7,2.1 0.4,4.5 2.5,5.3 l 6,2.5 c 2.1,0.9 4.5,0 5.5,-2.1 l 8.1,-17.3 c 1,-2 0.1,-4.5 -2,-5.4 l -8.6,-3.5 c -2.1,-0.8 -4.5,0.3 -5.2,2.5 z"
   id="path78"
   inkscape:connector-curvature="0"
   style="fill:#004371" />
<path
   d="m 296.40378,126.50419 c -0.4,2.2 1,4.4 3.2,5 l 6.3,1.5 c 2.2,0.6 4.5,-0.7 5.2,-2.8 l 5.6,-18.3 c 0.7,-2.2 -0.6,-4.4 -2.7,-5 l -9.1,-2.2 c -2.2,-0.5 -4.4,0.9 -4.8,3.1 z"
   id="path80"
   inkscape:connector-curvature="0"
   style="fill:#004371" />
<path
   d="m 276.40378,123.90419 c -0.1,2.3 1.6,4.2 3.9,4.4 l 6.4,0.8 c 2.2,0.3 4.4,-1.3 4.7,-3.5 l 3,-18.8 c 0.4,-2.2 -1.2,-4.3 -3.4,-4.6 l -9.3,-1.1 c -2.2,-0.2 -4.2,1.5 -4.3,3.8 z"
   id="path82"
   inkscape:connector-curvature="0"
   style="fill:#004371" />
<path
   d="m 296.00378,141.80419 c 0.5,-2.2 -0.9,-4.3 -3.2,-4.7 l -10.9,-1.7 c -2.2,-0.2 -4.2,1.4 -4.4,3.7 l -1.4,19 c -0.2,2.3 1.5,4.3 3.8,4.5 l 7,1.1 c 2.2,0.4 4.4,-1.1 4.9,-3.3 z"
   id="path84"
   inkscape:connector-curvature="0"
   style="fill:#004371" />
<path
   d="m 319.60378,149.40419 c 0.9,-2.1 -0.1,-4.4 -2.2,-5.3 l -10.4,-3.6 c -2.2,-0.7 -4.4,0.6 -5,2.8 l -5,18.4 c -0.6,2.2 0.7,4.5 2.9,5.2 l 6.7,2.3 c 2.1,0.8 4.6,-0.2 5.4,-2.3 z"
   id="path86"
   inkscape:connector-curvature="0"
   style="fill:#004371" />
<path
   d="m 341.40378,161.30419 c 1.3,-1.9 0.7,-4.4 -1.2,-5.6 l -9.5,-5.5 c -2,-1.1 -4.4,-0.3 -5.4,1.8 l -8.4,17.2 c -1,2 -0.2,4.6 1.8,5.6 l 6.2,3.5 c 1.9,1.2 4.5,0.7 5.8,-1.2 z"
   id="path88"
   inkscape:connector-curvature="0"
   style="fill:#004371" />
<path
   d="m 360.50378,177.10419 c 1.6,-1.6 1.5,-4.2 -0.1,-5.7 l -8.2,-7.3 c -1.8,-1.4 -4.3,-1.1 -5.7,0.7 l -11.5,15.4 c -1.4,1.8 -1,4.4 0.7,5.8 l 5.3,4.7 c 1.7,1.5 4.3,1.5 5.9,-0.1 z"
   id="path90"
   inkscape:connector-curvature="0"
   style="fill:#004371" />
<path
   d="m 376.30378,196.20419 c 1.9,-1.3 2.3,-3.8 1,-5.6 l -6.9,-8.6 c -1.4,-1.7 -4,-1.9 -5.7,-0.4 l -14.1,12.8 c -1.7,1.5 -1.9,4.2 -0.4,5.9 l 4.5,5.5 c 1.3,1.8 3.9,2.3 5.8,1 z"
   id="path92"
   inkscape:connector-curvature="0"
   style="fill:#004371" />
<path
   d="m 397.60378,358.20419 c 2.3,0 4.1,-1.8 4.1,-4.1 v -7.2 c 0,-2.3 -1.8,-4.1 -4.1,-4.1 h -19 c -2.3,0 -4.1,1.8 -4.1,4.1 v 7.2 c 0,2.3 1.8,4.1 4.1,4.1 z"
   id="path94"
   inkscape:connector-curvature="0"
   style="fill:#004371" />
<path
   d="m 479.60378,445.20419 c -2.2,0 -4.1,1.8 -4.1,4.1 v 7.2 c 0,2.3 1.8,4.1 4.1,4.1 h 19 c 2.3,0 4.1,-1.8 4.1,-4.1 v -7.2 c 0,-2.2 -1.8,-4.1 -4.1,-4.1 z"
   id="path96"
   inkscape:connector-curvature="0"
   style="fill:#004371" />
<path
   d="m 479.60378,424.70419 c -2.2,0 -4.1,1.8 -4.1,4.1 v 7.2 c 0,2.3 1.8,4.1 4.1,4.1 h 19 c 2.3,0 4.1,-1.8 4.1,-4.1 v -7.2 c 0,-2.2 -1.8,-4.1 -4.1,-4.1 z"
   id="path98"
   inkscape:connector-curvature="0"
   style="fill:#004371" />
<path
   d="m 479.60378,404.30419 c -2.2,0 -4.1,1.8 -4.1,4.1 v 7.2 c 0,2.3 1.8,4.1 4.1,4.1 h 19 c 2.3,0 4.1,-1.8 4.1,-4.1 v -7.2 c 0,-2.2 -1.8,-4.1 -4.1,-4.1 z"
   id="path100"
   inkscape:connector-curvature="0"
   style="fill:#004371" />
<path
   d="m 479.50378,383.80419 c -2.2,0 -4.1,1.8 -4.1,4.1 v 7.2 c 0,2.3 1.8,4.1 4.1,4.1 h 19 c 2.3,0 4.1,-1.8 4.1,-4.1 v -7.2 c 0,-2.2 -1.8,-4.1 -4.1,-4.1 z"
   id="path102"
   inkscape:connector-curvature="0"
   style="fill:#004371" />
<path
   d="m 479.50378,363.30419 c -2.2,0 -4.1,1.8 -4.1,4.1 v 7.2 c 0,2.3 1.8,4.1 4.1,4.1 h 19 c 2.3,0 4.1,-1.8 4.1,-4.1 v -7.2 c 0,-2.2 -1.8,-4.1 -4.1,-4.1 z"
   id="path104"
   inkscape:connector-curvature="0"
   style="fill:#004371" />
<path
   d="m 479.50378,342.90419 c -2.2,0 -4.1,1.8 -4.1,4.1 v 7.2 c 0,2.3 1.8,4.1 4.1,4.1 h 19 c 2.3,0 4.1,-1.8 4.1,-4.1 v -7.2 c 0,-2.2 -1.8,-4.1 -4.1,-4.1 z"
   id="path106"
   inkscape:connector-curvature="0"
   style="fill:#004371" />
<path
   d="m 412.40378,445.20419 c -2.2,0 -4.1,1.8 -4.1,4.1 v 7.2 c 0,2.3 1.8,4.1 4.1,4.1 h 19 c 2.3,0 4.1,-1.8 4.1,-4.1 v -7.2 c 0,-2.2 -1.8,-4.1 -4.1,-4.1 z"
   id="path108"
   inkscape:connector-curvature="0"
   style="fill:#004371" />
<path
   d="m 412.40378,424.70419 c -2.2,0 -4.1,1.8 -4.1,4.1 v 7.2 c 0,2.3 1.8,4.1 4.1,4.1 h 19 c 2.3,0 4.1,-1.8 4.1,-4.1 v -7.2 c 0,-2.2 -1.8,-4.1 -4.1,-4.1 z"
   id="path110"
   inkscape:connector-curvature="0"
   style="fill:#004371" />
<path
   d="m 378.60378,445.20419 c -2.2,0 -4.1,1.8 -4.1,4.1 v 7.2 c 0,2.3 1.8,4.1 4.1,4.1 h 19 c 2.3,0 4.1,-1.8 4.1,-4.1 v -7.2 c 0,-2.2 -1.8,-4.1 -4.1,-4.1 z"
   id="path112"
   inkscape:connector-curvature="0"
   style="fill:#004371" />
<path
   d="m 378.60378,424.70419 c -2.2,0 -4.1,1.8 -4.1,4.1 v 7.2 c 0,2.3 1.8,4.1 4.1,4.1 h 19 c 2.3,0 4.1,-1.8 4.1,-4.1 v -7.2 c 0,-2.2 -1.8,-4.1 -4.1,-4.1 z"
   id="path114"
   inkscape:connector-curvature="0"
   style="fill:#004371" />
<path
   d="m 412.40378,404.30419 c -2.2,0 -4.1,1.8 -4.1,4.1 v 7.2 c 0,2.3 1.8,4.1 4.1,4.1 h 19 c 2.3,0 4.1,-1.8 4.1,-4.1 v -7.2 c 0,-2.2 -1.8,-4.1 -4.1,-4.1 z"
   id="path116"
   inkscape:connector-curvature="0"
   style="fill:#004371" />
<path
   d="m 412.50378,383.80419 c -2.2,0 -4.1,1.8 -4.1,4.1 v 7.2 c 0,2.3 1.8,4.1 4.1,4.1 h 19 c 2.3,0 4.1,-1.8 4.1,-4.1 v -7.2 c 0,-2.2 -1.8,-4.1 -4.1,-4.1 z"
   id="path118"
   inkscape:connector-curvature="0"
   style="fill:#004371" />
<path
   d="m 412.50378,363.30419 c -2.2,0 -4.1,1.8 -4.1,4.1 v 7.2 c 0,2.3 1.8,4.1 4.1,4.1 h 19 c 2.3,0 4.1,-1.8 4.1,-4.1 v -7.2 c 0,-2.2 -1.8,-4.1 -4.1,-4.1 z"
   id="path120"
   inkscape:connector-curvature="0"
   style="fill:#004371" />
<path
   d="m 412.50378,342.90419 c -2.2,0 -4.1,1.8 -4.1,4.1 v 7.2 c 0,2.3 1.8,4.1 4.1,4.1 h 19 c 2.3,0 4.1,-1.8 4.1,-4.1 v -7.2 c 0,-2.2 -1.8,-4.1 -4.1,-4.1 z"
   id="path122"
   inkscape:connector-curvature="0"
   style="fill:#004371" />
<path
   d="m 465.00378,358.20419 c 2.2,0 4.1,-1.8 4.1,-4.1 v -7.2 c 0,-2.3 -1.8,-4.1 -4.1,-4.1 h -19 c -2.3,0 -4.1,1.8 -4.1,4.1 v 7.2 c 0,2.2 1.8,4.1 4.1,4.1 z"
   id="path124"
   inkscape:connector-curvature="0"
   style="fill:#004371" />
<path
   d="m 465.00378,378.70419 c 2.2,0 4.1,-1.8 4.1,-4.1 v -7.2 c 0,-2.3 -1.8,-4.1 -4.1,-4.1 h -19 c -2.3,0 -4.1,1.8 -4.1,4.1 v 7.2 c 0,2.2 1.8,4.1 4.1,4.1 z"
   id="path126"
   inkscape:connector-curvature="0"
   style="fill:#004371" />
<path
   d="m 465.00378,399.10419 c 2.2,0 4.1,-1.8 4.1,-4.1 v -7.2 c 0,-2.3 -1.8,-4.1 -4.1,-4.1 h -19 c -2.3,0 -4.1,1.8 -4.1,4.1 v 7.2 c 0,2.2 1.8,4.1 4.1,4.1 z"
   id="path128"
   inkscape:connector-curvature="0"
   style="fill:#004371" />
<path
   d="m 465.00378,419.60419 c 2.2,0 4.1,-1.8 4.1,-4.1 v -7.2 c 0,-2.3 -1.8,-4.1 -4.1,-4.1 h -19 c -2.3,0 -4.1,1.8 -4.1,4.1 v 7.2 c 0,2.2 1.8,4.1 4.1,4.1 z"
   id="path130"
   inkscape:connector-curvature="0"
   style="fill:#004371" />
<path
   d="m 465.00378,440.10419 c 2.2,0 4.1,-1.8 4.1,-4.1 v -7.2 c 0,-2.3 -1.8,-4.1 -4.1,-4.1 h -19 c -2.3,0 -4.1,1.8 -4.1,4.1 v 7.2 c 0,2.2 1.8,4.1 4.1,4.1 z"
   id="path132"
   inkscape:connector-curvature="0"
   style="fill:#004371" />
<path
   d="m 465.00378,460.50419 c 2.2,0 4.1,-1.8 4.1,-4.1 v -7.2 c 0,-2.3 -1.8,-4.1 -4.1,-4.1 h -19 c -2.3,0 -4.1,1.8 -4.1,4.1 v 7.2 c 0,2.2 1.8,4.1 4.1,4.1 z"
   id="path134"
   inkscape:connector-curvature="0"
   style="fill:#004371" />
<path
   d="m 397.60378,378.70419 c 2.2,0 4.1,-1.8 4.1,-4.1 v -7.2 c 0,-2.3 -1.8,-4.1 -4.1,-4.1 h -19 c -2.3,0 -4.1,1.8 -4.1,4.1 v 7.2 c 0,2.2 1.8,4.1 4.1,4.1 z"
   id="path136"
   inkscape:connector-curvature="0"
   style="fill:#004371" />
<path
   d="m 397.60378,399.20419 c 2.2,0 4.1,-1.8 4.1,-4.1 v -7.2 c 0,-2.3 -1.8,-4.1 -4.1,-4.1 h -19 c -2.3,0 -4.1,1.8 -4.1,4.1 v 7.2 c 0,2.2 1.8,4.1 4.1,4.1 z"
   id="path138"
   inkscape:connector-curvature="0"
   style="fill:#004371" />
<path
   d="m 397.60378,419.60419 c 2.2,0 4.1,-1.8 4.1,-4.1 v -7.2 c 0,-2.3 -1.8,-4.1 -4.1,-4.1 h -19 c -2.3,0 -4.1,1.8 -4.1,4.1 v 7.2 c 0,2.2 1.8,4.1 4.1,4.1 z"
   id="path140"
   inkscape:connector-curvature="0"
   style="fill:#004371" />
<path
   d="m 479.40378,292.60419 c -2.2,0 -4.1,1.8 -4.1,4.1 v 8 c 0,2.2 1.8,4.1 4.1,4.1 h 19 c 2.3,0 4.1,-1.8 4.1,-4.1 v -8 c 0,-2.2 -1.8,-4.1 -4.1,-4.1 z"
   id="path142"
   inkscape:connector-curvature="0"
   style="fill:#004371" />
<path
   d="m 479.30378,271.00419 c -2.2,0 -4.1,1.8 -4.1,4.1 v 8 c 0,2.2 1.8,4.1 4.1,4.1 h 19 c 2.2,0 4.1,-1.8 4.1,-4.1 v -8 c 0,-2.2 -1.8,-4.1 -4.1,-4.1 z"
   id="path144"
   inkscape:connector-curvature="0"
   style="fill:#004371" />
<path
   d="m 478.30378,250.40419 c -2.2,0.2 -3.9,2.2 -3.7,4.5 l 0.5,7 c 0.1,2.2 2,4 4.2,4 l 19,-0.4 c 2.2,-0.1 4,-1.9 4,-4.2 l -0.6,-9 c -0.2,-2.2 -2.2,-3.9 -4.4,-3.7 z"
   id="path146"
   inkscape:connector-curvature="0"
   style="fill:#004371" />
<path
   d="m 475.40378,230.00419 c -2.2,0.4 -3.7,2.6 -3.3,4.8 l 1.1,6.9 c 0.3,2.2 2.4,3.8 4.6,3.6 l 18.9,-2.3 c 2.2,-0.3 3.8,-2.3 3.5,-4.5 l -1.4,-8.9 c -0.4,-2.2 -2.5,-3.7 -4.7,-3.3 z"
   id="path148"
   inkscape:connector-curvature="0"
   style="fill:#004371" />
<path
   d="m 470.40378,209.90419 c -2.2,0.6 -3.4,2.9 -2.8,5.1 l 1.7,6.8 c 0.5,2.2 2.8,3.6 5,3.1 l 18.6,-4.1 c 2.2,-0.5 3.6,-2.7 3,-4.9 l -2.2,-8.7 c -0.6,-2.2 -2.9,-3.4 -5.1,-2.8 z"
   id="path150"
   inkscape:connector-curvature="0"
   style="fill:#004371" />
<path
   d="m 463.60378,190.50419 c -2.1,0.9 -3.1,3.3 -2.4,5.4 l 2.6,6.5 c 0.7,2.1 3,3.3 5.2,2.6 l 18.1,-5.9 c 2.1,-0.7 3.3,-3 2.6,-5.2 l -3.2,-8.4 c -0.8,-2.1 -3.1,-3.1 -5.2,-2.3 z"
   id="path152"
   inkscape:connector-curvature="0"
   style="fill:#004371" />
<path
   d="m 454.90378,171.80419 c -2,1 -2.8,3.5 -1.8,5.6 l 2.9,6.4 c 1,2 3.5,2.9 5.5,2 l 17.4,-7.6 c 2.1,-0.9 3,-3.3 2,-5.3 l -3.8,-8.2 c -1,-2 -3.5,-2.8 -5.5,-1.7 z"
   id="path154"
   inkscape:connector-curvature="0"
   style="fill:#004371" />
<path
   d="m 508.20378,160.70419 c 2,-0.9 2.9,-3.3 1.9,-5.4 l -3.8,-7.6 c -1,-2 -3.4,-2.8 -5.4,-1.7 l -16.8,9 c -2,1.1 -2.8,3.6 -1.8,5.6 l 3,6.1 c 1,2 3.5,2.9 5.5,2 z"
   id="path156"
   inkscape:connector-curvature="0"
   style="fill:#004371" />
<path
   d="m 516.40378,181.00419 c 2.1,-0.8 3.2,-3.1 2.4,-5.2 l -3.1,-7.9 c -0.9,-2.1 -3.3,-3 -5.4,-2.1 l -17.5,7.6 c -2.1,0.9 -3,3.3 -2.1,5.4 l 2.4,6.3 c 0.8,2.1 3.2,3.2 5.3,2.4 z"
   id="path158"
   inkscape:connector-curvature="0"
   style="fill:#004371" />
<path
   d="m 523.00378,201.90419 c 2.2,-0.6 3.5,-2.8 2.9,-5 l -2.6,-8.1 c -0.6,-2.2 -2.9,-3.3 -5.1,-2.6 l -18,6.1 c -2.1,0.7 -3.4,3.1 -2.7,5.2 l 2.1,6.5 c 0.6,2.2 2.8,3.5 5,2.9 z"
   id="path160"
   inkscape:connector-curvature="0"
   style="fill:#004371" />
<path
   d="m 527.80378,223.30419 c 2.2,-0.4 3.6,-2.5 3.2,-4.7 l -1.7,-8.3 c -0.5,-2.2 -2.7,-3.5 -4.9,-3 l -18.5,4.6 c -2.2,0.5 -3.6,2.8 -3,5 l 1.3,6.7 c 0.5,2.2 2.7,3.7 4.9,3.3 z"
   id="path162"
   inkscape:connector-curvature="0"
   style="fill:#004371" />
<path
   d="m 530.80378,245.00419 c 2.2,-0.2 3.9,-2.2 3.6,-4.5 l -1.1,-8.4 c -0.3,-2.2 -2.4,-3.8 -4.7,-3.4 l -18.8,3 c -2.2,0.4 -3.8,2.5 -3.4,4.7 l 0.8,6.8 c 0.2,2.2 2.3,3.9 4.5,3.7 z"
   id="path164"
   inkscape:connector-curvature="0"
   style="fill:#004371" />
<path
   d="m 532.00378,266.80419 c 2.2,0 4.1,-1.9 4,-4.1 l -0.5,-8.5 c -0.1,-2.2 -2,-4 -4.3,-3.8 l -19,1.4 c -2.2,0.2 -4,2.1 -3.9,4.4 l 0.5,6.8 c 0,2.2 1.9,4.1 4.1,4 z"
   id="path166"
   inkscape:connector-curvature="0"
   style="fill:#004371" />
<path
   d="m 412.60378,290.10419 c -2.3,0 -4.1,1.8 -4.1,4.1 v 9.1 c 0,2.2 1.8,4.1 4.1,4.1 h 19 c 2.2,0 4.1,-1.8 4.1,-4.1 v -9.1 c 0,-2.3 -1.8,-4.1 -4.1,-4.1 z"
   id="path168"
   inkscape:connector-curvature="0"
   style="fill:#004371" />
<path
   d="m 412.50378,267.30419 c -2.2,0.1 -4.1,1.9 -4.1,4.2 l 0.1,8.7 c 0,2.2 1.8,4.1 4.1,4.1 h 19 c 2.3,0 4.1,-1.8 4.1,-4.1 l -0.1,-9.4 c 0,-2.3 -1.9,-4.1 -4.1,-4 z"
   id="path170"
   inkscape:connector-curvature="0"
   style="fill:#004371" />
<path
   d="m 410.40378,245.90419 c -2.2,0.4 -3.8,2.5 -3.5,4.7 l 0.9,7.5 c 0.2,2.2 2.2,4 4.5,3.8 l 19,-1.1 c 2.2,-0.1 3.9,-2.1 3.7,-4.3 l -1.2,-10.5 c -0.3,-2.2 -2.4,-3.7 -4.6,-3.4 z"
   id="path172"
   inkscape:connector-curvature="0"
   style="fill:#004371" />
<path
   d="m 405.20378,225.00419 c -2.1,0.7 -3.3,3.1 -2.7,5.2 l 1.9,7.3 c 0.5,2.2 2.7,3.6 4.9,3.1 l 18.6,-3.9 c 2.2,-0.5 3.6,-2.6 3.1,-4.8 l -2.7,-10.2 c -0.7,-2.2 -2.9,-3.3 -5.1,-2.6 z"
   id="path174"
   inkscape:connector-curvature="0"
   style="fill:#004371" />
<path
   d="m 397.00378,205.00419 c -2,1 -2.9,3.5 -1.9,5.6 l 3,6.9 c 0.9,2.1 3.3,3.1 5.4,2.4 l 17.8,-6.7 c 2.1,-0.8 3.1,-3.1 2.3,-5.2 l -4.2,-9.7 c -1,-2 -3.4,-2.9 -5.4,-1.9 z"
   id="path176"
   inkscape:connector-curvature="0"
   style="fill:#004371" />
<path
   d="m 450.10378,195.50419 c 2.1,-0.9 3,-3.2 2.1,-5.3 l -3.9,-8.8 c -1,-2 -3.5,-2.8 -5.5,-1.8 l -16.9,8.8 c -2,1 -2.8,3.5 -1.8,5.5 l 2.9,6.6 c 0.9,2.1 3.4,3 5.5,2.2 z"
   id="path178"
   inkscape:connector-curvature="0"
   style="fill:#004371" />
<path
   d="m 457.60378,217.60419 c 2.2,-0.6 3.4,-2.9 2.7,-5 l -2.9,-9.2 c -0.8,-2.1 -3.1,-3.2 -5.2,-2.4 l -17.8,6.7 c -2.1,0.8 -3.2,3.2 -2.4,5.3 l 2.1,6.9 c 0.7,2.1 3,3.4 5.2,2.8 z"
   id="path180"
   inkscape:connector-curvature="0"
   style="fill:#004371" />
<path
   d="m 462.50378,240.30419 c 2.2,-0.3 3.7,-2.4 3.3,-4.6 l -1.7,-9.5 c -0.5,-2.2 -2.7,-3.5 -4.9,-3 l -18.5,4.6 c -2.2,0.5 -3.6,2.8 -3.1,5 l 1.3,7.1 c 0.4,2.2 2.6,3.7 4.8,3.4 z"
   id="path182"
   inkscape:connector-curvature="0"
   style="fill:#004371" />
<path
   d="m 464.70378,263.50419 c 2.2,-0.1 4,-2 3.8,-4.2 l -0.6,-9.6 c -0.2,-2.2 -2.3,-3.8 -4.5,-3.6 l -18.9,2.4 c -2.2,0.3 -3.9,2.3 -3.6,4.6 l 0.4,7.2 c 0.2,2.2 2.1,4 4.4,3.9 z"
   id="path184"
   inkscape:connector-curvature="0"
   style="fill:#004371" />
<path
   d="m 464.90378,286.00419 c 2.3,0 4.1,-1.8 4.1,-4.1 l -0.1,-8.5 c 0,-2.3 -1.8,-4.1 -4.1,-4.1 l -19,0.1 c -2.2,0 -4.1,1.9 -4.1,4.1 v 8.4 c 0,2.2 1.8,4.1 4.1,4.1 z"
   id="path186"
   inkscape:connector-curvature="0"
   style="fill:#004371" />
<path
   d="m 464.90378,308.20419 c 2.3,0 4.1,-1.8 4.1,-4.1 v -8.4 c 0,-2.2 -1.8,-4.1 -4.1,-4.1 h -19 c -2.2,0 -4.1,1.8 -4.1,4.1 v 8.4 c 0,2.2 1.8,4.1 4.1,4.1 z"
   id="path188"
   inkscape:connector-curvature="0"
   style="fill:#004371" />
<path
   d="m 391.70378,231.70419 c 2.1,-0.7 3.3,-3 2.5,-5.1 l -4.3,-11.1 c -0.9,-2.1 -3.3,-2.9 -5.3,-1.9 l -17.1,8.3 c -2,1 -2.9,3.5 -2,5.5 l 2.8,7.3 c 0.8,2.1 3.2,3.3 5.3,2.6 z"
   id="path190"
   inkscape:connector-curvature="0"
   style="fill:#004371" />
<path
   d="m 396.90378,257.10419 c 2.2,-0.2 3.8,-2.2 3.5,-4.5 l -2.1,-11.7 c -0.5,-2.2 -2.7,-3.5 -4.8,-3 l -18.4,4.8 c -2.2,0.6 -3.6,2.8 -3.1,5 l 1.4,7.7 c 0.3,2.2 2.4,3.9 4.6,3.6 z"
   id="path192"
   inkscape:connector-curvature="0"
   style="fill:#004371" />
<path
   d="m 397.60378,282.20419 c 2.2,0 4.1,-1.8 4.1,-4.1 l -0.2,-10.6 c 0,-2.2 -1.9,-4 -4.2,-3.9 l -19,1 c -2.2,0.1 -4.1,2.1 -4,4.3 l 0.1,9.1 c 0,2.2 1.8,4.1 4.1,4.1 z"
   id="path194"
   inkscape:connector-curvature="0"
   style="fill:#004371" />
<path
   d="m 397.60378,306.20419 c 2.3,0 4.1,-1.8 4.1,-4.1 v -9.9 c 0,-2.2 -1.8,-4.1 -4.1,-4.1 h -19 c -2.2,0 -4.1,1.8 -4.1,4.1 v 9.9 c 0,2.2 1.8,4.1 4.1,4.1 z"
   id="path196"
   inkscape:connector-curvature="0"
   style="fill:#004371" />
<path
   d="m 479.40378,314.90419 c -2.2,0 -4.1,1.8 -4.1,4.1 v 8 c 0,2.2 1.8,4.1 4.1,4.1 h 19 c 2.3,0 4.1,-1.8 4.1,-4.1 v -8 c 0,-2.2 -1.8,-4.1 -4.1,-4.1 z"
   id="path198"
   inkscape:connector-curvature="0"
   style="fill:#004371" />
<path
   d="m 412.60378,312.30419 c -2.3,0 -4.1,1.8 -4.1,4.1 v 9.1 c 0,2.2 1.8,4.1 4.1,4.1 h 19 c 2.2,0 4.1,-1.8 4.1,-4.1 v -9.1 c 0,-2.3 -1.8,-4.1 -4.1,-4.1 z"
   id="path200"
   inkscape:connector-curvature="0"
   style="fill:#004371" />
<path
   d="m 464.90378,330.40419 c 2.3,0 4.1,-1.8 4.1,-4.1 v -8.4 c 0,-2.2 -1.8,-4.1 -4.1,-4.1 h -19 c -2.2,0 -4.1,1.8 -4.1,4.1 v 8.4 c 0,2.2 1.8,4.1 4.1,4.1 z"
   id="path202"
   inkscape:connector-curvature="0"
   style="fill:#004371" />
<path
   d="m 397.60378,328.50419 c 2.3,0 4.1,-1.8 4.1,-4.1 v -9.9 c 0,-2.2 -1.8,-4.1 -4.1,-4.1 h -19 c -2.2,0 -4.1,1.8 -4.1,4.1 v 9.9 c 0,2.2 1.8,4.1 4.1,4.1 z"
   id="path204"
   inkscape:connector-curvature="0"
   style="fill:#004371" />
<path
   d="m 243.90378,4.904195 c -0.2,-2.2 1.5,-4.20000004 3.7,-4.40000004 l 7.3,-0.5 c 2.3,-0.1 4.2,1.60000004 4.2,3.80000004 l 0.7,19.1 c 0.1,2.3 -1.7,4.2 -4,4.4 l -5.7,0.4 c -2.3,0.1 -4.3,-1.6 -4.5,-3.8 z"
   id="path206"
   inkscape:connector-curvature="0"
   style="fill:#004371" />
<path
   d="m 223.70378,7.604195 c -0.4,-2.2 1.1,-4.3 3.4,-4.6 l 7.2,-1.1 c 2.2,-0.3 4.3,1.4 4.5,3.6 l 2.1,19 c 0.2,2.2 -1.4,4.3 -3.6,4.6 l -5.7,0.9 c -2.2,0.3 -4.4,-1.3 -4.8,-3.5 z"
   id="path208"
   inkscape:connector-curvature="0"
   style="fill:#004371" />
<path
   d="m 203.80378,11.804195 c -0.5,-2.2 0.8,-4.4 3,-4.9 l 7.1,-1.6 c 2.2,-0.4 4.4,1.1 4.8,3.3 l 3.6,18.8 c 0.4,2.2 -1.1,4.4 -3.3,4.8 l -5.6,1.3 c -2.2,0.5 -4.5,-0.9 -5,-3.1 z"
   id="path210"
   inkscape:connector-curvature="0"
   style="fill:#004371" />
<path
   d="m 184.20378,17.504195 c -0.7,-2.1 0.4,-4.5 2.6,-5.2 l 7,-2 c 2.2,-0.6 4.4,0.6 5,2.8 l 5,18.4 c 0.6,2.2 -0.7,4.5 -2.9,5.1 l -5.5,1.6 c -2.1,0.7 -4.5,-0.4 -5.2,-2.6 z"
   id="path212"
   inkscape:connector-curvature="0"
   style="fill:#004371" />
<path
   d="m 165.10378,24.704195 c -0.9,-2.1 0.1,-4.5 2.2,-5.3 l 6.8,-2.6 c 2.1,-0.8 4.4,0.2 5.2,2.4 l 6.4,18 c 0.8,2.1 -0.3,4.5 -2.4,5.4 l -5.4,2 c -2.1,0.9 -4.5,-0.1 -5.4,-2.2 z"
   id="path214"
   inkscape:connector-curvature="0"
   style="fill:#004371" />
<path
   d="m 128.90378,43.404195 c -1.2,-1.9 -0.6,-4.4 1.4,-5.6 l 6.3,-3.7 c 2,-1.1 4.5,-0.3 5.6,1.7 l 9.1,16.8 c 1.1,2 0.3,4.5 -1.7,5.6 l -4.9,3 c -1.9,1.2 -4.5,0.5 -5.7,-1.4 z"
   id="path216"
   inkscape:connector-curvature="0"
   style="fill:#004371" />
<path
   d="m 112.00378,54.804195 c -1.3,-1.8 -0.9,-4.4 0.9,-5.7 l 6.1,-4.1 c 1.9,-1.3 4.4,-0.7 5.6,1.1 l 10.4,16 c 1.2,1.9 0.7,4.5 -1.2,5.8 l -4.8,3.2 c -1.8,1.3 -4.4,0.9 -5.7,-0.9 z"
   id="path218"
   inkscape:connector-curvature="0"
   style="fill:#004371" />
<path
   d="m 96.003777,67.404195 c -1.5,-1.7 -1.2,-4.3 0.5,-5.7 l 5.700003,-4.6 c 1.8,-1.4 4.3,-1.1 5.7,0.7 l 11.6,15.2 c 1.4,1.8 1,4.4 -0.7,5.9 l -4.5,3.6 c -1.8,1.4 -4.4,1.2 -5.9,-0.5 z"
   id="path220"
   inkscape:connector-curvature="0"
   style="fill:#004371" />
<path
   d="m 81.003777,81.304195 c -1.6,-1.6 -1.6,-4.2 0.1,-5.7 l 5.3,-5.1 c 1.7,-1.5 4.3,-1.3 5.8,0.3 l 12.700003,14.3 c 1.5,1.7 1.3,4.3 -0.3,5.8 l -4.1,4 c -1.600003,1.5 -4.300003,1.5 -5.900003,-0.1 z"
   id="path222"
   inkscape:connector-curvature="0"
   style="fill:#004371" />
<path
   d="m 67.203777,96.204195 c -1.7,-1.5 -1.9,-4.1 -0.4,-5.8 l 4.9,-5.4 c 1.6,-1.6 4.2,-1.7 5.8,-0.1 l 13.7,13.3 c 1.6,1.6 1.7,4.199995 0.1,5.799995 l -3.9,4.3 c -1.5,1.7 -4.1,1.9 -5.8,0.4 z"
   id="path224"
   inkscape:connector-curvature="0"
   style="fill:#004371" />
<path
   d="m 54.503777,112.20419 c -1.8,-1.3 -2.2,-3.9 -0.9,-5.8 l 4.6,-5.7 c 1.4,-1.799995 3.9,-2.099995 5.7,-0.6 l 14.7,12.2 c 1.7,1.4 2,4.1 0.6,5.9 l -3.7,4.4 c -1.3,1.8 -3.9,2.2 -5.7,0.9 z"
   id="path226"
   inkscape:connector-curvature="0"
   style="fill:#004371" />
<path
   d="m 42.903777,129.00419 c -1.9,-1.2 -2.5,-3.7 -1.2,-5.6 l 4.1,-6.1 c 1.3,-1.9 3.8,-2.4 5.6,-1 l 15.6,11 c 1.8,1.3 2.3,3.9 1.1,5.8 l -3.2,4.8 c -1.3,1.9 -3.8,2.4 -5.8,1.2 z"
   id="path228"
   inkscape:connector-curvature="0"
   style="fill:#004371" />
<path
   d="m 96.603777,144.20419 c 1.8,1.3 2.3,3.9 1,5.8 l -3.4,4.8 c -1.2,1.9 -3.8,2.4 -5.7,1.2 l -16.2,-10.2 c -1.9,-1.2 -2.5,-3.7 -1.2,-5.6 l 4.4,-6.3 c 1.3,-1.9 3.8,-2.3 5.6,-1 z"
   id="path230"
   inkscape:connector-curvature="0"
   style="fill:#f13516" />
<path
   d="m 108.60378,129.30419 c 1.7,1.5 1.9,4.1 0.4,5.8 l -3.7,4.6 c -1.4,1.8 -4,2.1 -5.800003,0.7 l -15.2,-11.6 c -1.8,-1.4 -2.1,-3.9 -0.7,-5.7 l 4.9,-6 c 1.5,-1.7 4.1,-1.9 5.8,-0.4 z"
   id="path232"
   inkscape:connector-curvature="0"
   style="fill:#004371" />
<path
   d="m 121.80378,115.40419 c 1.6,1.6 1.5,4.3 0,5.9 l -4.2,4.1 c -1.6,1.6 -4.2,1.7 -5.9,0.2 l -14.100003,-12.9 c -1.7,-1.5 -1.8,-4.1 -0.2,-5.8 l 5.500003,-5.4 c 1.6,-1.599995 4.2,-1.599995 5.7,0.1 z"
   id="path234"
   inkscape:connector-curvature="0"
   style="fill:#004371" />
<path
   d="m 136.30378,102.90419 c 1.4,1.8 1.1,4.4 -0.7,5.8 l -4.4,3.9 c -1.7,1.5 -4.3,1.3 -5.9,-0.3 l -12.9,-14.099995 c -1.5,-1.7 -1.4,-4.3 0.3,-5.7 l 5.8,-5 c 1.8,-1.4 4.4,-1.1 5.8,0.6 z"
   id="path236"
   inkscape:connector-curvature="0"
   style="fill:#004371" />
<path
   d="m 151.80378,91.604195 c 1.2,1.9 0.7,4.5 -1.1,5.8 l -4.9,3.299995 c -1.8,1.3 -4.4,1 -5.8,-0.799995 l -11.5,-15.2 c -1.4,-1.8 -1,-4.4 0.8,-5.7 l 6.4,-4.4 c 1.8,-1.3 4.4,-0.8 5.6,1.1 z"
   id="path238"
   inkscape:connector-curvature="0"
   style="fill:#004371" />
<path
   d="m 168.30378,81.804195 c 1.1,2 0.3,4.5 -1.7,5.6 l -5,3 c -1.9,1.2 -4.5,0.5 -5.7,-1.4 l -10.1,-16.2 c -1.2,-1.9 -0.6,-4.4 1.3,-5.6 l 6.6,-3.9 c 2,-1.1 4.5,-0.3 5.5,1.7 z"
   id="path240"
   inkscape:connector-curvature="0"
   style="fill:#004371" />
<path
   d="m 185.50378,73.604195 c 0.9,2.1 -0.1,4.6 -2.1,5.5 l -5.4,2.4 c -2,1 -4.5,0.2 -5.5,-1.9 l -8.6,-17 c -1,-2 -0.2,-4.5 1.8,-5.5 l 7.1,-3.2 c 2.1,-1 4.5,0 5.3,2.1 z"
   id="path242"
   inkscape:connector-curvature="0"
   style="fill:#004371" />
<path
   d="m 203.50378,66.904195 c 0.7,2.2 -0.5,4.5 -2.6,5.2 l -5.5,2 c -2.1,0.8 -4.5,-0.3 -5.4,-2.4 l -7.1,-17.7 c -0.8,-2.1 0.2,-4.5 2.3,-5.3 l 7.3,-2.7 c 2.1,-0.7 4.5,0.5 5.2,2.6 z"
   id="path244"
   inkscape:connector-curvature="0"
   style="fill:#004371" />
<path
   d="m 221.90378,61.904195 c 0.5,2.2 -0.9,4.5 -3.1,5 l -5.7,1.4 c -2.2,0.6 -4.5,-0.7 -5.1,-2.9 l -5.4,-18.3 c -0.6,-2.2 0.6,-4.4 2.8,-5 l 7.5,-1.9 c 2.2,-0.6 4.4,0.8 4.9,3 z"
   id="path246"
   inkscape:connector-curvature="0"
   style="fill:#004371" />
<path
   d="m 240.80378,58.604195 c 0.3,2.2 -1.3,4.3 -3.5,4.6 l -5.8,1 c -2.2,0.4 -4.4,-1.1 -4.8,-3.3 l -3.7,-18.7 c -0.4,-2.2 1,-4.4 3.2,-4.8 l 7.6,-1.3 c 2.2,-0.3 4.3,1.3 4.6,3.5 z"
   id="path248"
   inkscape:connector-curvature="0"
   style="fill:#004371" />
<path
   d="m 259.90378,56.904195 c 0.1,2.3 -1.7,4.2 -3.9,4.4 l -5.9,0.5 c -2.3,0.2 -4.3,-1.5 -4.5,-3.8 l -2,-19 c -0.2,-2.2 1.4,-4.2 3.7,-4.4 l 7.7,-0.6 c 2.3,-0.1 4.2,1.6 4.3,3.8 z"
   id="path250"
   inkscape:connector-curvature="0"
   style="fill:#004371" />
<path
   d="m 242.90378,72.904195 c -0.3,-2.2 1.3,-4.2 3.6,-4.4 l 8.3,-0.9 c 2.3,-0.1 4.2,1.6 4.3,3.9 l 0.9,19.1 c 0.1,2.3 -1.7,4.2 -3.9,4.3 l -6.1,0.7 c -2.2,0.2 -4.3,-1.5 -4.6,-3.7 z"
   id="path252"
   inkscape:connector-curvature="0"
   style="fill:#004371" />
<path
   d="m 221.70378,76.804195 c -0.5,-2.2 0.8,-4.4 3,-4.9 l 8.2,-1.5 c 2.2,-0.4 4.3,1.1 4.7,3.3 l 3,18.9 c 0.3,2.2 -1.2,4.4 -3.4,4.8 l -6,1.1 c -2.2,0.5 -4.4,-0.9 -5,-3.1 z"
   id="path254"
   inkscape:connector-curvature="0"
   style="fill:#004371" />
<path
   d="m 201.00378,83.004195 c -0.8,-2.1 0.3,-4.5 2.5,-5.2 l 8,-2.4 c 2.2,-0.7 4.4,0.6 5,2.8 l 5,18.4 c 0.6,2.2 -0.7,4.499995 -2.9,5.199995 l -5.9,1.7 c -2.1,0.7 -4.5,-0.4 -5.3,-2.5 z"
   id="path256"
   inkscape:connector-curvature="0"
   style="fill:#004371" />
<path
   d="m 181.10378,91.504195 c -1,-2 -0.1,-4.5 1.9,-5.4 l 7.6,-3.3 c 2.1,-0.9 4.5,0.1 5.3,2.2 l 7,17.799995 c 0.8,2.1 -0.2,4.5 -2.3,5.4 l -5.6,2.4 c -2,1 -4.5,0.1 -5.5,-1.9 z"
   id="path258"
   inkscape:connector-curvature="0"
   style="fill:#004371" />
<path
   d="m 162.30378,102.10419 c -1.2,-1.9 -0.6,-4.399995 1.3,-5.599995 l 7.2,-4.2 c 2,-1.1 4.5,-0.3 5.5,1.7 l 8.9,16.899995 c 1.1,2 0.3,4.5 -1.7,5.6 l -5.2,3.1 c -1.9,1.2 -4.5,0.6 -5.7,-1.3 z"
   id="path260"
   inkscape:connector-curvature="0"
   style="fill:#004371" />
<path
   d="m 144.70378,114.70419 c -1.4,-1.8 -1.1,-4.3 0.7,-5.7 l 6.6,-5.1 c 1.9,-1.3 4.4,-0.8 5.7,1.1 l 10.7,15.8 c 1.3,1.9 0.8,4.5 -1.1,5.7 l -4.8,3.7 c -1.8,1.4 -4.4,1 -5.9,-0.7 z"
   id="path262"
   inkscape:connector-curvature="0"
   style="fill:#004371" />
<path
   d="m 128.60378,129.10419 c -1.6,-1.6 -1.6,-4.2 0.1,-5.7 l 6.1,-5.7 c 1.7,-1.5 4.3,-1.3 5.7,0.4 l 12.3,14.6 c 1.5,1.7 1.3,4.3 -0.4,5.8 l -4.4,4.2 c -1.6,1.5 -4.3,1.5 -5.9,-0.1 z"
   id="path264"
   inkscape:connector-curvature="0"
   style="fill:#004371" />
<path
   d="m 114.10378,145.10419 c -1.8,-1.4 -2,-4 -0.6,-5.7 l 5.5,-6.2 c 1.5,-1.7 4.1,-1.8 5.7,-0.2 l 13.8,13.2 c 1.6,1.6 1.7,4.2 0.2,5.9 l -4.1,4.6 c -1.4,1.7 -4.1,2 -5.8,0.6 z"
   id="path266"
   inkscape:connector-curvature="0"
   style="fill:#004371" />
<path
   d="m 101.40378,162.60419 c -1.900003,-1.2 -2.400003,-3.8 -1.2,-5.6 l 4.9,-6.7 c 1.3,-1.8 3.8,-2.2 5.6,-0.9 l 15.2,11.6 c 1.8,1.4 2.2,4 0.9,5.8 l -3.7,4.9 c -1.2,1.9 -3.8,2.4 -5.7,1.2 z"
   id="path268"
   inkscape:connector-curvature="0"
   style="fill:#f13516" />
<path
   d="m 155.40378,177.50419 c 1.8,1.4 2.1,4.1 0.7,5.9 l -3.9,5.2 c -1.3,1.9 -3.9,2.4 -5.8,1.1 l -16,-10.5 c -1.9,-1.2 -2.4,-3.8 -1.1,-5.6 l 5.5,-7.5 c 1.4,-1.8 3.9,-2.1 5.7,-0.7 z"
   id="path270"
   inkscape:connector-curvature="0"
   style="fill:#f13516" />
<path
   d="m 184.90378,150.10419 c 1.3,1.8 0.9,4.5 -0.9,5.8 l -5.1,4 c -1.7,1.4 -4.4,1.2 -5.9,-0.5 l -12.5,-14.4 c -1.5,-1.7 -1.3,-4.3 0.5,-5.7 l 7.4,-5.7 c 1.8,-1.3 4.4,-0.9 5.7,0.9 z"
   id="path272"
   inkscape:connector-curvature="0"
   style="fill:#004371" />
<path
   d="m 202.10378,139.70419 c 1,2 0.3,4.5 -1.7,5.6 l -5.6,3.3 c -1.9,1.2 -4.5,0.6 -5.7,-1.3 l -10.4,-16 c -1.2,-1.9 -0.7,-4.4 1.3,-5.6 l 8,-4.7 c 2,-1.1 4.4,-0.3 5.5,1.7 z"
   id="path274"
   inkscape:connector-curvature="0"
   style="fill:#004371" />
<path
   d="m 220.60378,131.80419 c 0.7,2.1 -0.4,4.5 -2.5,5.3 l -6,2.5 c -2.1,0.9 -4.5,0 -5.5,-2.1 l -8.1,-17.3 c -1,-2 -0.1,-4.5 2,-5.4 l 8.6,-3.5 c 2.1,-0.8 4.5,0.3 5.2,2.5 z"
   id="path276"
   inkscape:connector-curvature="0"
   style="fill:#004371" />
<path
   d="m 240.10378,126.50419 c 0.4,2.2 -1,4.4 -3.2,5 l -6.3,1.5 c -2.2,0.6 -4.5,-0.7 -5.2,-2.8 l -5.6,-18.3 c -0.7,-2.2 0.6,-4.4 2.7,-5 l 9.1,-2.2 c 2.2,-0.5 4.4,0.9 4.8,3.1 z"
   id="path278"
   inkscape:connector-curvature="0"
   style="fill:#004371" />
<path
   d="m 260.10378,123.90419 c 0.1,2.3 -1.6,4.2 -3.9,4.4 l -6.4,0.8 c -2.2,0.3 -4.4,-1.3 -4.7,-3.5 l -3,-18.8 c -0.4,-2.2 1.2,-4.3 3.4,-4.6 l 9.3,-1.1 c 2.2,-0.2 4.2,1.5 4.3,3.8 z"
   id="path280"
   inkscape:connector-curvature="0"
   style="fill:#004371" />
<path
   d="m 240.40378,141.80419 c -0.5,-2.2 0.9,-4.3 3.2,-4.7 l 10.9,-1.7 c 2.2,-0.2 4.2,1.4 4.4,3.7 l 1.4,19 c 0.2,2.3 -1.5,4.3 -3.8,4.5 l -7,1.1 c -2.2,0.4 -4.4,-1.1 -4.9,-3.3 z"
   id="path282"
   inkscape:connector-curvature="0"
   style="fill:#004371" />
<path
   d="m 216.80378,149.40419 c -0.9,-2.1 0.1,-4.4 2.2,-5.3 l 10.4,-3.6 c 2.2,-0.7 4.4,0.6 5,2.8 l 5,18.4 c 0.6,2.2 -0.7,4.5 -2.9,5.2 l -6.7,2.3 c -2.1,0.8 -4.6,-0.2 -5.4,-2.3 z"
   id="path284"
   inkscape:connector-curvature="0"
   style="fill:#004371" />
<path
   d="m 195.00378,161.30419 c -1.3,-1.9 -0.7,-4.4 1.2,-5.6 l 9.5,-5.5 c 2,-1.1 4.4,-0.3 5.4,1.8 l 8.4,17.2 c 1,2 0.2,4.6 -1.8,5.6 l -6.2,3.5 c -1.9,1.2 -4.5,0.7 -5.8,-1.2 z"
   id="path286"
   inkscape:connector-curvature="0"
   style="fill:#004371" />
<path
   d="m 176.00378,177.10419 c -1.6,-1.6 -1.5,-4.2 0.1,-5.7 l 8.2,-7.3 c 1.8,-1.4 4.3,-1.1 5.7,0.7 l 11.5,15.3 c 1.4,1.8 1,4.4 -0.7,5.8 l -5.3,4.7 c -1.7,1.5 -4.3,1.5 -5.9,-0.1 z"
   id="path288"
   inkscape:connector-curvature="0"
   style="fill:#004371" />
<path
   d="m 160.20378,196.20419 c -1.9,-1.3 -2.3,-3.8 -1,-5.6 l 6.9,-8.6 c 1.4,-1.7 4,-1.9 5.7,-0.4 l 14.1,12.8 c 1.7,1.5 1.9,4.2 0.4,5.9 l -4.5,5.5 c -1.3,1.8 -3.9,2.3 -5.8,1 z"
   id="path290"
   inkscape:connector-curvature="0"
   style="fill:#f13516" />
<path
   d="m 138.80378,358.20419 c -2.3,0 -4.1,-1.8 -4.1,-4.1 v -7.2 c 0,-2.3 1.8,-4.1 4.1,-4.1 h 19 c 2.3,0 4.1,1.8 4.1,4.1 v 7.2 c 0,2.3 -1.8,4.1 -4.1,4.1 z"
   id="path292"
   inkscape:connector-curvature="0"
   style="fill:#f13516" />
<path
   d="m 56.803777,424.70419 c 2.2,0 4.1,1.8 4.1,4.1 v 7.2 c 0,2.3 -1.8,4.1 -4.1,4.1 h -19 c -2.3,0 -4.1,-1.8 -4.1,-4.1 v -7.2 c 0,-2.2 1.8,-4.1 4.1,-4.1 z"
   id="path294"
   inkscape:connector-curvature="0"
   style="fill:#f13516" />
<path
   d="m 56.903777,404.30419 c 2.2,0 4.1,1.8 4.1,4.1 v 7.2 c 0,2.3 -1.8,4.1 -4.1,4.1 h -19 c -2.3,0 -4.1,-1.8 -4.1,-4.1 v -7.2 c 0,-2.3 1.8,-4.1 4.1,-4.1 z"
   id="path296"
   inkscape:connector-curvature="0"
   style="fill:#f13516" />
<path
   d="m 56.903777,383.80419 c 2.2,0 4.1,1.8 4.1,4.1 v 7.2 c 0,2.3 -1.8,4.1 -4.1,4.1 h -19 c -2.3,0 -4.1,-1.8 -4.1,-4.1 v -7.2 c 0,-2.2 1.8,-4.1 4.1,-4.1 z"
   id="path298"
   inkscape:connector-curvature="0"
   style="fill:#f13516" />
<path
   d="m 56.903777,363.30419 c 2.2,0 4.1,1.8 4.1,4.1 v 7.2 c 0,2.3 -1.8,4.1 -4.1,4.1 h -19 c -2.3,0 -4.1,-1.8 -4.1,-4.1 v -7.2 c 0,-2.2 1.8,-4.1 4.1,-4.1 z"
   id="path300"
   inkscape:connector-curvature="0"
   style="fill:#f13516" />
<path
   d="m 57.003777,342.90419 c 2.2,0 4.1,1.8 4.1,4.1 v 7.2 c 0,2.3 -1.8,4.1 -4.1,4.1 h -19 c -2.3,0 -4.1,-1.8 -4.1,-4.1 v -7.2 c 0,-2.2 1.8,-4.1 4.1,-4.1 z"
   id="path302"
   inkscape:connector-curvature="0"
   style="fill:#f13516" />
<path
   d="m 124.00378,445.20419 c 2.2,0 4.1,1.8 4.1,4.1 v 7.2 c 0,2.3 -1.8,4.1 -4.1,4.1 h -19 c -2.3,0 -4.1,-1.8 -4.1,-4.1 v -7.2 c 0,-2.2 1.8,-4.1 4.1,-4.1 z"
   id="path304"
   inkscape:connector-curvature="0"
   style="fill:#f13516" />
<path
   d="m 124.00378,424.70419 c 2.2,0 4.1,1.8 4.1,4.1 v 7.2 c 0,2.3 -1.8,4.1 -4.1,4.1 h -19 c -2.3,0 -4.1,-1.8 -4.1,-4.1 v -7.2 c 0,-2.2 1.8,-4.1 4.1,-4.1 z"
   id="path306"
   inkscape:connector-curvature="0"
   style="fill:#f13516" />
<path
   d="m 157.80378,445.20419 c 2.2,0 4.1,1.8 4.1,4.1 v 7.2 c 0,2.3 -1.8,4.1 -4.1,4.1 h -19 c -2.3,0 -4.1,-1.8 -4.1,-4.1 v -7.2 c 0,-2.2 1.8,-4.1 4.1,-4.1 z"
   id="path308"
   inkscape:connector-curvature="0"
   style="fill:#f13516" />
<path
   d="m 157.80378,424.70419 c 2.2,0 4.1,1.8 4.1,4.1 v 7.2 c 0,2.3 -1.8,4.1 -4.1,4.1 h -19 c -2.3,0 -4.1,-1.8 -4.1,-4.1 v -7.2 c 0,-2.2 1.8,-4.1 4.1,-4.1 z"
   id="path310"
   inkscape:connector-curvature="0"
   style="fill:#f13516" />
<path
   d="m 124.00378,404.30419 c 2.2,0 4.1,1.8 4.1,4.1 v 7.2 c 0,2.3 -1.8,4.1 -4.1,4.1 h -19 c -2.3,0 -4.1,-1.8 -4.1,-4.1 v -7.2 c 0,-2.2 1.8,-4.1 4.1,-4.1 z"
   id="path312"
   inkscape:connector-curvature="0"
   style="fill:#f13516" />
<path
   d="m 124.00378,383.80419 c 2.2,0 4.1,1.8 4.1,4.1 v 7.2 c 0,2.3 -1.8,4.1 -4.1,4.1 h -19 c -2.3,0 -4.1,-1.8 -4.1,-4.1 v -7.2 c 0,-2.2 1.8,-4.1 4.1,-4.1 z"
   id="path314"
   inkscape:connector-curvature="0"
   style="fill:#f13516" />
<path
   d="m 124.00378,363.30419 c 2.2,0 4.1,1.8 4.1,4.1 v 7.2 c 0,2.3 -1.8,4.1 -4.1,4.1 h -19 c -2.3,0 -4.1,-1.8 -4.1,-4.1 v -7.2 c 0,-2.2 1.8,-4.1 4.1,-4.1 z"
   id="path316"
   inkscape:connector-curvature="0"
   style="fill:#f13516" />
<path
   d="m 123.90378,342.90419 c 2.2,0 4.1,1.8 4.1,4.1 v 7.2 c 0,2.3 -1.8,4.1 -4.1,4.1 h -19 c -2.3,0 -4.1,-1.8 -4.1,-4.1 v -7.2 c 0,-2.2 1.8,-4.1 4.1,-4.1 z"
   id="path318"
   inkscape:connector-curvature="0"
   style="fill:#f13516" />
<path
   d="m 71.503777,358.20419 c -2.2,0 -4.1,-1.8 -4.1,-4.1 v -7.2 c 0,-2.3 1.8,-4.1 4.1,-4.1 h 19 c 2.3,0 4.1,1.8 4.1,4.1 v 7.2 c 0,2.2 -1.8,4.1 -4.1,4.1 z"
   id="path320"
   inkscape:connector-curvature="0"
   style="fill:#f13516" />
<path
   d="m 71.403777,378.70419 c -2.2,0 -4.1,-1.8 -4.1,-4.1 v -7.2 c 0,-2.3 1.8,-4.1 4.1,-4.1 h 19 c 2.3,0 4.1,1.8 4.1,4.1 v 7.2 c 0,2.2 -1.8,4.1 -4.1,4.1 z"
   id="path322"
   inkscape:connector-curvature="0"
   style="fill:#f13516" />
<path
   d="m 71.403777,399.10419 c -2.2,0 -4.1,-1.8 -4.1,-4.1 v -7.2 c 0,-2.3 1.8,-4.1 4.1,-4.1 h 19 c 2.3,0 4.1,1.8 4.1,4.1 v 7.2 c 0,2.2 -1.8,4.1 -4.1,4.1 z"
   id="path324"
   inkscape:connector-curvature="0"
   style="fill:#f13516" />
<path
   d="m 71.403777,419.60419 c -2.2,0 -4.1,-1.8 -4.1,-4.1 v -7.2 c 0,-2.3 1.8,-4.1 4.1,-4.1 h 19 c 2.3,0 4.1,1.8 4.1,4.1 v 7.2 c 0,2.2 -1.8,4.1 -4.1,4.1 z"
   id="path326"
   inkscape:connector-curvature="0"
   style="fill:#f13516" />
<path
   d="m 71.403777,440.10419 c -2.2,0 -4.1,-1.8 -4.1,-4.1 v -7.2 c 0,-2.3 1.8,-4.1 4.1,-4.1 h 19 c 2.3,0 4.1,1.8 4.1,4.1 v 7.2 c 0,2.2 -1.8,4.1 -4.1,4.1 z"
   id="path328"
   inkscape:connector-curvature="0"
   style="fill:#f13516" />
<path
   d="m 71.403777,460.50419 c -2.2,0 -4.1,-1.8 -4.1,-4.1 v -7.2 c 0,-2.3 1.8,-4.1 4.1,-4.1 h 19 c 2.3,0 4.1,1.8 4.1,4.1 v 7.2 c 0,2.2 -1.8,4.1 -4.1,4.1 z"
   id="path330"
   inkscape:connector-curvature="0"
   style="fill:#f13516" />
<path
   d="m 138.80378,378.70419 c -2.2,0 -4.1,-1.8 -4.1,-4.1 v -7.2 c 0,-2.3 1.8,-4.1 4.1,-4.1 h 19 c 2.3,0 4.1,1.8 4.1,4.1 v 7.2 c 0,2.2 -1.8,4.1 -4.1,4.1 z"
   id="path332"
   inkscape:connector-curvature="0"
   style="fill:#f13516" />
<path
   d="m 138.80378,399.20419 c -2.2,0 -4.1,-1.8 -4.1,-4.1 v -7.2 c 0,-2.3 1.8,-4.1 4.1,-4.1 h 19 c 2.3,0 4.1,1.8 4.1,4.1 v 7.2 c 0,2.2 -1.8,4.1 -4.1,4.1 z"
   id="path334"
   inkscape:connector-curvature="0"
   style="fill:#f13516" />
<path
   d="m 138.80378,419.60419 c -2.2,0 -4.1,-1.8 -4.1,-4.1 v -7.2 c 0,-2.3 1.8,-4.1 4.1,-4.1 h 19 c 2.3,0 4.1,1.8 4.1,4.1 v 7.2 c 0,2.2 -1.8,4.1 -4.1,4.1 z"
   id="path336"
   inkscape:connector-curvature="0"
   style="fill:#f13516" />
<path
   d="M 222.80378,200.70419"
   id="path338"
   inkscape:connector-curvature="0"
   style="fill:#004371" />
<path
   d="m 169.20378,162.80419 c 1.5,1.7 1.5,4.3 -0.1,5.9 l -4.5,4.7 c -1.5,1.7 -4.2,1.8 -5.9,0.3 l -14.4,-12.6 c -1.7,-1.5 -1.8,-4.1 -0.3,-5.7 l 6.4,-6.7 c 1.6,-1.6 4.2,-1.5 5.7,0.1 z"
   id="path340"
   inkscape:connector-curvature="0"
   style="fill:#004371" />
<path
   d="m 57.103777,292.60419 c 2.2,0 4.1,1.8 4.1,4.1 v 8 c 0,2.2 -1.8,4.1 -4.1,4.1 h -19 c -2.3,0 -4.1,-1.8 -4.1,-4.1 v -8 c 0,-2.2 1.8,-4.1 4.1,-4.1 z"
   id="path342"
   inkscape:connector-curvature="0"
   style="fill:#f13516" />
<path
   d="m 57.103777,271.00419 c 2.2,0 4.1,1.8 4.1,4.1 v 8 c 0,2.2 -1.8,4.1 -4.1,4.1 h -19 c -2.2,0 -4.1,-1.8 -4.1,-4.1 v -8 c 0,-2.2 1.8,-4.1 4.1,-4.1 z"
   id="path344"
   inkscape:connector-curvature="0"
   style="fill:#f13516" />
<path
   d="m 58.203777,250.40419 c 2.2,0.2 3.9,2.2 3.7,4.5 l -0.5,7 c -0.1,2.2 -2,4 -4.2,4 l -19,-0.4 c -2.2,-0.1 -4,-1.9 -4,-4.2 l 0.6,-9 c 0.2,-2.2 2.2,-3.9 4.4,-3.7 z"
   id="path346"
   inkscape:connector-curvature="0"
   style="fill:#f13516" />
<path
   d="m 61.003777,230.00419 c 2.2,0.4 3.7,2.6 3.3,4.8 l -1.1,6.9 c -0.3,2.2 -2.4,3.8 -4.6,3.6 l -18.9,-2.3 c -2.2,-0.3 -3.8,-2.3 -3.5,-4.5 l 1.4,-8.9 c 0.4,-2.2 2.5,-3.7 4.7,-3.3 z"
   id="path348"
   inkscape:connector-curvature="0"
   style="fill:#f13516" />
<path
   d="m 66.003777,209.90419 c 2.2,0.6 3.4,2.9 2.8,5.1 l -1.7,6.8 c -0.5,2.2 -2.8,3.6 -5,3.1 l -18.6,-4.1 c -2.2,-0.5 -3.6,-2.7 -3,-4.9 l 2.2,-8.7 c 0.6,-2.2 2.9,-3.4 5.1,-2.8 z"
   id="path350"
   inkscape:connector-curvature="0"
   style="fill:#f13516" />
<path
   d="m 72.903777,190.50419 c 2.1,0.9 3.1,3.3 2.4,5.4 l -2.6,6.5 c -0.7,2.1 -3,3.3 -5.2,2.6 l -18.1,-5.9 c -2.1,-0.7 -3.3,-3 -2.6,-5.2 l 3.2,-8.4 c 0.8,-2.1 3.1,-3.1 5.2,-2.3 z"
   id="path352"
   inkscape:connector-curvature="0"
   style="fill:#f13516" />
<path
   d="m 81.503777,171.80419 c 2,1 2.8,3.5 1.8,5.6 l -2.9,6.4 c -1,2 -3.5,2.9 -5.5,2 l -17.4,-7.6 c -2.1,-0.9 -3,-3.3 -2,-5.3 l 3.8,-8.2 c 1,-2 3.5,-2.8 5.5,-1.7 z"
   id="path354"
   inkscape:connector-curvature="0"
   style="fill:#f13516" />
<path
   d="m 28.203777,160.70419 c -2,-0.9 -2.9,-3.3 -1.9,-5.4 l 3.8,-7.6 c 1,-2 3.4,-2.8 5.4,-1.7 l 16.8,9 c 2,1.1 2.8,3.6 1.8,5.6 l -3,6.1 c -1,2 -3.5,2.9 -5.5,2 z"
   id="path356"
   inkscape:connector-curvature="0"
   style="fill:#f13516" />
<path
   d="m 20.003777,181.00419 c -2.1,-0.8 -3.2,-3.1 -2.4,-5.2 l 3.1,-7.9 c 0.9,-2.1 3.3,-3 5.4,-2.1 l 17.5,7.6 c 2.1,0.9 3,3.3 2.1,5.4 l -2.4,6.3 c -0.8,2.1 -3.2,3.2 -5.3,2.4 z"
   id="path358"
   inkscape:connector-curvature="0"
   style="fill:#f13516" />
<path
   d="m 13.403777,201.90419 c -2.2,-0.6 -3.5,-2.8 -2.9,-5 l 2.6,-8.1 c 0.6,-2.2 2.9,-3.3 5.1,-2.6 l 18,6.1 c 2.1,0.7 3.4,3.1 2.7,5.2 l -2.1,6.5 c -0.6,2.2 -2.8,3.5 -5,2.9 z"
   id="path360"
   inkscape:connector-curvature="0"
   style="fill:#f13516" />
<path
   d="m 8.603777,223.30419 c -2.2,-0.4 -3.6,-2.5 -3.2,-4.7 l 1.7,-8.3 c 0.5,-2.2 2.7,-3.5 4.9,-3 l 18.5,4.6 c 2.2,0.5 3.6,2.8 3,5 l -1.3,6.7 c -0.5,2.2 -2.7,3.7 -4.9,3.3 z"
   id="path362"
   inkscape:connector-curvature="0"
   style="fill:#f13516" />
<path
   d="m 5.703777,245.00419 c -2.2,-0.2 -3.9,-2.2 -3.6,-4.5 l 1.1,-8.4 c 0.3,-2.2 2.4,-3.8 4.7,-3.4 l 18.8,3 c 2.2,0.4 3.8,2.5 3.4,4.7 l -0.8,6.8 c -0.2,2.2 -2.3,3.9 -4.5,3.7 z"
   id="path364"
   inkscape:connector-curvature="0"
   style="fill:#f13516" />
<path
   d="m 123.90378,290.10419 c 2.3,0 4.1,1.8 4.1,4.1 v 9.1 c 0,2.2 -1.8,4.1 -4.1,4.1 h -19 c -2.2,0 -4.1,-1.8 -4.1,-4.1 v -9.1 c 0,-2.3 1.8,-4.1 4.1,-4.1 z"
   id="path366"
   inkscape:connector-curvature="0"
   style="fill:#f13516" />
<path
   d="m 124.00378,267.30419 c 2.2,0.1 4.1,1.9 4.1,4.2 l -0.1,8.7 c 0,2.2 -1.8,4.1 -4.1,4.1 h -19 c -2.3,0 -4.1,-1.8 -4.1,-4.1 l 0.1,-9.4 c 0,-2.3 1.9,-4.1 4.1,-4 z"
   id="path368"
   inkscape:connector-curvature="0"
   style="fill:#f13516" />
<path
   d="m 126.00378,245.90419 c 2.2,0.4 3.8,2.5 3.5,4.7 l -0.9,7.5 c -0.2,2.2 -2.2,4 -4.5,3.8 l -19,-1.1 c -2.2,-0.1 -3.9,-2.1 -3.7,-4.3 l 1.2,-10.5 c 0.3,-2.2 2.4,-3.7 4.6,-3.4 z"
   id="path370"
   inkscape:connector-curvature="0"
   style="fill:#f13516" />
<path
   d="m 131.20378,225.00419 c 2.1,0.7 3.3,3.1 2.7,5.2 l -1.9,7.3 c -0.5,2.2 -2.7,3.6 -4.9,3.1 l -18.6,-3.9 c -2.2,-0.5 -3.6,-2.6 -3.1,-4.8 l 2.7,-10.2 c 0.7,-2.2 2.9,-3.3 5.1,-2.6 z"
   id="path372"
   inkscape:connector-curvature="0"
   style="fill:#f13516" />
<path
   d="m 139.50378,205.00419 c 2,1 2.9,3.5 1.9,5.6 l -3,6.9 c -0.9,2.1 -3.3,3.1 -5.4,2.4 l -17.8,-6.7 c -2.1,-0.8 -3.1,-3.1 -2.3,-5.2 l 4.2,-9.7 c 1,-2 3.4,-2.9 5.4,-1.9 z"
   id="path374"
   inkscape:connector-curvature="0"
   style="fill:#f13516" />
<path
   d="m 86.403777,195.50419 c -2.1,-0.9 -3,-3.2 -2.1,-5.3 l 3.9,-8.8 c 1,-2 3.5,-2.8 5.5,-1.8 l 16.900003,8.8 c 2,1 2.8,3.5 1.8,5.5 l -2.9,6.6 c -0.9,2.1 -3.4,3 -5.5,2.2 z"
   id="path376"
   inkscape:connector-curvature="0"
   style="fill:#f13516" />
<path
   d="m 78.803777,217.60419 c -2.2,-0.6 -3.4,-2.9 -2.7,-5 l 2.9,-9.3 c 0.8,-2.1 3.1,-3.2 5.2,-2.4 l 17.800003,6.7 c 2.1,0.8 3.2,3.2 2.4,5.3 l -2.1,6.9 c -0.7,2.1 -3.000003,3.4 -5.200003,2.8 z"
   id="path378"
   inkscape:connector-curvature="0"
   style="fill:#f13516" />
<path
   d="m 73.903777,240.30419 c -2.2,-0.3 -3.7,-2.4 -3.3,-4.6 l 1.7,-9.5 c 0.5,-2.2 2.7,-3.5 4.9,-3 l 18.5,4.6 c 2.2,0.5 3.6,2.8 3.1,5 l -1.3,7.1 c -0.4,2.2 -2.6,3.7 -4.8,3.4 z"
   id="path380"
   inkscape:connector-curvature="0"
   style="fill:#f13516" />
<path
   d="m 71.703777,263.50419 c -2.2,-0.1 -4,-2 -3.8,-4.2 l 0.6,-9.6 c 0.2,-2.2 2.3,-3.8 4.5,-3.6 l 18.9,2.4 c 2.2,0.3 3.9,2.3 3.6,4.6 l -0.4,7.2 c -0.2,2.2 -2.1,4 -4.4,3.9 z"
   id="path382"
   inkscape:connector-curvature="0"
   style="fill:#f13516" />
<path
   d="m 71.503777,286.00419 c -2.3,0 -4.1,-1.8 -4.1,-4.1 l 0.1,-8.5 c 0,-2.3 1.8,-4.1 4.1,-4.1 l 19,0.1 c 2.2,0 4.1,1.9 4.1,4.1 v 8.4 c 0,2.2 -1.8,4.1 -4.1,4.1 z"
   id="path384"
   inkscape:connector-curvature="0"
   style="fill:#f13516" />
<path
   d="m 71.503777,308.20419 c -2.3,0 -4.1,-1.8 -4.1,-4.1 v -8.4 c 0,-2.2 1.8,-4.1 4.1,-4.1 h 19 c 2.2,0 4.1,1.8 4.1,4.1 v 8.4 c 0,2.2 -1.8,4.1 -4.1,4.1 z"
   id="path386"
   inkscape:connector-curvature="0"
   style="fill:#f13516" />
<path
   d="m 144.80378,231.70419 c -2.1,-0.7 -3.3,-3 -2.5,-5.1 l 4.3,-11.1 c 0.9,-2.1 3.3,-2.9 5.3,-1.9 l 17.1,8.3 c 2,1 2.9,3.5 2,5.5 l -2.8,7.3 c -0.8,2.1 -3.2,3.3 -5.3,2.6 z"
   id="path388"
   inkscape:connector-curvature="0"
   style="fill:#f13516" />
<path
   d="m 139.50378,257.10419 c -2.2,-0.2 -3.8,-2.2 -3.5,-4.5 l 2.1,-11.7 c 0.5,-2.2 2.7,-3.5 4.8,-3 l 18.4,4.8 c 2.2,0.6 3.6,2.8 3.1,5 l -1.4,7.7 c -0.3,2.2 -2.4,3.9 -4.6,3.6 z"
   id="path390"
   inkscape:connector-curvature="0"
   style="fill:#f13516" />
<path
   d="m 138.80378,282.20419 c -2.2,0 -4.1,-1.8 -4.1,-4.1 l 0.2,-10.6 c 0,-2.2 1.9,-4 4.2,-3.9 l 19,1 c 2.2,0.1 4.1,2.1 4,4.3 l -0.1,9.1 c 0,2.2 -1.8,4.1 -4.1,4.1 z"
   id="path392"
   inkscape:connector-curvature="0"
   style="fill:#f13516" />
<path
   d="m 138.80378,306.20419 c -2.3,0 -4.1,-1.8 -4.1,-4.1 v -9.9 c 0,-2.2 1.8,-4.1 4.1,-4.1 h 19 c 2.2,0 4.1,1.8 4.1,4.1 v 9.9 c 0,2.2 -1.8,4.1 -4.1,4.1 z"
   id="path394"
   inkscape:connector-curvature="0"
   style="fill:#f13516" />
<path
   d="m 57.103777,314.90419 c 2.2,0 4.1,1.8 4.1,4.1 v 8 c 0,2.2 -1.8,4.1 -4.1,4.1 h -19 c -2.3,0 -4.1,-1.8 -4.1,-4.1 v -8 c 0,-2.2 1.8,-4.1 4.1,-4.1 z"
   id="path396"
   inkscape:connector-curvature="0"
   style="fill:#f13516" />
<path
   d="m 123.90378,312.30419 c 2.3,0 4.1,1.8 4.1,4.1 v 9.1 c 0,2.2 -1.8,4.1 -4.1,4.1 h -19 c -2.2,0 -4.1,-1.8 -4.1,-4.1 v -9.1 c 0,-2.3 1.8,-4.1 4.1,-4.1 z"
   id="path398"
   inkscape:connector-curvature="0"
   style="fill:#f13516" />
<path
   d="m 74.203777,330.40419 c -2.3,0 -4.1,-1.8 -4.1,-4.1 v -8.4 c 0,-2.2 1.8,-4.1 4.1,-4.1 h 19 c 2.2,0 4.1,1.8 4.1,4.1 v 8.4 c 0,2.2 -1.8,4.1 -4.1,4.1 z"
   id="path400"
   inkscape:connector-curvature="0"
   style="fill:#f13516" />
<path
   d="m 138.80378,328.50419 c -2.3,0 -4.1,-1.8 -4.1,-4.1 v -9.9 c 0,-2.2 1.8,-4.1 4.1,-4.1 h 19 c 2.2,0 4.1,1.8 4.1,4.1 v 9.9 c 0,2.2 -1.8,4.1 -4.1,4.1 z"
   id="path402"
   inkscape:connector-curvature="0"
   style="fill:#f13516" />
<path
   d="m 4.003777,267.20419 c -2.2,0 -4.1,-1.9 -4,-4.1 l 0.5,-8.5 c 0.1,-2.2 2,-4 4.3,-3.8 l 19,1.4 c 2.2,0.2 4,2.1 3.9,4.4 l -0.5,6.8 c 0,2.2 -1.9,4.1 -4.1,4 z"
   id="path404"
   inkscape:connector-curvature="0"
   style="fill:#f13516" />
</svg>