<?xml version="1.0" encoding="utf-8"?>
<!-- Generator: Adobe Illustrator 23.0.1, SVG Export Plug-In . SVG Version: 6.00 Build 0)  -->
<svg version="1.0" id="Layer_1" xmlns="http://www.w3.org/2000/svg" xmlns:xlink="http://www.w3.org/1999/xlink" x="0px" y="0px"
	 viewBox="0 0 550 488" enable-background="new 0 0 550 488" xml:space="preserve">
<g>
	<rect y="0" fill="none" width="550" height="488"/>
</g>
<path fill="#004371" d="M299.5,18.6c0.2-2.2-1.5-4.2-3.7-4.4l-7.3-0.5c-2.3-0.1-4.2,1.6-4.2,3.8l-0.7,19.1c-0.1,2.3,1.7,4.2,4,4.4
	l5.7,0.4c2.3,0.1,4.3-1.6,4.5-3.8L299.5,18.6z"/>
<path fill="#004371" d="M319.7,21.3c0.4-2.2-1.1-4.3-3.4-4.6l-7.2-1.1c-2.2-0.3-4.3,1.4-4.5,3.6l-2.1,19c-0.2,2.2,1.4,4.3,3.6,4.6
	l5.7,0.9c2.2,0.3,4.4-1.3,4.8-3.5L319.7,21.3z"/>
<path fill="#004371" d="M339.7,25.5c0.5-2.2-0.8-4.4-3-4.9l-7.1-1.6c-2.2-0.4-4.4,1.1-4.8,3.3L321.2,41c-0.4,2.2,1.1,4.4,3.3,4.8
	l5.6,1.3c2.2,0.5,4.5-0.9,5-3.1L339.7,25.5z"/>
<path fill="#004371" d="M359.2,31.2c0.7-2.1-0.4-4.5-2.6-5.2l-7-2c-2.2-0.6-4.4,0.6-5,2.8l-5,18.4c-0.6,2.2,0.7,4.5,2.9,5.1l5.5,1.6
	c2.1,0.7,4.5-0.4,5.2-2.6L359.2,31.2z"/>
<path fill="#004371" d="M378.3,38.4c0.9-2.1-0.1-4.5-2.2-5.3l-6.8-2.6c-2.1-0.8-4.4,0.2-5.2,2.4l-6.4,18c-0.8,2.1,0.3,4.5,2.4,5.4
	l5.4,2c2.1,0.9,4.5-0.1,5.4-2.2L378.3,38.4z"/>
<path fill="#004371" d="M414.5,57.1c1.2-1.9,0.6-4.4-1.4-5.6l-6.3-3.7c-2-1.1-4.5-0.3-5.6,1.7l-9.1,16.8c-1.1,2-0.3,4.5,1.7,5.6
	l4.9,3c1.9,1.2,4.5,0.5,5.7-1.4L414.5,57.1z"/>
<path fill="#004371" d="M431.4,68.5c1.3-1.8,0.9-4.4-0.9-5.7l-6.1-4.1c-1.9-1.3-4.4-0.7-5.6,1.1l-10.4,16c-1.2,1.9-0.7,4.5,1.2,5.8
	l4.8,3.2c1.8,1.3,4.4,0.9,5.7-0.9L431.4,68.5z"/>
<path fill="#004371" d="M447.4,81.1c1.5-1.7,1.2-4.3-0.5-5.7l-5.7-4.6c-1.8-1.4-4.3-1.1-5.7,0.7L424,86.7c-1.4,1.8-1,4.4,0.7,5.9
	l4.5,3.6c1.8,1.4,4.4,1.2,5.9-0.5L447.4,81.1z"/>
<path fill="#004371" d="M462.4,95c1.6-1.6,1.6-4.2-0.1-5.7l-5.3-5.1c-1.7-1.5-4.3-1.3-5.8,0.3l-12.7,14.3c-1.5,1.7-1.3,4.3,0.3,5.8
	l4.1,4c1.6,1.5,4.3,1.5,5.9-0.1L462.4,95z"/>
<path fill="#004371" d="M476.3,109.9c1.7-1.5,1.9-4.1,0.4-5.8l-4.9-5.4c-1.6-1.6-4.2-1.7-5.8-0.1l-13.7,13.3
	c-1.6,1.6-1.7,4.2-0.1,5.8l3.9,4.3c1.5,1.7,4.1,1.9,5.8,0.4L476.3,109.9z"/>
<path fill="#004371" d="M489,125.9c1.8-1.3,2.2-3.9,0.9-5.8l-4.6-5.7c-1.4-1.8-3.9-2.1-5.7-0.6L464.9,126c-1.7,1.4-2,4.1-0.6,5.9
	l3.7,4.4c1.3,1.8,3.9,2.2,5.7,0.9L489,125.9z"/>
<path fill="#004371" d="M500.5,142.7c1.9-1.2,2.5-3.7,1.2-5.6l-4.1-6.1c-1.3-1.9-3.8-2.4-5.6-1l-15.6,11c-1.8,1.3-2.3,3.9-1.1,5.8
	l3.2,4.8c1.3,1.9,3.8,2.4,5.8,1.2L500.5,142.7z"/>
<path fill="#004371" d="M446.9,157.9c-1.8,1.3-2.3,3.9-1,5.8l3.4,4.8c1.2,1.9,3.8,2.4,5.7,1.2l16.2-10.2c1.9-1.2,2.5-3.7,1.2-5.6
	l-4.4-6.3c-1.3-1.9-3.8-2.3-5.6-1L446.9,157.9z"/>
<path fill="#004371" d="M434.9,143c-1.7,1.5-1.9,4.1-0.4,5.8l3.7,4.6c1.4,1.8,4,2.1,5.8,0.7l15.2-11.6c1.8-1.4,2.1-3.9,0.7-5.7
	l-4.9-6c-1.5-1.7-4.1-1.9-5.8-0.4L434.9,143z"/>
<path fill="#004371" d="M421.6,129.1c-1.6,1.6-1.5,4.3,0,5.9l4.2,4.1c1.6,1.6,4.2,1.7,5.9,0.2l14.1-12.9c1.7-1.5,1.8-4.1,0.2-5.8
	l-5.5-5.4c-1.6-1.6-4.2-1.6-5.7,0.1L421.6,129.1z"/>
<path fill="#004371" d="M407.1,116.6c-1.4,1.8-1.1,4.4,0.7,5.8l4.4,3.9c1.7,1.5,4.3,1.3,5.9-0.3l12.9-14.1c1.5-1.7,1.4-4.3-0.3-5.7
	l-5.8-5c-1.8-1.4-4.4-1.1-5.8,0.6L407.1,116.6z"/>
<path fill="#004371" d="M391.6,105.3c-1.2,1.9-0.7,4.5,1.1,5.8l4.9,3.3c1.8,1.3,4.4,1,5.8-0.8L415,98.4c1.4-1.8,1-4.4-0.8-5.7
	l-6.4-4.4c-1.8-1.3-4.4-0.8-5.6,1.1L391.6,105.3z"/>
<path fill="#004371" d="M375.2,95.5c-1.1,2-0.3,4.5,1.7,5.6l5,3c1.9,1.2,4.5,0.5,5.7-1.4l10.1-16.2c1.2-1.9,0.6-4.4-1.3-5.6
	l-6.6-3.9c-2-1.1-4.5-0.3-5.5,1.7L375.2,95.5z"/>
<path fill="#004371" d="M357.9,87.3c-0.9,2.1,0.1,4.6,2.1,5.5l5.4,2.4c2,1,4.5,0.2,5.5-1.9l8.6-17c1-2,0.2-4.5-1.8-5.5l-7.1-3.2
	c-2.1-1-4.5,0-5.3,2.1L357.9,87.3z"/>
<path fill="#004371" d="M339.9,80.6c-0.7,2.2,0.5,4.5,2.6,5.2l5.5,2c2.1,0.8,4.5-0.3,5.4-2.4l7.1-17.7c0.8-2.1-0.2-4.5-2.3-5.3
	l-7.3-2.7c-2.1-0.7-4.5,0.5-5.2,2.6L339.9,80.6z"/>
<path fill="#004371" d="M321.5,75.6c-0.5,2.2,0.9,4.5,3.1,5l5.7,1.4c2.2,0.6,4.5-0.7,5.1-2.9l5.4-18.3c0.6-2.2-0.6-4.4-2.8-5
	l-7.5-1.9c-2.2-0.6-4.4,0.8-4.9,3L321.5,75.6z"/>
<path fill="#004371" d="M302.6,72.3c-0.3,2.2,1.3,4.3,3.5,4.6l5.8,1c2.2,0.4,4.4-1.1,4.8-3.3l3.7-18.7c0.4-2.2-1-4.4-3.2-4.8
	l-7.6-1.3c-2.2-0.3-4.3,1.3-4.6,3.5L302.6,72.3z"/>
<path fill="#004371" d="M283.5,70.6c-0.1,2.3,1.7,4.2,3.9,4.4l5.9,0.5c2.3,0.2,4.3-1.5,4.5-3.8l2-19c0.2-2.2-1.4-4.2-3.7-4.4
	l-7.7-0.6c-2.3-0.1-4.2,1.6-4.3,3.8L283.5,70.6z"/>
<path fill="#004371" d="M300.5,86.6c0.3-2.2-1.3-4.2-3.6-4.4l-8.3-0.9c-2.3-0.1-4.2,1.6-4.3,3.9l-0.9,19.1c-0.1,2.3,1.7,4.2,3.9,4.3
	l6.1,0.7c2.2,0.2,4.3-1.5,4.6-3.7L300.5,86.6z"/>
<path fill="#004371" d="M321.8,90.5c0.5-2.2-0.8-4.4-3-4.9l-8.2-1.5c-2.2-0.4-4.3,1.1-4.7,3.3l-3,18.9c-0.3,2.2,1.2,4.4,3.4,4.8
	l6,1.1c2.2,0.5,4.4-0.9,5-3.1L321.8,90.5z"/>
<path fill="#004371" d="M342.5,96.7c0.8-2.1-0.3-4.5-2.5-5.2l-8-2.4c-2.2-0.7-4.4,0.6-5,2.8l-5,18.4c-0.6,2.2,0.7,4.5,2.9,5.2
	l5.9,1.7c2.1,0.7,4.5-0.4,5.3-2.5L342.5,96.7z"/>
<path fill="#004371" d="M362.3,105.2c1-2,0.1-4.5-1.9-5.4l-7.6-3.3c-2.1-0.9-4.5,0.1-5.3,2.2l-7,17.8c-0.8,2.1,0.2,4.5,2.3,5.4
	l5.6,2.4c2,1,4.5,0.1,5.5-1.9L362.3,105.2z"/>
<path fill="#004371" d="M381.2,115.8c1.2-1.9,0.6-4.4-1.3-5.6l-7.2-4.2c-2-1.1-4.5-0.3-5.5,1.7l-8.9,16.9c-1.1,2-0.3,4.5,1.7,5.6
	l5.2,3.1c1.9,1.2,4.5,0.6,5.7-1.3L381.2,115.8z"/>
<path fill="#004371" d="M398.7,128.4c1.4-1.8,1.1-4.3-0.7-5.7l-6.6-5.1c-1.9-1.3-4.4-0.8-5.7,1.1L375,134.5
	c-1.3,1.9-0.8,4.5,1.1,5.7l4.8,3.7c1.8,1.4,4.4,1,5.9-0.7L398.7,128.4z"/>
<path fill="#004371" d="M414.9,142.8c1.6-1.6,1.6-4.2-0.1-5.7l-6.1-5.7c-1.7-1.5-4.3-1.3-5.7,0.4l-12.3,14.6
	c-1.5,1.7-1.3,4.3,0.4,5.8l4.4,4.2c1.6,1.5,4.3,1.5,5.9-0.1L414.9,142.8z"/>
<path fill="#004371" d="M429.3,158.8c1.8-1.4,2-4,0.6-5.7l-5.5-6.2c-1.5-1.7-4.1-1.8-5.7-0.2l-13.8,13.2c-1.6,1.6-1.7,4.2-0.2,5.9
	l4.1,4.6c1.4,1.7,4.1,2,5.8,0.6L429.3,158.8z"/>
<path fill="#004371" d="M442,176.3c1.9-1.2,2.4-3.8,1.2-5.6l-4.9-6.7c-1.3-1.8-3.8-2.2-5.6-0.9l-15.2,11.6c-1.8,1.4-2.2,4-0.9,5.8
	l3.7,4.9c1.2,1.9,3.8,2.4,5.7,1.2L442,176.3z"/>
<path fill="#004371" d="M388,191.2c-1.8,1.4-2.1,4.1-0.7,5.9l3.9,5.2c1.3,1.9,3.9,2.4,5.8,1.1l16-10.5c1.9-1.2,2.4-3.8,1.1-5.6
	l-5.5-7.5c-1.4-1.8-3.9-2.1-5.7-0.7L388,191.2z"/>
<path fill="#004371" d="M374.2,176.5c-1.5,1.7-1.5,4.3,0.1,5.9l4.5,4.7c1.5,1.7,4.2,1.8,5.9,0.3l14.4-12.6c1.7-1.5,1.8-4.1,0.3-5.7
	l-6.4-6.7c-1.6-1.6-4.2-1.5-5.7,0.1L374.2,176.5z"/>
<path fill="#004371" d="M358.6,163.8c-1.3,1.8-0.9,4.5,0.9,5.8l5.1,4c1.7,1.4,4.4,1.2,5.9-0.5l12.5-14.4c1.5-1.7,1.3-4.3-0.5-5.7
	l-7.4-5.7c-1.8-1.3-4.4-0.9-5.7,0.9L358.6,163.8z"/>
<path fill="#004371" d="M341.3,153.4c-1,2-0.3,4.5,1.7,5.6l5.6,3.3c1.9,1.2,4.5,0.6,5.7-1.3l10.4-16c1.2-1.9,0.7-4.4-1.3-5.6l-8-4.7
	c-2-1.1-4.4-0.3-5.5,1.7L341.3,153.4z"/>
<path fill="#004371" d="M322.8,145.5c-0.7,2.1,0.4,4.5,2.5,5.3l6,2.5c2.1,0.9,4.5,0,5.5-2.1l8.1-17.3c1-2,0.1-4.5-2-5.4l-8.6-3.5
	c-2.1-0.8-4.5,0.3-5.2,2.5L322.8,145.5z"/>
<path fill="#004371" d="M303.4,140.2c-0.4,2.2,1,4.4,3.2,5l6.3,1.5c2.2,0.6,4.5-0.7,5.2-2.8l5.6-18.3c0.7-2.2-0.6-4.4-2.7-5
	l-9.1-2.2c-2.2-0.5-4.4,0.9-4.8,3.1L303.4,140.2z"/>
<path fill="#004371" d="M283.4,137.6c-0.1,2.3,1.6,4.2,3.9,4.4l6.4,0.8c2.2,0.3,4.4-1.3,4.7-3.5l3-18.8c0.4-2.2-1.2-4.3-3.4-4.6
	l-9.3-1.1c-2.2-0.2-4.2,1.5-4.3,3.8L283.4,137.6z"/>
<path fill="#004371" d="M303,155.5c0.5-2.2-0.9-4.3-3.2-4.7l-10.9-1.7c-2.2-0.2-4.2,1.4-4.4,3.7l-1.4,19c-0.2,2.3,1.5,4.3,3.8,4.5
	l7,1.1c2.2,0.4,4.4-1.1,4.9-3.3L303,155.5z"/>
<path fill="#004371" d="M326.6,163.1c0.9-2.1-0.1-4.4-2.2-5.3l-10.4-3.6c-2.2-0.7-4.4,0.6-5,2.8l-5,18.4c-0.6,2.2,0.7,4.5,2.9,5.2
	l6.7,2.3c2.1,0.8,4.6-0.2,5.4-2.3L326.6,163.1z"/>
<path fill="#004371" d="M348.4,175c1.3-1.9,0.7-4.4-1.2-5.6l-9.5-5.5c-2-1.1-4.4-0.3-5.4,1.8l-8.4,17.2c-1,2-0.2,4.6,1.8,5.6
	l6.2,3.5c1.9,1.2,4.5,0.7,5.8-1.2L348.4,175z"/>
<path fill="#004371" d="M367.5,190.8c1.6-1.6,1.5-4.2-0.1-5.7l-8.2-7.3c-1.8-1.4-4.3-1.1-5.7,0.7L342,193.9c-1.4,1.8-1,4.4,0.7,5.8
	l5.3,4.7c1.7,1.5,4.3,1.5,5.9-0.1L367.5,190.8z"/>
<path fill="#004371" d="M383.3,209.9c1.9-1.3,2.3-3.8,1-5.6l-6.9-8.6c-1.4-1.7-4-1.9-5.7-0.4l-14.1,12.8c-1.7,1.5-1.9,4.2-0.4,5.9
	l4.5,5.5c1.3,1.8,3.9,2.3,5.8,1L383.3,209.9z"/>
<path fill="#004371" d="M404.6,371.9c2.3,0,4.1-1.8,4.1-4.1l0-7.2c0-2.3-1.8-4.1-4.1-4.1l-19,0c-2.3,0-4.1,1.8-4.1,4.1l0,7.2
	c0,2.3,1.8,4.1,4.1,4.1L404.6,371.9z"/>
<path fill="#004371" d="M486.6,458.9c-2.2,0-4.1,1.8-4.1,4.1l0,7.2c0,2.3,1.8,4.1,4.1,4.1l19,0c2.3,0,4.1-1.8,4.1-4.1l0-7.2
	c0-2.2-1.8-4.1-4.1-4.1L486.6,458.9z"/>
<path fill="#004371" d="M486.6,438.4c-2.2,0-4.1,1.8-4.1,4.1l0,7.2c0,2.3,1.8,4.1,4.1,4.1l19,0c2.3,0,4.1-1.8,4.1-4.1l0-7.2
	c0-2.2-1.8-4.1-4.1-4.1L486.6,438.4z"/>
<path fill="#004371" d="M486.6,418c-2.2,0-4.1,1.8-4.1,4.1l0,7.2c0,2.3,1.8,4.1,4.1,4.1l19,0c2.3,0,4.1-1.8,4.1-4.1l0-7.2
	c0-2.2-1.8-4.1-4.1-4.1L486.6,418z"/>
<path fill="#004371" d="M486.5,397.5c-2.2,0-4.1,1.8-4.1,4.1l0,7.2c0,2.3,1.8,4.1,4.1,4.1l19,0c2.3,0,4.1-1.8,4.1-4.1l0-7.2
	c0-2.2-1.8-4.1-4.1-4.1L486.5,397.5z"/>
<path fill="#004371" d="M486.5,377c-2.2,0-4.1,1.8-4.1,4.1l0,7.2c0,2.3,1.8,4.1,4.1,4.1l19,0c2.3,0,4.1-1.8,4.1-4.1l0-7.2
	c0-2.2-1.8-4.1-4.1-4.1L486.5,377z"/>
<path fill="#004371" d="M486.5,356.6c-2.2,0-4.1,1.8-4.1,4.1l0,7.2c0,2.3,1.8,4.1,4.1,4.1l19,0c2.3,0,4.1-1.8,4.1-4.1l0-7.2
	c0-2.2-1.8-4.1-4.1-4.1L486.5,356.6z"/>
<path fill="#004371" d="M419.4,458.9c-2.2,0-4.1,1.8-4.1,4.1l0,7.2c0,2.3,1.8,4.1,4.1,4.1l19,0c2.3,0,4.1-1.8,4.1-4.1l0-7.2
	c0-2.2-1.8-4.1-4.1-4.1L419.4,458.9z"/>
<path fill="#004371" d="M419.4,438.4c-2.2,0-4.1,1.8-4.1,4.1l0,7.2c0,2.3,1.8,4.1,4.1,4.1l19,0c2.3,0,4.1-1.8,4.1-4.1l0-7.2
	c0-2.2-1.8-4.1-4.1-4.1L419.4,438.4z"/>
<path fill="#004371" d="M385.6,458.9c-2.2,0-4.1,1.8-4.1,4.1l0,7.2c0,2.3,1.8,4.1,4.1,4.1l19,0c2.3,0,4.1-1.8,4.1-4.1l0-7.2
	c0-2.2-1.8-4.1-4.1-4.1L385.6,458.9z"/>
<path fill="#004371" d="M385.6,438.4c-2.2,0-4.1,1.8-4.1,4.1l0,7.2c0,2.3,1.8,4.1,4.1,4.1l19,0c2.3,0,4.1-1.8,4.1-4.1l0-7.2
	c0-2.2-1.8-4.1-4.1-4.1L385.6,438.4z"/>
<path fill="#004371" d="M419.4,418c-2.2,0-4.1,1.8-4.1,4.1l0,7.2c0,2.3,1.8,4.1,4.1,4.1l19,0c2.3,0,4.1-1.8,4.1-4.1l0-7.2
	c0-2.2-1.8-4.1-4.1-4.1L419.4,418z"/>
<path fill="#004371" d="M419.5,397.5c-2.2,0-4.1,1.8-4.1,4.1l0,7.2c0,2.3,1.8,4.1,4.1,4.1l19,0c2.3,0,4.1-1.8,4.1-4.1l0-7.2
	c0-2.2-1.8-4.1-4.1-4.1L419.5,397.5z"/>
<path fill="#004371" d="M419.5,377c-2.2,0-4.1,1.8-4.1,4.1l0,7.2c0,2.3,1.8,4.1,4.1,4.1l19,0c2.3,0,4.1-1.8,4.1-4.1l0-7.2
	c0-2.2-1.8-4.1-4.1-4.1L419.5,377z"/>
<path fill="#004371" d="M419.5,356.6c-2.2,0-4.1,1.8-4.1,4.1l0,7.2c0,2.3,1.8,4.1,4.1,4.1l19,0c2.3,0,4.1-1.8,4.1-4.1l0-7.2
	c0-2.2-1.8-4.1-4.1-4.1L419.5,356.6z"/>
<path fill="#004371" d="M472,371.9c2.2,0,4.1-1.8,4.1-4.1l0-7.2c0-2.3-1.8-4.1-4.1-4.1l-19,0c-2.3,0-4.1,1.8-4.1,4.1l0,7.2
	c0,2.2,1.8,4.1,4.1,4.1L472,371.9z"/>
<path fill="#004371" d="M472,392.4c2.2,0,4.1-1.8,4.1-4.1l0-7.2c0-2.3-1.8-4.1-4.1-4.1l-19,0c-2.3,0-4.1,1.8-4.1,4.1l0,7.2
	c0,2.2,1.8,4.1,4.1,4.1L472,392.4z"/>
<path fill="#004371" d="M472,412.8c2.2,0,4.1-1.8,4.1-4.1l0-7.2c0-2.3-1.8-4.1-4.1-4.1l-19,0c-2.3,0-4.1,1.8-4.1,4.1l0,7.2
	c0,2.2,1.8,4.1,4.1,4.1L472,412.8z"/>
<path fill="#004371" d="M472,433.3c2.2,0,4.1-1.8,4.1-4.1l0-7.2c0-2.3-1.8-4.1-4.1-4.1l-19,0c-2.3,0-4.1,1.8-4.1,4.1l0,7.2
	c0,2.2,1.8,4.1,4.1,4.1L472,433.3z"/>
<path fill="#004371" d="M472,453.8c2.2,0,4.1-1.8,4.1-4.1l0-7.2c0-2.3-1.8-4.1-4.1-4.1l-19,0c-2.3,0-4.1,1.8-4.1,4.1l0,7.2
	c0,2.2,1.8,4.1,4.1,4.1L472,453.8z"/>
<path fill="#004371" d="M472,474.2c2.2,0,4.1-1.8,4.1-4.1l0-7.2c0-2.3-1.8-4.1-4.1-4.1l-19,0c-2.3,0-4.1,1.8-4.1,4.1l0,7.2
	c0,2.2,1.8,4.1,4.1,4.1L472,474.2z"/>
<path fill="#004371" d="M404.6,392.4c2.2,0,4.1-1.8,4.1-4.1l0-7.2c0-2.3-1.8-4.1-4.1-4.1l-19,0c-2.3,0-4.1,1.8-4.1,4.1l0,7.2
	c0,2.2,1.8,4.1,4.1,4.1L404.6,392.4z"/>
<path fill="#004371" d="M404.6,412.9c2.2,0,4.1-1.8,4.1-4.1l0-7.2c0-2.3-1.8-4.1-4.1-4.1l-19,0c-2.3,0-4.1,1.8-4.1,4.1l0,7.2
	c0,2.2,1.8,4.1,4.1,4.1L404.6,412.9z"/>
<path fill="#004371" d="M404.6,433.3c2.2,0,4.1-1.8,4.1-4.1l0-7.2c0-2.3-1.8-4.1-4.1-4.1l-19,0c-2.3,0-4.1,1.8-4.1,4.1l0,7.2
	c0,2.2,1.8,4.1,4.1,4.1L404.6,433.3z"/>
<path fill="#004371" d="M486.4,306.3c-2.2,0-4.1,1.8-4.1,4.1l0,8c0,2.2,1.8,4.1,4.1,4.1l19,0c2.3,0,4.1-1.8,4.1-4.1l0-8
	c0-2.2-1.8-4.1-4.1-4.1L486.4,306.3z"/>
<path fill="#004371" d="M486.3,284.7c-2.2,0-4.1,1.8-4.1,4.1l0,8c0,2.2,1.8,4.1,4.1,4.1l19,0c2.2,0,4.1-1.8,4.1-4.1l0-8
	c0-2.2-1.8-4.1-4.1-4.1L486.3,284.7z"/>
<path fill="#004371" d="M485.3,264.1c-2.2,0.2-3.9,2.2-3.7,4.5l0.5,7c0.1,2.2,2,4,4.2,4l19-0.4c2.2-0.1,4-1.9,4-4.2l-0.6-9
	c-0.2-2.2-2.2-3.9-4.4-3.7L485.3,264.1z"/>
<path fill="#004371" d="M482.4,243.7c-2.2,0.4-3.7,2.6-3.3,4.8l1.1,6.9c0.3,2.2,2.4,3.8,4.6,3.6l18.9-2.3c2.2-0.3,3.8-2.3,3.5-4.5
	l-1.4-8.9c-0.4-2.2-2.5-3.7-4.7-3.3L482.4,243.7z"/>
<path fill="#004371" d="M477.4,223.6c-2.2,0.6-3.4,2.9-2.8,5.1l1.7,6.8c0.5,2.2,2.8,3.6,5,3.1l18.6-4.1c2.2-0.5,3.6-2.7,3-4.9
	l-2.2-8.7c-0.6-2.2-2.9-3.4-5.1-2.8L477.4,223.6z"/>
<path fill="#004371" d="M470.6,204.2c-2.1,0.9-3.1,3.3-2.4,5.4l2.6,6.5c0.7,2.1,3,3.3,5.2,2.6l18.1-5.9c2.1-0.7,3.3-3,2.6-5.2
	l-3.2-8.4c-0.8-2.1-3.1-3.1-5.2-2.3L470.6,204.2z"/>
<path fill="#004371" d="M461.9,185.5c-2,1-2.8,3.5-1.8,5.6l2.9,6.4c1,2,3.5,2.9,5.5,2l17.4-7.6c2.1-0.9,3-3.3,2-5.3l-3.8-8.2
	c-1-2-3.5-2.8-5.5-1.7L461.9,185.5z"/>
<path fill="#004371" d="M515.2,174.4c2-0.9,2.9-3.3,1.9-5.4l-3.8-7.6c-1-2-3.4-2.8-5.4-1.7l-16.8,9c-2,1.1-2.8,3.6-1.8,5.6l3,6.1
	c1,2,3.5,2.9,5.5,2L515.2,174.4z"/>
<path fill="#004371" d="M523.4,194.7c2.1-0.8,3.2-3.1,2.4-5.2l-3.1-7.9c-0.9-2.1-3.3-3-5.4-2.1l-17.5,7.6c-2.1,0.9-3,3.3-2.1,5.4
	l2.4,6.3c0.8,2.1,3.2,3.2,5.3,2.4L523.4,194.7z"/>
<path fill="#004371" d="M530,215.6c2.2-0.6,3.5-2.8,2.9-5l-2.6-8.1c-0.6-2.2-2.9-3.3-5.1-2.6l-18,6.1c-2.1,0.7-3.4,3.1-2.7,5.2
	l2.1,6.5c0.6,2.2,2.8,3.5,5,2.9L530,215.6z"/>
<path fill="#004371" d="M534.8,237c2.2-0.4,3.6-2.5,3.2-4.7l-1.7-8.3c-0.5-2.2-2.7-3.5-4.9-3l-18.5,4.6c-2.2,0.5-3.6,2.8-3,5
	l1.3,6.7c0.5,2.2,2.7,3.7,4.9,3.3L534.8,237z"/>
<path fill="#004371" d="M537.8,258.7c2.2-0.2,3.9-2.2,3.6-4.5l-1.1-8.4c-0.3-2.2-2.4-3.8-4.7-3.4l-18.8,3c-2.2,0.4-3.8,2.5-3.4,4.7
	l0.8,6.8c0.2,2.2,2.3,3.9,4.5,3.7L537.8,258.7z"/>
<path fill="#004371" d="M539,280.5c2.2,0,4.1-1.9,4-4.1l-0.5-8.5c-0.1-2.2-2-4-4.3-3.8l-19,1.4c-2.2,0.2-4,2.1-3.9,4.4l0.5,6.8
	c0,2.2,1.9,4.1,4.1,4L539,280.5z"/>
<path fill="#004371" d="M419.6,303.8c-2.3,0-4.1,1.8-4.1,4.1l0,9.1c0,2.2,1.8,4.1,4.1,4.1l19,0c2.2,0,4.1-1.8,4.1-4.1l0-9.1
	c0-2.3-1.8-4.1-4.1-4.1L419.6,303.8z"/>
<path fill="#004371" d="M419.5,281c-2.2,0.1-4.1,1.9-4.1,4.2l0.1,8.7c0,2.2,1.8,4.1,4.1,4.1l19,0c2.3,0,4.1-1.8,4.1-4.1l-0.1-9.4
	c0-2.3-1.9-4.1-4.1-4L419.5,281z"/>
<path fill="#004371" d="M417.4,259.6c-2.2,0.4-3.8,2.5-3.5,4.7l0.9,7.5c0.2,2.2,2.2,4,4.5,3.8l19-1.1c2.2-0.1,3.9-2.1,3.7-4.3
	l-1.2-10.5c-0.3-2.2-2.4-3.7-4.6-3.4L417.4,259.6z"/>
<path fill="#004371" d="M412.2,238.7c-2.1,0.7-3.3,3.1-2.7,5.2l1.9,7.3c0.5,2.2,2.7,3.6,4.9,3.1l18.6-3.9c2.2-0.5,3.6-2.6,3.1-4.8
	l-2.7-10.2c-0.7-2.2-2.9-3.3-5.1-2.6L412.2,238.7z"/>
<path fill="#004371" d="M404,218.7c-2,1-2.9,3.5-1.9,5.6l3,6.9c0.9,2.1,3.3,3.1,5.4,2.4l17.8-6.7c2.1-0.8,3.1-3.1,2.3-5.2l-4.2-9.7
	c-1-2-3.4-2.9-5.4-1.9L404,218.7z"/>
<path fill="#004371" d="M457.1,209.2c2.1-0.9,3-3.2,2.1-5.3l-3.9-8.8c-1-2-3.5-2.8-5.5-1.8l-16.9,8.8c-2,1-2.8,3.5-1.8,5.5l2.9,6.6
	c0.9,2.1,3.4,3,5.5,2.2L457.1,209.2z"/>
<path fill="#004371" d="M464.6,231.3c2.2-0.6,3.4-2.9,2.7-5l-2.9-9.2c-0.8-2.1-3.1-3.2-5.2-2.4l-17.8,6.7c-2.1,0.8-3.2,3.2-2.4,5.3
	l2.1,6.9c0.7,2.1,3,3.4,5.2,2.8L464.6,231.3z"/>
<path fill="#004371" d="M469.5,254c2.2-0.3,3.7-2.4,3.3-4.6l-1.7-9.5c-0.5-2.2-2.7-3.5-4.9-3l-18.5,4.6c-2.2,0.5-3.6,2.8-3.1,5
	l1.3,7.1c0.4,2.2,2.6,3.7,4.8,3.4L469.5,254z"/>
<path fill="#004371" d="M471.7,277.2c2.2-0.1,4-2,3.8-4.2l-0.6-9.6c-0.2-2.2-2.3-3.8-4.5-3.6l-18.9,2.4c-2.2,0.3-3.9,2.3-3.6,4.6
	l0.4,7.2c0.2,2.2,2.1,4,4.4,3.9L471.7,277.2z"/>
<path fill="#004371" d="M471.9,299.7c2.3,0,4.1-1.8,4.1-4.1l-0.1-8.5c0-2.3-1.8-4.1-4.1-4.1l-19,0.1c-2.2,0-4.1,1.9-4.1,4.1l0,8.4
	c0,2.2,1.8,4.1,4.1,4.1L471.9,299.7z"/>
<path fill="#004371" d="M471.9,321.9c2.3,0,4.1-1.8,4.1-4.1l0-8.4c0-2.2-1.8-4.1-4.1-4.1l-19,0c-2.2,0-4.1,1.8-4.1,4.1l0,8.4
	c0,2.2,1.8,4.1,4.1,4.1L471.9,321.9z"/>
<path fill="#004371" d="M398.7,245.4c2.1-0.7,3.3-3,2.5-5.1l-4.3-11.1c-0.9-2.1-3.3-2.9-5.3-1.9l-17.1,8.3c-2,1-2.9,3.5-2,5.5
	l2.8,7.3c0.8,2.1,3.2,3.3,5.3,2.6L398.7,245.4z"/>
<path fill="#004371" d="M403.9,270.8c2.2-0.2,3.8-2.2,3.5-4.5l-2.1-11.7c-0.5-2.2-2.7-3.5-4.8-3l-18.4,4.8c-2.2,0.6-3.6,2.8-3.1,5
	l1.4,7.7c0.3,2.2,2.4,3.9,4.6,3.6L403.9,270.8z"/>
<path fill="#004371" d="M404.6,295.9c2.2,0,4.1-1.8,4.1-4.1l-0.2-10.6c0-2.2-1.9-4-4.2-3.9l-19,1c-2.2,0.1-4.1,2.1-4,4.3l0.1,9.1
	c0,2.2,1.8,4.1,4.1,4.1L404.6,295.9z"/>
<path fill="#004371" d="M404.6,319.9c2.3,0,4.1-1.8,4.1-4.1l0-9.9c0-2.2-1.8-4.1-4.1-4.1h-19c-2.2,0-4.1,1.8-4.1,4.1v9.9
	c0,2.2,1.8,4.1,4.1,4.1L404.6,319.9z"/>
<path fill="#004371" d="M486.4,328.6c-2.2,0-4.1,1.8-4.1,4.1l0,8c0,2.2,1.8,4.1,4.1,4.1l19,0c2.3,0,4.1-1.8,4.1-4.1l0-8
	c0-2.2-1.8-4.1-4.1-4.1L486.4,328.6z"/>
<path fill="#004371" d="M419.6,326c-2.3,0-4.1,1.8-4.1,4.1l0,9.1c0,2.2,1.8,4.1,4.1,4.1l19,0c2.2,0,4.1-1.8,4.1-4.1l0-9.1
	c0-2.3-1.8-4.1-4.1-4.1L419.6,326z"/>
<path fill="#004371" d="M471.9,344.1c2.3,0,4.1-1.8,4.1-4.1l0-8.4c0-2.2-1.8-4.1-4.1-4.1l-19,0c-2.2,0-4.1,1.8-4.1,4.1l0,8.4
	c0,2.2,1.8,4.1,4.1,4.1L471.9,344.1z"/>
<path fill="#004371" d="M404.6,342.2c2.3,0,4.1-1.8,4.1-4.1l0-9.9c0-2.2-1.8-4.1-4.1-4.1h-19c-2.2,0-4.1,1.8-4.1,4.1v9.9
	c0,2.2,1.8,4.1,4.1,4.1L404.6,342.2z"/>
<path fill="#004371" d="M250.9,18.6c-0.2-2.2,1.5-4.2,3.7-4.4l7.3-0.5c2.3-0.1,4.2,1.6,4.2,3.8l0.7,19.1c0.1,2.3-1.7,4.2-4,4.4
	l-5.7,0.4c-2.3,0.1-4.3-1.6-4.5-3.8L250.9,18.6z"/>
<path fill="#004371" d="M230.7,21.3c-0.4-2.2,1.1-4.3,3.4-4.6l7.2-1.1c2.2-0.3,4.3,1.4,4.5,3.6l2.1,19c0.2,2.2-1.4,4.3-3.6,4.6
	l-5.7,0.9c-2.2,0.3-4.4-1.3-4.8-3.5L230.7,21.3z"/>
<path fill="#004371" d="M210.8,25.5c-0.5-2.2,0.8-4.4,3-4.9l7.1-1.6c2.2-0.4,4.4,1.1,4.8,3.3l3.6,18.8c0.4,2.2-1.1,4.4-3.3,4.8
	l-5.6,1.3c-2.2,0.5-4.5-0.9-5-3.1L210.8,25.5z"/>
<path fill="#004371" d="M191.2,31.2c-0.7-2.1,0.4-4.5,2.6-5.2l7-2c2.2-0.6,4.4,0.6,5,2.8l5,18.4c0.6,2.2-0.7,4.5-2.9,5.1l-5.5,1.6
	c-2.1,0.7-4.5-0.4-5.2-2.6L191.2,31.2z"/>
<path fill="#004371" d="M172.1,38.4c-0.9-2.1,0.1-4.5,2.2-5.3l6.8-2.6c2.1-0.8,4.4,0.2,5.2,2.4l6.4,18c0.8,2.1-0.3,4.5-2.4,5.4
	l-5.4,2c-2.1,0.9-4.5-0.1-5.4-2.2L172.1,38.4z"/>
<path fill="#004371" d="M135.9,57.1c-1.2-1.9-0.6-4.4,1.4-5.6l6.3-3.7c2-1.1,4.5-0.3,5.6,1.7l9.1,16.8c1.1,2,0.3,4.5-1.7,5.6l-4.9,3
	c-1.9,1.2-4.5,0.5-5.7-1.4L135.9,57.1z"/>
<path fill="#004371" d="M119,68.5c-1.3-1.8-0.9-4.4,0.9-5.7l6.1-4.1c1.9-1.3,4.4-0.7,5.6,1.1l10.4,16c1.2,1.9,0.7,4.5-1.2,5.8
	l-4.8,3.2c-1.8,1.3-4.4,0.9-5.7-0.9L119,68.5z"/>
<path fill="#004371" d="M103,81.1c-1.5-1.7-1.2-4.3,0.5-5.7l5.7-4.6c1.8-1.4,4.3-1.1,5.7,0.7l11.6,15.2c1.4,1.8,1,4.4-0.7,5.9
	l-4.5,3.6c-1.8,1.4-4.4,1.2-5.9-0.5L103,81.1z"/>
<path fill="#004371" d="M88,95c-1.6-1.6-1.6-4.2,0.1-5.7l5.3-5.1c1.7-1.5,4.3-1.3,5.8,0.3l12.7,14.3c1.5,1.7,1.3,4.3-0.3,5.8l-4.1,4
	c-1.6,1.5-4.3,1.5-5.9-0.1L88,95z"/>
<path fill="#004371" d="M74.2,109.9c-1.7-1.5-1.9-4.1-0.4-5.8l4.9-5.4c1.6-1.6,4.2-1.7,5.8-0.1l13.7,13.3c1.6,1.6,1.7,4.2,0.1,5.8
	l-3.9,4.3c-1.5,1.7-4.1,1.9-5.8,0.4L74.2,109.9z"/>
<path fill="#004371" d="M61.5,125.9c-1.8-1.3-2.2-3.9-0.9-5.8l4.6-5.7c1.4-1.8,3.9-2.1,5.7-0.6L85.6,126c1.7,1.4,2,4.1,0.6,5.9
	l-3.7,4.4c-1.3,1.8-3.9,2.2-5.7,0.9L61.5,125.9z"/>
<path fill="#004371" d="M49.9,142.7c-1.9-1.2-2.5-3.7-1.2-5.6l4.1-6.1c1.3-1.9,3.8-2.4,5.6-1L74,141c1.8,1.3,2.3,3.9,1.1,5.8
	l-3.2,4.8c-1.3,1.9-3.8,2.4-5.8,1.2L49.9,142.7z"/>
<path fill="#F13516" d="M103.6,157.9c1.8,1.3,2.3,3.9,1,5.8l-3.4,4.8c-1.2,1.9-3.8,2.4-5.7,1.2l-16.2-10.2c-1.9-1.2-2.5-3.7-1.2-5.6
	l4.4-6.3c1.3-1.9,3.8-2.3,5.6-1L103.6,157.9z"/>
<path fill="#004371" d="M115.6,143c1.7,1.5,1.9,4.1,0.4,5.8l-3.7,4.6c-1.4,1.8-4,2.1-5.8,0.7l-15.2-11.6c-1.8-1.4-2.1-3.9-0.7-5.7
	l4.9-6c1.5-1.7,4.1-1.9,5.8-0.4L115.6,143z"/>
<path fill="#004371" d="M128.8,129.1c1.6,1.6,1.5,4.3,0,5.9l-4.2,4.1c-1.6,1.6-4.2,1.7-5.9,0.2l-14.1-12.9c-1.7-1.5-1.8-4.1-0.2-5.8
	l5.5-5.4c1.6-1.6,4.2-1.6,5.7,0.1L128.8,129.1z"/>
<path fill="#004371" d="M143.3,116.6c1.4,1.8,1.1,4.4-0.7,5.8l-4.4,3.9c-1.7,1.5-4.3,1.3-5.9-0.3l-12.9-14.1
	c-1.5-1.7-1.4-4.3,0.3-5.7l5.8-5c1.8-1.4,4.4-1.1,5.8,0.6L143.3,116.6z"/>
<path fill="#004371" d="M158.8,105.3c1.2,1.9,0.7,4.5-1.1,5.8l-4.9,3.3c-1.8,1.3-4.4,1-5.8-0.8l-11.5-15.2c-1.4-1.8-1-4.4,0.8-5.7
	l6.4-4.4c1.8-1.3,4.4-0.8,5.6,1.1L158.8,105.3z"/>
<path fill="#004371" d="M175.3,95.5c1.1,2,0.3,4.5-1.7,5.6l-5,3c-1.9,1.2-4.5,0.5-5.7-1.4l-10.1-16.2c-1.2-1.9-0.6-4.4,1.3-5.6
	l6.6-3.9c2-1.1,4.5-0.3,5.5,1.7L175.3,95.5z"/>
<path fill="#004371" d="M192.5,87.3c0.9,2.1-0.1,4.6-2.1,5.5l-5.4,2.4c-2,1-4.5,0.2-5.5-1.9l-8.6-17c-1-2-0.2-4.5,1.8-5.5l7.1-3.2
	c2.1-1,4.5,0,5.3,2.1L192.5,87.3z"/>
<path fill="#004371" d="M210.5,80.6c0.7,2.2-0.5,4.5-2.6,5.2l-5.5,2c-2.1,0.8-4.5-0.3-5.4-2.4l-7.1-17.7c-0.8-2.1,0.2-4.5,2.3-5.3
	l7.3-2.7c2.1-0.7,4.5,0.5,5.2,2.6L210.5,80.6z"/>
<path fill="#004371" d="M228.9,75.6c0.5,2.2-0.9,4.5-3.1,5l-5.7,1.4c-2.2,0.6-4.5-0.7-5.1-2.9l-5.4-18.3c-0.6-2.2,0.6-4.4,2.8-5
	l7.5-1.9c2.2-0.6,4.4,0.8,4.9,3L228.9,75.6z"/>
<path fill="#004371" d="M247.8,72.3c0.3,2.2-1.3,4.3-3.5,4.6l-5.8,1c-2.2,0.4-4.4-1.1-4.8-3.3l-3.7-18.7c-0.4-2.2,1-4.4,3.2-4.8
	l7.6-1.3c2.2-0.3,4.3,1.3,4.6,3.5L247.8,72.3z"/>
<path fill="#004371" d="M266.9,70.6c0.1,2.3-1.7,4.2-3.9,4.4l-5.9,0.5c-2.3,0.2-4.3-1.5-4.5-3.8l-2-19c-0.2-2.2,1.4-4.2,3.7-4.4
	l7.7-0.6c2.3-0.1,4.2,1.6,4.3,3.8L266.9,70.6z"/>
<path fill="#004371" d="M249.9,86.6c-0.3-2.2,1.3-4.2,3.6-4.4l8.3-0.9c2.3-0.1,4.2,1.6,4.3,3.9l0.9,19.1c0.1,2.3-1.7,4.2-3.9,4.3
	l-6.1,0.7c-2.2,0.2-4.3-1.5-4.6-3.7L249.9,86.6z"/>
<path fill="#004371" d="M228.7,90.5c-0.5-2.2,0.8-4.4,3-4.9l8.2-1.5c2.2-0.4,4.3,1.1,4.7,3.3l3,18.9c0.3,2.2-1.2,4.4-3.4,4.8l-6,1.1
	c-2.2,0.5-4.4-0.9-5-3.1L228.7,90.5z"/>
<path fill="#004371" d="M208,96.7c-0.8-2.1,0.3-4.5,2.5-5.2l8-2.4c2.2-0.7,4.4,0.6,5,2.8l5,18.4c0.6,2.2-0.7,4.5-2.9,5.2l-5.9,1.7
	c-2.1,0.7-4.5-0.4-5.3-2.5L208,96.7z"/>
<path fill="#004371" d="M188.1,105.2c-1-2-0.1-4.5,1.9-5.4l7.6-3.3c2.1-0.9,4.5,0.1,5.3,2.2l7,17.8c0.8,2.1-0.2,4.5-2.3,5.4
	l-5.6,2.4c-2,1-4.5,0.1-5.5-1.9L188.1,105.2z"/>
<path fill="#004371" d="M169.3,115.8c-1.2-1.9-0.6-4.4,1.3-5.6l7.2-4.2c2-1.1,4.5-0.3,5.5,1.7l8.9,16.9c1.1,2,0.3,4.5-1.7,5.6
	l-5.2,3.1c-1.9,1.2-4.5,0.6-5.7-1.3L169.3,115.8z"/>
<path fill="#004371" d="M151.7,128.4c-1.4-1.8-1.1-4.3,0.7-5.7l6.6-5.1c1.9-1.3,4.4-0.8,5.7,1.1l10.7,15.8c1.3,1.9,0.8,4.5-1.1,5.7
	l-4.8,3.7c-1.8,1.4-4.4,1-5.9-0.7L151.7,128.4z"/>
<path fill="#004371" d="M135.6,142.8c-1.6-1.6-1.6-4.2,0.1-5.7l6.1-5.7c1.7-1.5,4.3-1.3,5.7,0.4l12.3,14.6c1.5,1.7,1.3,4.3-0.4,5.8
	l-4.4,4.2c-1.6,1.5-4.3,1.5-5.9-0.1L135.6,142.8z"/>
<path fill="#004371" d="M121.1,158.8c-1.8-1.4-2-4-0.6-5.7l5.5-6.2c1.5-1.7,4.1-1.8,5.7-0.2l13.8,13.2c1.6,1.6,1.7,4.2,0.2,5.9
	l-4.1,4.6c-1.4,1.7-4.1,2-5.8,0.6L121.1,158.8z"/>
<path fill="#F13516" d="M108.4,176.3c-1.9-1.2-2.4-3.8-1.2-5.6l4.9-6.7c1.3-1.8,3.8-2.2,5.6-0.9l15.2,11.6c1.8,1.4,2.2,4,0.9,5.8
	l-3.7,4.9c-1.2,1.9-3.8,2.4-5.7,1.2L108.4,176.3z"/>
<path fill="#F13516" d="M162.4,191.2c1.8,1.4,2.1,4.1,0.7,5.9l-3.9,5.2c-1.3,1.9-3.9,2.4-5.8,1.1l-16-10.5c-1.9-1.2-2.4-3.8-1.1-5.6
	l5.5-7.5c1.4-1.8,3.9-2.1,5.7-0.7L162.4,191.2z"/>
<path fill="#004371" d="M191.9,163.8c1.3,1.8,0.9,4.5-0.9,5.8l-5.1,4c-1.7,1.4-4.4,1.2-5.9-0.5l-12.5-14.4c-1.5-1.7-1.3-4.3,0.5-5.7
	l7.4-5.7c1.8-1.3,4.4-0.9,5.7,0.9L191.9,163.8z"/>
<path fill="#004371" d="M209.1,153.4c1,2,0.3,4.5-1.7,5.6l-5.6,3.3c-1.9,1.2-4.5,0.6-5.7-1.3l-10.4-16c-1.2-1.9-0.7-4.4,1.3-5.6
	l8-4.7c2-1.1,4.4-0.3,5.5,1.7L209.1,153.4z"/>
<path fill="#004371" d="M227.6,145.5c0.7,2.1-0.4,4.5-2.5,5.3l-6,2.5c-2.1,0.9-4.5,0-5.5-2.1l-8.1-17.3c-1-2-0.1-4.5,2-5.4l8.6-3.5
	c2.1-0.8,4.5,0.3,5.2,2.5L227.6,145.5z"/>
<path fill="#004371" d="M247.1,140.2c0.4,2.2-1,4.4-3.2,5l-6.3,1.5c-2.2,0.6-4.5-0.7-5.2-2.8l-5.6-18.3c-0.7-2.2,0.6-4.4,2.7-5
	l9.1-2.2c2.2-0.5,4.4,0.9,4.8,3.1L247.1,140.2z"/>
<path fill="#004371" d="M267.1,137.6c0.1,2.3-1.6,4.2-3.9,4.4l-6.4,0.8c-2.2,0.3-4.4-1.3-4.7-3.5l-3-18.8c-0.4-2.2,1.2-4.3,3.4-4.6
	l9.3-1.1c2.2-0.2,4.2,1.5,4.3,3.8L267.1,137.6z"/>
<path fill="#004371" d="M247.4,155.5c-0.5-2.2,0.9-4.3,3.2-4.7l10.9-1.7c2.2-0.2,4.2,1.4,4.4,3.7l1.4,19c0.2,2.3-1.5,4.3-3.8,4.5
	l-7,1.1c-2.2,0.4-4.4-1.1-4.9-3.3L247.4,155.5z"/>
<path fill="#004371" d="M223.8,163.1c-0.9-2.1,0.1-4.4,2.2-5.3l10.4-3.6c2.2-0.7,4.4,0.6,5,2.8l5,18.4c0.6,2.2-0.7,4.5-2.9,5.2
	l-6.7,2.3c-2.1,0.8-4.6-0.2-5.4-2.3L223.8,163.1z"/>
<path fill="#004371" d="M202,175c-1.3-1.9-0.7-4.4,1.2-5.6l9.5-5.5c2-1.1,4.4-0.3,5.4,1.8l8.4,17.2c1,2,0.2,4.6-1.8,5.6l-6.2,3.5
	c-1.9,1.2-4.5,0.7-5.8-1.2L202,175z"/>
<path fill="#004371" d="M183,190.8c-1.6-1.6-1.5-4.2,0.1-5.7l8.2-7.3c1.8-1.4,4.3-1.1,5.7,0.7l11.5,15.3c1.4,1.8,1,4.4-0.7,5.8
	l-5.3,4.7c-1.7,1.5-4.3,1.5-5.9-0.1L183,190.8z"/>
<path fill="#F13516" d="M167.2,209.9c-1.9-1.3-2.3-3.8-1-5.6l6.9-8.6c1.4-1.7,4-1.9,5.7-0.4l14.1,12.8c1.7,1.5,1.9,4.2,0.4,5.9
	l-4.5,5.5c-1.3,1.8-3.9,2.3-5.8,1L167.2,209.9z"/>
<path fill="#F13516" d="M145.8,371.9c-2.3,0-4.1-1.8-4.1-4.1l0-7.2c0-2.3,1.8-4.1,4.1-4.1l19,0c2.3,0,4.1,1.8,4.1,4.1l0,7.2
	c0,2.3-1.8,4.1-4.1,4.1L145.8,371.9z"/>
<path fill="#F13516" d="M63.8,438.4c2.2,0,4.1,1.8,4.1,4.1l0,7.2c0,2.3-1.8,4.1-4.1,4.1l-19,0c-2.3,0-4.1-1.8-4.1-4.1l0-7.2
	c0-2.2,1.8-4.1,4.1-4.1L63.8,438.4z"/>
<path fill="#F13516" d="M63.9,418c2.2,0,4.1,1.8,4.1,4.1l0,7.2c0,2.3-1.8,4.1-4.1,4.1l-19,0c-2.3,0-4.1-1.8-4.1-4.1l0-7.2
	c0-2.3,1.8-4.1,4.1-4.1L63.9,418z"/>
<path fill="#F13516" d="M63.9,397.5c2.2,0,4.1,1.8,4.1,4.1l0,7.2c0,2.3-1.8,4.1-4.1,4.1l-19,0c-2.3,0-4.1-1.8-4.1-4.1l0-7.2
	c0-2.2,1.8-4.1,4.1-4.1L63.9,397.5z"/>
<path fill="#F13516" d="M63.9,377c2.2,0,4.1,1.8,4.1,4.1l0,7.2c0,2.3-1.8,4.1-4.1,4.1l-19,0c-2.3,0-4.1-1.8-4.1-4.1l0-7.2
	c0-2.2,1.8-4.1,4.1-4.1L63.9,377z"/>
<path fill="#F13516" d="M64,356.6c2.2,0,4.1,1.8,4.1,4.1l0,7.2c0,2.3-1.8,4.1-4.1,4.1l-19,0c-2.3,0-4.1-1.8-4.1-4.1l0-7.2
	c0-2.2,1.8-4.1,4.1-4.1L64,356.6z"/>
<path fill="#F13516" d="M131,458.9c2.2,0,4.1,1.8,4.1,4.1l0,7.2c0,2.3-1.8,4.1-4.1,4.1l-19,0c-2.3,0-4.1-1.8-4.1-4.1l0-7.2
	c0-2.2,1.8-4.1,4.1-4.1L131,458.9z"/>
<path fill="#F13516" d="M131,438.4c2.2,0,4.1,1.8,4.1,4.1l0,7.2c0,2.3-1.8,4.1-4.1,4.1l-19,0c-2.3,0-4.1-1.8-4.1-4.1l0-7.2
	c0-2.2,1.8-4.1,4.1-4.1L131,438.4z"/>
<path fill="#F13516" d="M164.8,458.9c2.2,0,4.1,1.8,4.1,4.1l0,7.2c0,2.3-1.8,4.1-4.1,4.1l-19,0c-2.3,0-4.1-1.8-4.1-4.1l0-7.2
	c0-2.2,1.8-4.1,4.1-4.1L164.8,458.9z"/>
<path fill="#F13516" d="M164.8,438.4c2.2,0,4.1,1.8,4.1,4.1l0,7.2c0,2.3-1.8,4.1-4.1,4.1l-19,0c-2.3,0-4.1-1.8-4.1-4.1l0-7.2
	c0-2.2,1.8-4.1,4.1-4.1L164.8,438.4z"/>
<path fill="#F13516" d="M131,418c2.2,0,4.1,1.8,4.1,4.1l0,7.2c0,2.3-1.8,4.1-4.1,4.1l-19,0c-2.3,0-4.1-1.8-4.1-4.1l0-7.2
	c0-2.2,1.8-4.1,4.1-4.1L131,418z"/>
<path fill="#F13516" d="M131,397.5c2.2,0,4.1,1.8,4.1,4.1l0,7.2c0,2.3-1.8,4.1-4.1,4.1l-19,0c-2.3,0-4.1-1.8-4.1-4.1l0-7.2
	c0-2.2,1.8-4.1,4.1-4.1L131,397.5z"/>
<path fill="#F13516" d="M131,377c2.2,0,4.1,1.8,4.1,4.1l0,7.2c0,2.3-1.8,4.1-4.1,4.1l-19,0c-2.3,0-4.1-1.8-4.1-4.1l0-7.2
	c0-2.2,1.8-4.1,4.1-4.1L131,377z"/>
<path fill="#F13516" d="M130.9,356.6c2.2,0,4.1,1.8,4.1,4.1l0,7.2c0,2.3-1.8,4.1-4.1,4.1l-19,0c-2.3,0-4.1-1.8-4.1-4.1l0-7.2
	c0-2.2,1.8-4.1,4.1-4.1L130.9,356.6z"/>
<path fill="#F13516" d="M78.5,371.9c-2.2,0-4.1-1.8-4.1-4.1l0-7.2c0-2.3,1.8-4.1,4.1-4.1l19,0c2.3,0,4.1,1.8,4.1,4.1l0,7.2
	c0,2.2-1.8,4.1-4.1,4.1L78.5,371.9z"/>
<path fill="#F13516" d="M78.4,392.4c-2.2,0-4.1-1.8-4.1-4.1l0-7.2c0-2.3,1.8-4.1,4.1-4.1l19,0c2.3,0,4.1,1.8,4.1,4.1l0,7.2
	c0,2.2-1.8,4.1-4.1,4.1L78.4,392.4z"/>
<path fill="#F13516" d="M78.4,412.8c-2.2,0-4.1-1.8-4.1-4.1l0-7.2c0-2.3,1.8-4.1,4.1-4.1l19,0c2.3,0,4.1,1.8,4.1,4.1l0,7.2
	c0,2.2-1.8,4.1-4.1,4.1L78.4,412.8z"/>
<path fill="#F13516" d="M78.4,433.3c-2.2,0-4.1-1.8-4.1-4.1l0-7.2c0-2.3,1.8-4.1,4.1-4.1l19,0c2.3,0,4.1,1.8,4.1,4.1l0,7.2
	c0,2.2-1.8,4.1-4.1,4.1L78.4,433.3z"/>
<path fill="#F13516" d="M78.4,453.8c-2.2,0-4.1-1.8-4.1-4.1l0-7.2c0-2.3,1.8-4.1,4.1-4.1l19,0c2.3,0,4.1,1.8,4.1,4.1l0,7.2
	c0,2.2-1.8,4.1-4.1,4.1L78.4,453.8z"/>
<path fill="#F13516" d="M78.4,474.2c-2.2,0-4.1-1.8-4.1-4.1l0-7.2c0-2.3,1.8-4.1,4.1-4.1l19,0c2.3,0,4.1,1.8,4.1,4.1l0,7.2
	c0,2.2-1.8,4.1-4.1,4.1L78.4,474.2z"/>
<path fill="#F13516" d="M145.8,392.4c-2.2,0-4.1-1.8-4.1-4.1l0-7.2c0-2.3,1.8-4.1,4.1-4.1l19,0c2.3,0,4.1,1.8,4.1,4.1l0,7.2
	c0,2.2-1.8,4.1-4.1,4.1L145.8,392.4z"/>
<path fill="#F13516" d="M145.8,412.9c-2.2,0-4.1-1.8-4.1-4.1l0-7.2c0-2.3,1.8-4.1,4.1-4.1l19,0c2.3,0,4.1,1.8,4.1,4.1l0,7.2
	c0,2.2-1.8,4.1-4.1,4.1L145.8,412.9z"/>
<path fill="#F13516" d="M145.8,433.3c-2.2,0-4.1-1.8-4.1-4.1l0-7.2c0-2.3,1.8-4.1,4.1-4.1l19,0c2.3,0,4.1,1.8,4.1,4.1l0,7.2
	c0,2.2-1.8,4.1-4.1,4.1L145.8,433.3z"/>
<path fill="#004371" d="M229.8,214.4"/>
<path fill="#004371" d="M176.2,176.5c1.5,1.7,1.5,4.3-0.1,5.9l-4.5,4.7c-1.5,1.7-4.2,1.8-5.9,0.3l-14.4-12.6
	c-1.7-1.5-1.8-4.1-0.3-5.7l6.4-6.7c1.6-1.6,4.2-1.5,5.7,0.1L176.2,176.5z"/>
<path fill="#F13516" d="M64.1,306.3c2.2,0,4.1,1.8,4.1,4.1l0,8c0,2.2-1.8,4.1-4.1,4.1l-19,0c-2.3,0-4.1-1.8-4.1-4.1l0-8
	c0-2.2,1.8-4.1,4.1-4.1L64.1,306.3z"/>
<path fill="#F13516" d="M64.1,284.7c2.2,0,4.1,1.8,4.1,4.1l0,8c0,2.2-1.8,4.1-4.1,4.1l-19,0c-2.2,0-4.1-1.8-4.1-4.1l0-8
	c0-2.2,1.8-4.1,4.1-4.1L64.1,284.7z"/>
<path fill="#F13516" d="M65.2,264.1c2.2,0.2,3.9,2.2,3.7,4.5l-0.5,7c-0.1,2.2-2,4-4.2,4l-19-0.4c-2.2-0.1-4-1.9-4-4.2l0.6-9
	c0.2-2.2,2.2-3.9,4.4-3.7L65.2,264.1z"/>
<path fill="#F13516" d="M68,243.7c2.2,0.4,3.7,2.6,3.3,4.8l-1.1,6.9c-0.3,2.2-2.4,3.8-4.6,3.6l-18.9-2.3c-2.2-0.3-3.8-2.3-3.5-4.5
	l1.4-8.9c0.4-2.2,2.5-3.7,4.7-3.3L68,243.7z"/>
<path fill="#F13516" d="M73,223.6c2.2,0.6,3.4,2.9,2.8,5.1l-1.7,6.8c-0.5,2.2-2.8,3.6-5,3.1l-18.6-4.1c-2.2-0.5-3.6-2.7-3-4.9
	l2.2-8.7c0.6-2.2,2.9-3.4,5.1-2.8L73,223.6z"/>
<path fill="#F13516" d="M79.9,204.2c2.1,0.9,3.1,3.3,2.4,5.4l-2.6,6.5c-0.7,2.1-3,3.3-5.2,2.6l-18.1-5.9c-2.1-0.7-3.3-3-2.6-5.2
	l3.2-8.4c0.8-2.1,3.1-3.1,5.2-2.3L79.9,204.2z"/>
<path fill="#F13516" d="M88.5,185.5c2,1,2.8,3.5,1.8,5.6l-2.9,6.4c-1,2-3.5,2.9-5.5,2l-17.4-7.6c-2.1-0.9-3-3.3-2-5.3l3.8-8.2
	c1-2,3.5-2.8,5.5-1.7L88.5,185.5z"/>
<path fill="#F13516" d="M35.2,174.4c-2-0.9-2.9-3.3-1.9-5.4l3.8-7.6c1-2,3.4-2.8,5.4-1.7l16.8,9c2,1.1,2.8,3.6,1.8,5.6l-3,6.1
	c-1,2-3.5,2.9-5.5,2L35.2,174.4z"/>
<path fill="#F13516" d="M27,194.7c-2.1-0.8-3.2-3.1-2.4-5.2l3.1-7.9c0.9-2.1,3.3-3,5.4-2.1l17.5,7.6c2.1,0.9,3,3.3,2.1,5.4l-2.4,6.3
	c-0.8,2.1-3.2,3.2-5.3,2.4L27,194.7z"/>
<path fill="#F13516" d="M20.4,215.6c-2.2-0.6-3.5-2.8-2.9-5l2.6-8.1c0.6-2.2,2.9-3.3,5.1-2.6l18,6.1c2.1,0.7,3.4,3.1,2.7,5.2
	l-2.1,6.5c-0.6,2.2-2.8,3.5-5,2.9L20.4,215.6z"/>
<path fill="#F13516" d="M15.6,237c-2.2-0.4-3.6-2.5-3.2-4.7l1.7-8.3c0.5-2.2,2.7-3.5,4.9-3l18.5,4.6c2.2,0.5,3.6,2.8,3,5l-1.3,6.7
	c-0.5,2.2-2.7,3.7-4.9,3.3L15.6,237z"/>
<path fill="#F13516" d="M12.7,258.7c-2.2-0.2-3.9-2.2-3.6-4.5l1.1-8.4c0.3-2.2,2.4-3.8,4.7-3.4l18.8,3c2.2,0.4,3.8,2.5,3.4,4.7
	l-0.8,6.8c-0.2,2.2-2.3,3.9-4.5,3.7L12.7,258.7z"/>
<path fill="#F13516" d="M130.9,303.8c2.3,0,4.1,1.8,4.1,4.1l0,9.1c0,2.2-1.8,4.1-4.1,4.1l-19,0c-2.2,0-4.1-1.8-4.1-4.1l0-9.1
	c0-2.3,1.8-4.1,4.1-4.1L130.9,303.8z"/>
<path fill="#F13516" d="M131,281c2.2,0.1,4.1,1.9,4.1,4.2l-0.1,8.7c0,2.2-1.8,4.1-4.1,4.1l-19,0c-2.3,0-4.1-1.8-4.1-4.1l0.1-9.4
	c0-2.3,1.9-4.1,4.1-4L131,281z"/>
<path fill="#F13516" d="M133,259.6c2.2,0.4,3.8,2.5,3.5,4.7l-0.9,7.5c-0.2,2.2-2.2,4-4.5,3.8l-19-1.1c-2.2-0.1-3.9-2.1-3.7-4.3
	l1.2-10.5c0.3-2.2,2.4-3.7,4.6-3.4L133,259.6z"/>
<path fill="#F13516" d="M138.2,238.7c2.1,0.7,3.3,3.1,2.7,5.2l-1.9,7.3c-0.5,2.2-2.7,3.6-4.9,3.1l-18.6-3.9
	c-2.2-0.5-3.6-2.6-3.1-4.8l2.7-10.2c0.7-2.2,2.9-3.3,5.1-2.6L138.2,238.7z"/>
<path fill="#F13516" d="M146.5,218.7c2,1,2.9,3.5,1.9,5.6l-3,6.9c-0.9,2.1-3.3,3.1-5.4,2.4l-17.8-6.7c-2.1-0.8-3.1-3.1-2.3-5.2
	l4.2-9.7c1-2,3.4-2.9,5.4-1.9L146.5,218.7z"/>
<path fill="#F13516" d="M93.4,209.2c-2.1-0.9-3-3.2-2.1-5.3l3.9-8.8c1-2,3.5-2.8,5.5-1.8l16.9,8.8c2,1,2.8,3.5,1.8,5.5l-2.9,6.6
	c-0.9,2.1-3.4,3-5.5,2.2L93.4,209.2z"/>
<path fill="#F13516" d="M85.8,231.3c-2.2-0.6-3.4-2.9-2.7-5L86,217c0.8-2.1,3.1-3.2,5.2-2.4l17.8,6.7c2.1,0.8,3.2,3.2,2.4,5.3
	l-2.1,6.9c-0.7,2.1-3,3.4-5.2,2.8L85.8,231.3z"/>
<path fill="#F13516" d="M80.9,254c-2.2-0.3-3.7-2.4-3.3-4.6l1.7-9.5c0.5-2.2,2.7-3.5,4.9-3l18.5,4.6c2.2,0.5,3.6,2.8,3.1,5l-1.3,7.1
	c-0.4,2.2-2.6,3.7-4.8,3.4L80.9,254z"/>
<path fill="#F13516" d="M78.7,277.2c-2.2-0.1-4-2-3.8-4.2l0.6-9.6c0.2-2.2,2.3-3.8,4.5-3.6l18.9,2.4c2.2,0.3,3.9,2.3,3.6,4.6
	l-0.4,7.2c-0.2,2.2-2.1,4-4.4,3.9L78.7,277.2z"/>
<path fill="#F13516" d="M78.5,299.7c-2.3,0-4.1-1.8-4.1-4.1l0.1-8.5c0-2.3,1.8-4.1,4.1-4.1l19,0.1c2.2,0,4.1,1.9,4.1,4.1l0,8.4
	c0,2.2-1.8,4.1-4.1,4.1L78.5,299.7z"/>
<path fill="#F13516" d="M78.5,321.9c-2.3,0-4.1-1.8-4.1-4.1l0-8.4c0-2.2,1.8-4.1,4.1-4.1l19,0c2.2,0,4.1,1.8,4.1,4.1l0,8.4
	c0,2.2-1.8,4.1-4.1,4.1L78.5,321.9z"/>
<path fill="#F13516" d="M151.8,245.4c-2.1-0.7-3.3-3-2.5-5.1l4.3-11.1c0.9-2.1,3.3-2.9,5.3-1.9l17.1,8.3c2,1,2.9,3.5,2,5.5l-2.8,7.3
	c-0.8,2.1-3.2,3.3-5.3,2.6L151.8,245.4z"/>
<path fill="#F13516" d="M146.5,270.8c-2.2-0.2-3.8-2.2-3.5-4.5l2.1-11.7c0.5-2.2,2.7-3.5,4.8-3l18.4,4.8c2.2,0.6,3.6,2.8,3.1,5
	l-1.4,7.7c-0.3,2.2-2.4,3.9-4.6,3.6L146.5,270.8z"/>
<path fill="#F13516" d="M145.8,295.9c-2.2,0-4.1-1.8-4.1-4.1l0.2-10.6c0-2.2,1.9-4,4.2-3.9l19,1c2.2,0.1,4.1,2.1,4,4.3l-0.1,9.1
	c0,2.2-1.8,4.1-4.1,4.1L145.8,295.9z"/>
<path fill="#F13516" d="M145.8,319.9c-2.3,0-4.1-1.8-4.1-4.1l0-9.9c0-2.2,1.8-4.1,4.1-4.1h19c2.2,0,4.1,1.8,4.1,4.1v9.9
	c0,2.2-1.8,4.1-4.1,4.1L145.8,319.9z"/>
<path fill="#F13516" d="M64.1,328.6c2.2,0,4.1,1.8,4.1,4.1l0,8c0,2.2-1.8,4.1-4.1,4.1l-19,0c-2.3,0-4.1-1.8-4.1-4.1l0-8
	c0-2.2,1.8-4.1,4.1-4.1L64.1,328.6z"/>
<path fill="#F13516" d="M130.9,326c2.3,0,4.1,1.8,4.1,4.1l0,9.1c0,2.2-1.8,4.1-4.1,4.1l-19,0c-2.2,0-4.1-1.8-4.1-4.1l0-9.1
	c0-2.3,1.8-4.1,4.1-4.1L130.9,326z"/>
<path fill="#F13516" d="M81.2,344.1c-2.3,0-4.1-1.8-4.1-4.1l0-8.4c0-2.2,1.8-4.1,4.1-4.1l19,0c2.2,0,4.1,1.8,4.1,4.1l0,8.4
	c0,2.2-1.8,4.1-4.1,4.1L81.2,344.1z"/>
<path fill="#F13516" d="M145.8,342.2c-2.3,0-4.1-1.8-4.1-4.1l0-9.9c0-2.2,1.8-4.1,4.1-4.1h19c2.2,0,4.1,1.8,4.1,4.1v9.9
	c0,2.2-1.8,4.1-4.1,4.1L145.8,342.2z"/>
<path fill="#F13516" d="M11,280.9c-2.2,0-4.1-1.9-4-4.1l0.5-8.5c0.1-2.2,2-4,4.3-3.8l19,1.4c2.2,0.2,4,2.1,3.9,4.4l-0.5,6.8
	c0,2.2-1.9,4.1-4.1,4L11,280.9z"/>
</svg>
