<?xml version="1.0" encoding="utf-8"?>
<!-- Generator: Adobe Illustrator 23.0.1, SVG Export Plug-In . SVG Version: 6.00 Build 0)  -->
<svg version="1.0" id="Layer_1" xmlns="http://www.w3.org/2000/svg" xmlns:xlink="http://www.w3.org/1999/xlink" x="0px" y="0px"
	 viewBox="0 0 550 488" enable-background="new 0 0 550 488" xml:space="preserve">
<g>
	<g>
		<rect fill="none" width="550" height="488"/>
	</g>
	<path fill="#004371" d="M298.3,19.7c0.2-2.2-1.5-4.2-3.7-4.4l-7.3-0.5c-2.3-0.1-4.2,1.6-4.2,3.8l-0.7,19.1c-0.1,2.3,1.7,4.2,4,4.4
		l5.7,0.4c2.3,0.1,4.3-1.6,4.5-3.8L298.3,19.7z"/>
	<path fill="#004371" d="M318.5,22.3c0.4-2.2-1.1-4.3-3.4-4.6l-7.2-1.1c-2.2-0.3-4.3,1.4-4.5,3.6l-2.1,19c-0.2,2.2,1.4,4.3,3.6,4.6
		l5.7,0.9c2.2,0.3,4.4-1.3,4.8-3.5L318.5,22.3z"/>
	<path fill="#004371" d="M338.5,26.5c0.5-2.2-0.8-4.4-3-4.9l-7.1-1.6c-2.2-0.4-4.4,1.1-4.8,3.3L320,42c-0.4,2.2,1.1,4.4,3.3,4.8
		l5.6,1.3c2.2,0.5,4.5-0.9,5-3.1L338.5,26.5z"/>
	<path fill="#004371" d="M358,32.3c0.7-2.1-0.4-4.5-2.6-5.2l-7-2c-2.2-0.6-4.4,0.6-5,2.8l-5,18.4c-0.6,2.2,0.7,4.5,2.9,5.1l5.5,1.6
		c2.1,0.7,4.5-0.4,5.2-2.6L358,32.3z"/>
	<path fill="#004371" d="M377.1,39.4c0.9-2.1-0.1-4.5-2.2-5.3l-6.8-2.6c-2.1-0.8-4.4,0.2-5.2,2.4l-6.4,18c-0.8,2.1,0.3,4.5,2.4,5.4
		l5.4,2c2.1,0.9,4.5-0.1,5.4-2.2L377.1,39.4z"/>
	<path fill="#004371" d="M413.3,58.2c1.2-1.9,0.6-4.4-1.4-5.6l-6.3-3.7c-2-1.1-4.5-0.3-5.6,1.7L391,67.3c-1.1,2-0.3,4.5,1.7,5.6
		l4.9,3c1.9,1.2,4.5,0.5,5.7-1.4L413.3,58.2z"/>
	<path fill="#004371" d="M430.2,69.6c1.3-1.8,0.9-4.4-0.9-5.7l-6.1-4.1c-1.9-1.3-4.4-0.7-5.6,1.1l-10.4,16c-1.2,1.9-0.7,4.5,1.2,5.8
		l4.8,3.2c1.8,1.3,4.4,0.9,5.7-0.9L430.2,69.6z"/>
	<path fill="#004371" d="M446.2,82.2c1.5-1.7,1.2-4.3-0.5-5.7l-5.7-4.6c-1.8-1.4-4.3-1.1-5.7,0.7l-11.6,15.2c-1.4,1.8-1,4.4,0.7,5.9
		l4.5,3.6c1.8,1.4,4.4,1.2,5.9-0.5L446.2,82.2z"/>
	<path fill="#004371" d="M461.2,96c1.6-1.6,1.6-4.2-0.1-5.7l-5.3-5.1c-1.7-1.5-4.3-1.3-5.8,0.3l-12.7,14.3c-1.5,1.7-1.3,4.3,0.3,5.8
		l4.1,4c1.6,1.5,4.3,1.5,5.9-0.1L461.2,96z"/>
	<path fill="#004371" d="M475.1,111c1.7-1.5,1.9-4.1,0.4-5.8l-4.9-5.4c-1.6-1.6-4.2-1.7-5.8-0.1L451,112.9c-1.6,1.6-1.7,4.2-0.1,5.8
		l3.9,4.3c1.5,1.7,4.1,1.9,5.8,0.4L475.1,111z"/>
	<path fill="#004371" d="M487.8,126.9c1.8-1.3,2.2-3.9,0.9-5.8l-4.6-5.7c-1.4-1.8-3.9-2.1-5.7-0.6L463.7,127c-1.7,1.4-2,4.1-0.6,5.9
		l3.7,4.4c1.3,1.8,3.9,2.2,5.7,0.9L487.8,126.9z"/>
	<path fill="#004371" d="M499.3,143.7c1.9-1.2,2.5-3.7,1.2-5.6l-4.1-6.1c-1.3-1.9-3.8-2.4-5.6-1l-15.6,11c-1.8,1.3-2.3,3.9-1.1,5.8
		l3.2,4.8c1.3,1.9,3.8,2.4,5.8,1.2L499.3,143.7z"/>
	<path fill="#004371" d="M445.7,158.9c-1.8,1.3-2.3,3.9-1,5.8l3.4,4.8c1.2,1.9,3.8,2.4,5.7,1.2l16.2-10.2c1.9-1.2,2.5-3.7,1.2-5.6
		l-4.4-6.3c-1.3-1.9-3.8-2.3-5.6-1L445.7,158.9z"/>
	<path fill="#004371" d="M433.7,144c-1.7,1.5-1.9,4.1-0.4,5.8l3.7,4.6c1.4,1.8,4,2.1,5.8,0.7l15.2-11.6c1.8-1.4,2.1-3.9,0.7-5.7
		l-4.9-6c-1.5-1.7-4.1-1.9-5.8-0.4L433.7,144z"/>
	<path fill="#004371" d="M420.4,130.2c-1.6,1.6-1.5,4.3,0,5.9l4.2,4.1c1.6,1.6,4.2,1.7,5.9,0.2l14.1-12.9c1.7-1.5,1.8-4.1,0.2-5.8
		l-5.5-5.4c-1.6-1.6-4.2-1.6-5.7,0.1L420.4,130.2z"/>
	<path fill="#004371" d="M405.9,117.6c-1.4,1.8-1.1,4.4,0.7,5.8l4.4,3.9c1.7,1.5,4.3,1.3,5.9-0.3l12.9-14.1c1.5-1.7,1.4-4.3-0.3-5.7
		l-5.8-5c-1.8-1.4-4.4-1.1-5.8,0.6L405.9,117.6z"/>
	<path fill="#004371" d="M390.4,106.3c-1.2,1.9-0.7,4.5,1.1,5.8l4.9,3.3c1.8,1.3,4.4,1,5.8-0.8l11.5-15.2c1.4-1.8,1-4.4-0.8-5.7
		l-6.4-4.4c-1.8-1.3-4.4-0.8-5.6,1.1L390.4,106.3z"/>
	<path fill="#004371" d="M374,96.6c-1.1,2-0.3,4.5,1.7,5.6l5,3c1.9,1.2,4.5,0.5,5.7-1.4l10.1-16.2c1.2-1.9,0.6-4.4-1.3-5.6l-6.6-3.9
		c-2-1.1-4.5-0.3-5.5,1.7L374,96.6z"/>
	<path fill="#004371" d="M356.7,88.3c-0.9,2.1,0.1,4.6,2.1,5.5l5.4,2.4c2,1,4.5,0.2,5.5-1.9l8.6-17c1-2,0.2-4.5-1.8-5.5l-7.1-3.2
		c-2.1-1-4.5,0-5.3,2.1L356.7,88.3z"/>
	<path fill="#004371" d="M338.7,81.7c-0.7,2.2,0.5,4.5,2.6,5.2l5.5,2c2.1,0.8,4.5-0.3,5.4-2.4l7.1-17.7c0.8-2.1-0.2-4.5-2.3-5.3
		l-7.3-2.7c-2.1-0.7-4.5,0.5-5.2,2.6L338.7,81.7z"/>
	<path fill="#004371" d="M320.3,76.6c-0.5,2.2,0.9,4.5,3.1,5l5.7,1.4c2.2,0.6,4.5-0.7,5.1-2.9l5.4-18.3c0.6-2.2-0.6-4.4-2.8-5
		l-7.5-1.9c-2.2-0.6-4.4,0.8-4.9,3L320.3,76.6z"/>
	<path fill="#004371" d="M301.4,73.3c-0.3,2.2,1.3,4.3,3.5,4.6l5.8,1c2.2,0.4,4.4-1.1,4.8-3.3l3.7-18.7c0.4-2.2-1-4.4-3.2-4.8
		l-7.6-1.3c-2.2-0.3-4.3,1.3-4.6,3.5L301.4,73.3z"/>
	<path fill="#004371" d="M282.3,71.6c-0.1,2.3,1.7,4.2,3.9,4.4l5.9,0.5c2.3,0.2,4.3-1.5,4.5-3.8l2-19c0.2-2.2-1.4-4.2-3.7-4.4
		l-7.7-0.6c-2.3-0.1-4.2,1.6-4.3,3.8L282.3,71.6z"/>
	<path fill="#004371" d="M299.3,87.6c0.3-2.2-1.3-4.2-3.6-4.4l-8.3-0.9c-2.3-0.1-4.2,1.6-4.3,3.9l-0.9,19.1
		c-0.1,2.3,1.7,4.2,3.9,4.3l6.1,0.7c2.2,0.2,4.3-1.5,4.6-3.7L299.3,87.6z"/>
	<path fill="#004371" d="M320.6,91.5c0.5-2.2-0.8-4.4-3-4.9l-8.2-1.5c-2.2-0.4-4.3,1.1-4.7,3.3l-3,18.9c-0.3,2.2,1.2,4.4,3.4,4.8
		l6,1.1c2.2,0.5,4.4-0.9,5-3.1L320.6,91.5z"/>
	<path fill="#004371" d="M341.3,97.7c0.8-2.1-0.3-4.5-2.5-5.2l-8-2.4c-2.2-0.7-4.4,0.6-5,2.8l-5,18.4c-0.6,2.2,0.7,4.5,2.9,5.2
		l5.9,1.7c2.1,0.7,4.5-0.4,5.3-2.5L341.3,97.7z"/>
	<path fill="#004371" d="M361.1,106.2c1-2,0.1-4.5-1.9-5.4l-7.6-3.3c-2.1-0.9-4.5,0.1-5.3,2.2l-7,17.8c-0.8,2.1,0.2,4.5,2.3,5.4
		l5.6,2.4c2,1,4.5,0.1,5.5-1.9L361.1,106.2z"/>
	<path fill="#004371" d="M380,116.8c1.2-1.9,0.6-4.4-1.3-5.6l-7.2-4.2c-2-1.1-4.5-0.3-5.5,1.7l-8.9,16.9c-1.1,2-0.3,4.5,1.7,5.6
		l5.2,3.1c1.9,1.2,4.5,0.6,5.7-1.3L380,116.8z"/>
	<path fill="#004371" d="M397.6,129.4c1.4-1.8,1.1-4.3-0.7-5.7l-6.6-5.1c-1.9-1.3-4.4-0.8-5.7,1.1l-10.7,15.8
		c-1.3,1.9-0.8,4.5,1.1,5.7l4.8,3.7c1.8,1.4,4.4,1,5.9-0.7L397.6,129.4z"/>
	<path fill="#004371" d="M413.7,143.8c1.6-1.6,1.6-4.2-0.1-5.7l-6.1-5.7c-1.7-1.5-4.3-1.3-5.7,0.4l-12.3,14.6
		c-1.5,1.7-1.3,4.3,0.4,5.8l4.4,4.2c1.6,1.5,4.3,1.5,5.9-0.1L413.7,143.8z"/>
	<path fill="#004371" d="M428.1,159.8c1.8-1.4,2-4,0.6-5.7l-5.5-6.2c-1.5-1.7-4.1-1.8-5.7-0.2l-13.8,13.2c-1.6,1.6-1.7,4.2-0.2,5.9
		l4.1,4.6c1.4,1.7,4.1,2,5.8,0.6L428.1,159.8z"/>
	<path fill="#004371" d="M440.8,177.3c1.9-1.2,2.4-3.8,1.2-5.6l-4.9-6.7c-1.3-1.8-3.8-2.2-5.6-0.9l-15.2,11.6
		c-1.8,1.4-2.2,4-0.9,5.8l3.7,4.9c1.2,1.9,3.8,2.4,5.7,1.2L440.8,177.3z"/>
	<path fill="#004371" d="M386.8,192.3c-1.8,1.4-2.1,4.1-0.7,5.9l3.9,5.2c1.3,1.9,3.9,2.4,5.8,1.1l16-10.5c1.9-1.2,2.4-3.8,1.1-5.6
		l-5.5-7.5c-1.4-1.8-3.9-2.1-5.7-0.7L386.8,192.3z"/>
	<path fill="#004371" d="M373,177.6c-1.5,1.7-1.5,4.3,0.1,5.9l4.5,4.7c1.5,1.7,4.2,1.8,5.9,0.3l14.4-12.6c1.7-1.5,1.8-4.1,0.3-5.7
		l-6.4-6.7c-1.6-1.6-4.2-1.5-5.7,0.1L373,177.6z"/>
	<path fill="#004371" d="M357.4,164.9c-1.3,1.8-0.9,4.5,0.9,5.8l5.1,4c1.7,1.4,4.4,1.2,5.9-0.5l12.5-14.4c1.5-1.7,1.3-4.3-0.5-5.7
		l-7.4-5.7c-1.8-1.3-4.4-0.9-5.7,0.9L357.4,164.9z"/>
	<path fill="#004371" d="M340.1,154.4c-1,2-0.3,4.5,1.7,5.6l5.6,3.3c1.9,1.2,4.5,0.6,5.7-1.3l10.4-16c1.2-1.9,0.7-4.4-1.3-5.6
		l-8-4.7c-2-1.1-4.4-0.3-5.5,1.7L340.1,154.4z"/>
	<path fill="#004371" d="M321.6,146.5c-0.7,2.1,0.4,4.5,2.5,5.3l6,2.5c2.1,0.9,4.5,0,5.5-2.1l8.1-17.3c1-2,0.1-4.5-2-5.4l-8.6-3.5
		c-2.1-0.8-4.5,0.3-5.2,2.5L321.6,146.5z"/>
	<path fill="#004371" d="M302.2,141.3c-0.4,2.2,1,4.4,3.2,5l6.3,1.5c2.2,0.6,4.5-0.7,5.2-2.8l5.6-18.3c0.7-2.2-0.6-4.4-2.7-5
		l-9.1-2.2c-2.2-0.5-4.4,0.9-4.8,3.1L302.2,141.3z"/>
	<path fill="#004371" d="M282.2,138.7c-0.1,2.3,1.6,4.2,3.9,4.4l6.4,0.8c2.2,0.3,4.4-1.3,4.7-3.5l3-18.8c0.4-2.2-1.2-4.3-3.4-4.6
		l-9.3-1.1c-2.2-0.2-4.2,1.5-4.3,3.8L282.2,138.7z"/>
	<path fill="#004371" d="M301.8,156.5c0.5-2.2-0.9-4.3-3.2-4.7l-10.9-1.7c-2.2-0.2-4.2,1.4-4.4,3.7l-1.4,19
		c-0.2,2.3,1.5,4.3,3.8,4.5l7,1.1c2.2,0.4,4.4-1.1,4.9-3.3L301.8,156.5z"/>
	<path fill="#004371" d="M325.4,164.1c0.9-2.1-0.1-4.4-2.2-5.3l-10.4-3.6c-2.2-0.7-4.4,0.6-5,2.8l-5,18.4c-0.6,2.2,0.7,4.5,2.9,5.2
		l6.7,2.3c2.1,0.8,4.6-0.2,5.4-2.3L325.4,164.1z"/>
	<path fill="#004371" d="M347.2,176c1.3-1.9,0.7-4.4-1.2-5.6l-9.5-5.5c-2-1.1-4.4-0.3-5.4,1.8l-8.4,17.2c-1,2-0.2,4.6,1.8,5.6
		l6.2,3.5c1.9,1.2,4.5,0.7,5.8-1.2L347.2,176z"/>
	<path fill="#004371" d="M366.3,191.9c1.6-1.6,1.5-4.2-0.1-5.7l-8.2-7.3c-1.8-1.4-4.3-1.1-5.7,0.7l-11.5,15.3
		c-1.4,1.8-1,4.4,0.7,5.8l5.3,4.7c1.7,1.5,4.3,1.5,5.9-0.1L366.3,191.9z"/>
	<path fill="#004371" d="M382.1,211c1.9-1.3,2.3-3.8,1-5.6l-6.9-8.6c-1.4-1.7-4-1.9-5.7-0.4l-14.1,12.8c-1.7,1.5-1.9,4.2-0.4,5.9
		l4.5,5.5c1.3,1.8,3.9,2.3,5.8,1L382.1,211z"/>
	<path fill="#004371" d="M403.4,373c2.3,0,4.1-1.8,4.1-4.1l0-7.2c0-2.3-1.8-4.1-4.1-4.1l-19,0c-2.3,0-4.1,1.8-4.1,4.1l0,7.2
		c0,2.3,1.8,4.1,4.1,4.1L403.4,373z"/>
	<path fill="#004371" d="M485.4,459.9c-2.2,0-4.1,1.8-4.1,4.1l0,7.2c0,2.3,1.8,4.1,4.1,4.1l19,0c2.3,0,4.1-1.8,4.1-4.1l0-7.2
		c0-2.2-1.8-4.1-4.1-4.1L485.4,459.9z"/>
	<path fill="#004371" d="M485.4,439.5c-2.2,0-4.1,1.8-4.1,4.1l0,7.2c0,2.3,1.8,4.1,4.1,4.1l19,0c2.3,0,4.1-1.8,4.1-4.1l0-7.2
		c0-2.2-1.8-4.1-4.1-4.1L485.4,439.5z"/>
	<path fill="#004371" d="M485.4,419c-2.2,0-4.1,1.8-4.1,4.1l0,7.2c0,2.3,1.8,4.1,4.1,4.1l19,0c2.3,0,4.1-1.8,4.1-4.1l0-7.2
		c0-2.3-1.8-4.1-4.1-4.1L485.4,419z"/>
	<path fill="#004371" d="M485.3,398.6c-2.2,0-4.1,1.8-4.1,4.1l0,7.2c0,2.3,1.8,4.1,4.1,4.1l19,0c2.3,0,4.1-1.8,4.1-4.1l0-7.2
		c0-2.2-1.8-4.1-4.1-4.1L485.3,398.6z"/>
	<path fill="#004371" d="M485.3,378.1c-2.2,0-4.1,1.8-4.1,4.1l0,7.2c0,2.3,1.8,4.1,4.1,4.1l19,0c2.3,0,4.1-1.8,4.1-4.1l0-7.2
		c0-2.2-1.8-4.1-4.1-4.1L485.3,378.1z"/>
	<path fill="#004371" d="M485.3,357.6c-2.2,0-4.1,1.8-4.1,4.1l0,7.2c0,2.3,1.8,4.1,4.1,4.1l19,0c2.3,0,4.1-1.8,4.1-4.1l0-7.2
		c0-2.2-1.8-4.1-4.1-4.1L485.3,357.6z"/>
	<path fill="#004371" d="M418.2,459.9c-2.2,0-4.1,1.8-4.1,4.1l0,7.2c0,2.3,1.8,4.1,4.1,4.1l19,0c2.3,0,4.1-1.8,4.1-4.1l0-7.2
		c0-2.2-1.8-4.1-4.1-4.1L418.2,459.9z"/>
	<path fill="#004371" d="M418.2,439.4c-2.2,0-4.1,1.8-4.1,4.1l0,7.2c0,2.3,1.8,4.1,4.1,4.1l19,0c2.3,0,4.1-1.8,4.1-4.1l0-7.2
		c0-2.2-1.8-4.1-4.1-4.1L418.2,439.4z"/>
	<path fill="#004371" d="M384.4,459.9c-2.2,0-4.1,1.8-4.1,4.1l0,7.2c0,2.3,1.8,4.1,4.1,4.1l19,0c2.3,0,4.1-1.8,4.1-4.1l0-7.2
		c0-2.2-1.8-4.1-4.1-4.1L384.4,459.9z"/>
	<path fill="#004371" d="M384.4,439.4c-2.2,0-4.1,1.8-4.1,4.1l0,7.2c0,2.3,1.8,4.1,4.1,4.1l19,0c2.3,0,4.1-1.8,4.1-4.1l0-7.2
		c0-2.2-1.8-4.1-4.1-4.1L384.4,439.4z"/>
	<path fill="#004371" d="M418.2,419c-2.2,0-4.1,1.8-4.1,4.1l0,7.2c0,2.3,1.8,4.1,4.1,4.1l19,0c2.3,0,4.1-1.8,4.1-4.1l0-7.2
		c0-2.2-1.8-4.1-4.1-4.1L418.2,419z"/>
	<path fill="#004371" d="M418.3,398.5c-2.2,0-4.1,1.8-4.1,4.1l0,7.2c0,2.3,1.8,4.1,4.1,4.1l19,0c2.3,0,4.1-1.8,4.1-4.1l0-7.2
		c0-2.2-1.8-4.1-4.1-4.1L418.3,398.5z"/>
	<path fill="#004371" d="M418.3,378c-2.2,0-4.1,1.8-4.1,4.1l0,7.2c0,2.3,1.8,4.1,4.1,4.1l19,0c2.3,0,4.1-1.8,4.1-4.1l0-7.2
		c0-2.2-1.8-4.1-4.1-4.1L418.3,378z"/>
	<path fill="#004371" d="M418.3,357.6c-2.2,0-4.1,1.8-4.1,4.1l0,7.2c0,2.3,1.8,4.1,4.1,4.1l19,0c2.3,0,4.1-1.8,4.1-4.1l0-7.2
		c0-2.2-1.8-4.1-4.1-4.1L418.3,357.6z"/>
	<path fill="#004371" d="M470.8,373c2.2,0,4.1-1.8,4.1-4.1l0-7.2c0-2.3-1.8-4.1-4.1-4.1l-19,0c-2.3,0-4.1,1.8-4.1,4.1l0,7.2
		c0,2.2,1.8,4.1,4.1,4.1L470.8,373z"/>
	<path fill="#004371" d="M470.8,393.4c2.2,0,4.1-1.8,4.1-4.1l0-7.2c0-2.3-1.8-4.1-4.1-4.1l-19,0c-2.3,0-4.1,1.8-4.1,4.1l0,7.2
		c0,2.2,1.8,4.1,4.1,4.1L470.8,393.4z"/>
	<path fill="#004371" d="M470.8,413.9c2.2,0,4.1-1.8,4.1-4.1l0-7.2c0-2.3-1.8-4.1-4.1-4.1l-19,0c-2.3,0-4.1,1.8-4.1,4.1l0,7.2
		c0,2.2,1.8,4.1,4.1,4.1L470.8,413.9z"/>
	<path fill="#004371" d="M470.8,434.3c2.2,0,4.1-1.8,4.1-4.1l0-7.2c0-2.3-1.8-4.1-4.1-4.1l-19,0c-2.3,0-4.1,1.8-4.1,4.1l0,7.2
		c0,2.2,1.8,4.1,4.1,4.1L470.8,434.3z"/>
	<path fill="#004371" d="M470.8,454.8c2.2,0,4.1-1.8,4.1-4.1l0-7.2c0-2.3-1.8-4.1-4.1-4.1l-19,0c-2.3,0-4.1,1.8-4.1,4.1l0,7.2
		c0,2.2,1.8,4.1,4.1,4.1L470.8,454.8z"/>
	<path fill="#004371" d="M470.8,475.2c2.2,0,4.1-1.8,4.1-4.1l0-7.2c0-2.3-1.8-4.1-4.1-4.1l-19,0c-2.3,0-4.1,1.8-4.1,4.1l0,7.2
		c0,2.2,1.8,4.1,4.1,4.1L470.8,475.2z"/>
	<path fill="#004371" d="M403.4,393.4c2.2,0,4.1-1.8,4.1-4.1l0-7.2c0-2.3-1.8-4.1-4.1-4.1l-19,0c-2.3,0-4.1,1.8-4.1,4.1l0,7.2
		c0,2.2,1.8,4.1,4.1,4.1L403.4,393.4z"/>
	<path fill="#004371" d="M403.4,413.9c2.2,0,4.1-1.8,4.1-4.1l0-7.2c0-2.3-1.8-4.1-4.1-4.1l-19,0c-2.3,0-4.1,1.8-4.1,4.1l0,7.2
		c0,2.2,1.8,4.1,4.1,4.1L403.4,413.9z"/>
	<path fill="#004371" d="M403.4,434.3c2.2,0,4.1-1.8,4.1-4.1l0-7.2c0-2.3-1.8-4.1-4.1-4.1l-19,0c-2.3,0-4.1,1.8-4.1,4.1l0,7.2
		c0,2.2,1.8,4.1,4.1,4.1L403.4,434.3z"/>
	<path fill="#004371" d="M485.2,307.3c-2.2,0-4.1,1.8-4.1,4.1l0,8c0,2.2,1.8,4.1,4.1,4.1l19,0c2.3,0,4.1-1.8,4.1-4.1l0-8
		c0-2.2-1.8-4.1-4.1-4.1L485.2,307.3z"/>
	<path fill="#004371" d="M485.1,285.8c-2.2,0-4.1,1.8-4.1,4.1l0,8c0,2.2,1.8,4.1,4.1,4.1l19,0c2.2,0,4.1-1.8,4.1-4.1l0-8
		c0-2.2-1.8-4.1-4.1-4.1L485.1,285.8z"/>
	<path fill="#004371" d="M484.1,265.1c-2.2,0.2-3.9,2.2-3.7,4.5l0.5,7c0.1,2.2,2,4,4.2,4l19-0.4c2.2-0.1,4-1.9,4-4.2l-0.6-9
		c-0.2-2.2-2.2-3.9-4.4-3.7L484.1,265.1z"/>
	<path fill="#004371" d="M481.2,244.7c-2.2,0.4-3.7,2.6-3.3,4.8l1.1,6.9c0.3,2.2,2.4,3.8,4.6,3.6l18.9-2.3c2.2-0.3,3.8-2.3,3.5-4.5
		l-1.4-8.9c-0.4-2.2-2.5-3.7-4.7-3.3L481.2,244.7z"/>
	<path fill="#004371" d="M476.2,224.7c-2.2,0.6-3.4,2.9-2.8,5.1l1.7,6.8c0.5,2.2,2.8,3.6,5,3.1l18.6-4.1c2.2-0.5,3.6-2.7,3-4.9
		l-2.2-8.7c-0.6-2.2-2.9-3.4-5.1-2.8L476.2,224.7z"/>
	<path fill="#004371" d="M469.4,205.2c-2.1,0.9-3.1,3.3-2.4,5.4l2.6,6.5c0.7,2.1,3,3.3,5.2,2.6l18.1-5.9c2.1-0.7,3.3-3,2.6-5.2
		l-3.2-8.4c-0.8-2.1-3.1-3.1-5.2-2.3L469.4,205.2z"/>
	<path fill="#004371" d="M460.7,186.5c-2,1-2.8,3.5-1.8,5.6l2.9,6.4c1,2,3.5,2.9,5.5,2l17.4-7.6c2.1-0.9,3-3.3,2-5.3l-3.8-8.2
		c-1-2-3.5-2.8-5.5-1.7L460.7,186.5z"/>
	<path fill="#004371" d="M514,175.4c2-0.9,2.9-3.3,1.9-5.4l-3.8-7.6c-1-2-3.4-2.8-5.4-1.7l-16.8,9c-2,1.1-2.8,3.6-1.8,5.6l3,6.1
		c1,2,3.5,2.9,5.5,2L514,175.4z"/>
	<path fill="#004371" d="M522.2,195.7c2.1-0.8,3.2-3.1,2.4-5.2l-3.1-7.9c-0.9-2.1-3.3-3-5.4-2.1l-17.5,7.6c-2.1,0.9-3,3.3-2.1,5.4
		l2.4,6.3c0.8,2.1,3.2,3.2,5.3,2.4L522.2,195.7z"/>
	<path fill="#004371" d="M528.8,216.6c2.2-0.6,3.5-2.8,2.9-5l-2.6-8.1c-0.6-2.2-2.9-3.3-5.1-2.6l-18,6.1c-2.1,0.7-3.4,3.1-2.7,5.2
		l2.1,6.5c0.6,2.2,2.8,3.5,5,2.9L528.8,216.6z"/>
	<path fill="#004371" d="M533.6,238c2.2-0.4,3.6-2.5,3.2-4.7l-1.7-8.3c-0.5-2.2-2.7-3.5-4.9-3l-18.5,4.6c-2.2,0.5-3.6,2.8-3,5
		l1.3,6.7c0.5,2.2,2.7,3.7,4.9,3.3L533.6,238z"/>
	<path fill="#004371" d="M536.6,259.7c2.2-0.2,3.9-2.2,3.6-4.5l-1.1-8.4c-0.3-2.2-2.4-3.8-4.7-3.4l-18.8,3c-2.2,0.4-3.8,2.5-3.4,4.7
		l0.8,6.8c0.2,2.2,2.3,3.9,4.5,3.7L536.6,259.7z"/>
	<path fill="#004371" d="M537.8,281.6c2.2,0,4.1-1.9,4-4.1l-0.5-8.5c-0.1-2.2-2-4-4.3-3.8l-19,1.4c-2.2,0.2-4,2.1-3.9,4.4l0.5,6.8
		c0,2.2,1.9,4.1,4.1,4L537.8,281.6z"/>
	<path fill="#004371" d="M418.4,304.8c-2.3,0-4.1,1.8-4.1,4.1l0,9.1c0,2.2,1.8,4.1,4.1,4.1l19,0c2.2,0,4.1-1.8,4.1-4.1l0-9.1
		c0-2.3-1.8-4.1-4.1-4.1L418.4,304.8z"/>
	<path fill="#004371" d="M418.3,282.1c-2.2,0.1-4.1,1.9-4.1,4.2l0.1,8.7c0,2.2,1.8,4.1,4.1,4.1l19,0c2.3,0,4.1-1.8,4.1-4.1l-0.1-9.4
		c0-2.3-1.9-4.1-4.1-4L418.3,282.1z"/>
	<path fill="#004371" d="M416.2,260.6c-2.2,0.4-3.8,2.5-3.5,4.7l0.9,7.5c0.2,2.2,2.2,4,4.5,3.8l19-1.1c2.2-0.1,3.9-2.1,3.7-4.3
		l-1.2-10.5c-0.3-2.2-2.4-3.7-4.6-3.4L416.2,260.6z"/>
	<path fill="#004371" d="M411,239.7c-2.1,0.7-3.3,3.1-2.7,5.2l1.9,7.3c0.5,2.2,2.7,3.6,4.9,3.1l18.6-3.9c2.2-0.5,3.6-2.6,3.1-4.8
		l-2.7-10.2c-0.7-2.2-2.9-3.3-5.1-2.6L411,239.7z"/>
	<path fill="#004371" d="M402.8,219.8c-2,1-2.9,3.5-1.9,5.6l3,6.9c0.9,2.1,3.3,3.1,5.4,2.4l17.8-6.7c2.1-0.8,3.1-3.1,2.3-5.2
		l-4.2-9.7c-1-2-3.4-2.9-5.4-1.9L402.8,219.8z"/>
	<path fill="#004371" d="M455.9,210.3c2.1-0.9,3-3.2,2.1-5.3l-3.9-8.8c-1-2-3.5-2.8-5.5-1.8l-16.9,8.8c-2,1-2.8,3.5-1.8,5.5l2.9,6.6
		c0.9,2.1,3.4,3,5.5,2.2L455.9,210.3z"/>
	<path fill="#004371" d="M463.4,232.3c2.2-0.6,3.4-2.9,2.7-5l-2.9-9.2c-0.8-2.1-3.1-3.2-5.2-2.4l-17.8,6.7c-2.1,0.8-3.2,3.2-2.4,5.3
		l2.1,6.9c0.7,2.1,3,3.4,5.2,2.8L463.4,232.3z"/>
	<path fill="#004371" d="M468.3,255c2.2-0.3,3.7-2.4,3.3-4.6l-1.7-9.5c-0.5-2.2-2.7-3.5-4.9-3l-18.5,4.6c-2.2,0.5-3.6,2.8-3.1,5
		l1.3,7.1c0.4,2.2,2.6,3.7,4.8,3.4L468.3,255z"/>
	<path fill="#004371" d="M470.5,278.2c2.2-0.1,4-2,3.8-4.2l-0.6-9.6c-0.2-2.2-2.3-3.8-4.5-3.6l-18.9,2.4c-2.2,0.3-3.9,2.3-3.6,4.6
		l0.4,7.2c0.2,2.2,2.1,4,4.4,3.9L470.5,278.2z"/>
	<path fill="#004371" d="M470.7,300.7c2.3,0,4.1-1.8,4.1-4.1l-0.1-8.5c0-2.3-1.8-4.1-4.1-4.1l-19,0.1c-2.2,0-4.1,1.9-4.1,4.1l0,8.4
		c0,2.2,1.8,4.1,4.1,4.1L470.7,300.7z"/>
	<path fill="#004371" d="M470.7,322.9c2.3,0,4.1-1.8,4.1-4.1l0-8.4c0-2.2-1.8-4.1-4.1-4.1l-19,0c-2.2,0-4.1,1.8-4.1,4.1l0,8.4
		c0,2.2,1.8,4.1,4.1,4.1L470.7,322.9z"/>
	<path fill="#004371" d="M397.5,246.4c2.1-0.7,3.3-3,2.5-5.1l-4.3-11.1c-0.9-2.1-3.3-2.9-5.3-1.9l-17.1,8.3c-2,1-2.9,3.5-2,5.5
		l2.8,7.3c0.8,2.1,3.2,3.3,5.3,2.6L397.5,246.4z"/>
	<path fill="#004371" d="M402.7,271.8c2.2-0.2,3.8-2.2,3.5-4.5l-2.1-11.7c-0.5-2.2-2.7-3.5-4.8-3l-18.4,4.8c-2.2,0.6-3.6,2.8-3.1,5
		l1.4,7.7c0.3,2.2,2.4,3.9,4.6,3.6L402.7,271.8z"/>
	<path fill="#004371" d="M403.4,296.9c2.2,0,4.1-1.8,4.1-4.1l-0.2-10.6c0-2.2-1.9-4-4.2-3.9l-19,1c-2.2,0.1-4.1,2.1-4,4.3l0.1,9.1
		c0,2.2,1.8,4.1,4.1,4.1L403.4,296.9z"/>
	<path fill="#004371" d="M403.4,321c2.3,0,4.1-1.8,4.1-4.1l0-9.9c0-2.2-1.8-4.1-4.1-4.1h-19c-2.2,0-4.1,1.8-4.1,4.1v9.9
		c0,2.2,1.8,4.1,4.1,4.1L403.4,321z"/>
	<path fill="#004371" d="M485.2,329.6c-2.2,0-4.1,1.8-4.1,4.1l0,8c0,2.2,1.8,4.1,4.1,4.1l19,0c2.3,0,4.1-1.8,4.1-4.1l0-8
		c0-2.2-1.8-4.1-4.1-4.1L485.2,329.6z"/>
	<path fill="#004371" d="M418.4,327.1c-2.3,0-4.1,1.8-4.1,4.1l0,9.1c0,2.2,1.8,4.1,4.1,4.1l19,0c2.2,0,4.1-1.8,4.1-4.1l0-9.1
		c0-2.3-1.8-4.1-4.1-4.1L418.4,327.1z"/>
	<path fill="#004371" d="M470.7,345.1c2.3,0,4.1-1.8,4.1-4.1l0-8.4c0-2.2-1.8-4.1-4.1-4.1l-19,0c-2.2,0-4.1,1.8-4.1,4.1l0,8.4
		c0,2.2,1.8,4.1,4.1,4.1L470.7,345.1z"/>
	<path fill="#004371" d="M403.4,343.2c2.3,0,4.1-1.8,4.1-4.1l0-9.9c0-2.2-1.8-4.1-4.1-4.1h-19c-2.2,0-4.1,1.8-4.1,4.1v9.9
		c0,2.2,1.8,4.1,4.1,4.1L403.4,343.2z"/>
	<path fill="#004371" d="M249.7,19.7c-0.2-2.2,1.5-4.2,3.7-4.4l7.3-0.5c2.3-0.1,4.2,1.6,4.2,3.8l0.7,19.1c0.1,2.3-1.7,4.2-4,4.4
		l-5.7,0.4c-2.3,0.1-4.3-1.6-4.5-3.8L249.7,19.7z"/>
	<path fill="#004371" d="M229.5,22.3c-0.4-2.2,1.1-4.3,3.4-4.6l7.2-1.1c2.2-0.3,4.3,1.4,4.5,3.6l2.1,19c0.2,2.2-1.4,4.3-3.6,4.6
		l-5.7,0.9c-2.2,0.3-4.4-1.3-4.8-3.5L229.5,22.3z"/>
	<path fill="#004371" d="M209.6,26.5c-0.5-2.2,0.8-4.4,3-4.9l7.1-1.6c2.2-0.4,4.4,1.1,4.8,3.3l3.6,18.8c0.4,2.2-1.1,4.4-3.3,4.8
		l-5.6,1.3c-2.2,0.5-4.5-0.9-5-3.1L209.6,26.5z"/>
	<path fill="#004371" d="M190,32.3c-0.7-2.1,0.4-4.5,2.6-5.2l7-2c2.2-0.6,4.4,0.6,5,2.8l5,18.4c0.6,2.2-0.7,4.5-2.9,5.1l-5.5,1.6
		c-2.1,0.7-4.5-0.4-5.2-2.6L190,32.3z"/>
	<path fill="#004371" d="M170.9,39.4c-0.9-2.1,0.1-4.5,2.2-5.3l6.8-2.6c2.1-0.8,4.4,0.2,5.2,2.4l6.4,18c0.8,2.1-0.3,4.5-2.4,5.4
		l-5.4,2c-2.1,0.9-4.5-0.1-5.4-2.2L170.9,39.4z"/>
	<path fill="#004371" d="M134.7,58.2c-1.2-1.9-0.6-4.4,1.4-5.6l6.3-3.7c2-1.1,4.5-0.3,5.6,1.7l9.1,16.8c1.1,2,0.3,4.5-1.7,5.6
		l-4.9,3c-1.9,1.2-4.5,0.5-5.7-1.4L134.7,58.2z"/>
	<path fill="#004371" d="M117.8,69.6c-1.3-1.8-0.9-4.4,0.9-5.7l6.1-4.1c1.9-1.3,4.4-0.7,5.6,1.1l10.4,16c1.2,1.9,0.7,4.5-1.2,5.8
		l-4.8,3.2c-1.8,1.3-4.4,0.9-5.7-0.9L117.8,69.6z"/>
	<path fill="#004371" d="M101.8,82.2c-1.5-1.7-1.2-4.3,0.5-5.7l5.7-4.6c1.8-1.4,4.3-1.1,5.7,0.7l11.6,15.2c1.4,1.8,1,4.4-0.7,5.9
		l-4.5,3.6c-1.8,1.4-4.4,1.2-5.9-0.5L101.8,82.2z"/>
	<path fill="#004371" d="M86.8,96c-1.6-1.6-1.6-4.2,0.1-5.7l5.3-5.1c1.7-1.5,4.3-1.3,5.8,0.3l12.7,14.3c1.5,1.7,1.3,4.3-0.3,5.8
		l-4.1,4c-1.6,1.5-4.3,1.5-5.9-0.1L86.8,96z"/>
	<path fill="#004371" d="M73,111c-1.7-1.5-1.9-4.1-0.4-5.8l4.9-5.4c1.6-1.6,4.2-1.7,5.8-0.1L97,112.9c1.6,1.6,1.7,4.2,0.1,5.8
		l-3.9,4.3c-1.5,1.7-4.1,1.9-5.8,0.4L73,111z"/>
	<path fill="#004371" d="M60.3,126.9c-1.8-1.3-2.2-3.9-0.9-5.8l4.6-5.7c1.4-1.8,3.9-2.1,5.7-0.6L84.4,127c1.7,1.4,2,4.1,0.6,5.9
		l-3.7,4.4c-1.3,1.8-3.9,2.2-5.7,0.9L60.3,126.9z"/>
	<path fill="#004371" d="M48.7,143.7c-1.9-1.2-2.5-3.7-1.2-5.6l4.1-6.1c1.3-1.9,3.8-2.4,5.6-1l15.6,11c1.8,1.3,2.3,3.9,1.1,5.8
		l-3.2,4.8c-1.3,1.9-3.8,2.4-5.8,1.2L48.7,143.7z"/>
	<path fill="#004371" d="M102.4,158.9c1.8,1.3,2.3,3.9,1,5.8l-3.4,4.8c-1.2,1.9-3.8,2.4-5.7,1.2l-16.2-10.2
		c-1.9-1.2-2.5-3.7-1.2-5.6l4.4-6.3c1.3-1.9,3.8-2.3,5.6-1L102.4,158.9z"/>
	<path fill="#004371" d="M114.4,144c1.7,1.5,1.9,4.1,0.4,5.8l-3.7,4.6c-1.4,1.8-4,2.1-5.8,0.7l-15.2-11.6c-1.8-1.4-2.1-3.9-0.7-5.7
		l4.9-6c1.5-1.7,4.1-1.9,5.8-0.4L114.4,144z"/>
	<path fill="#004371" d="M127.6,130.2c1.6,1.6,1.5,4.3,0,5.9l-4.2,4.1c-1.6,1.6-4.2,1.7-5.9,0.2l-14.1-12.9
		c-1.7-1.5-1.8-4.1-0.2-5.8l5.5-5.4c1.6-1.6,4.2-1.6,5.7,0.1L127.6,130.2z"/>
	<path fill="#004371" d="M142.1,117.6c1.4,1.8,1.1,4.4-0.7,5.8l-4.4,3.9c-1.7,1.5-4.3,1.3-5.9-0.3l-12.9-14.1
		c-1.5-1.7-1.4-4.3,0.3-5.7l5.8-5c1.8-1.4,4.4-1.1,5.8,0.6L142.1,117.6z"/>
	<path fill="#004371" d="M157.6,106.3c1.2,1.9,0.7,4.5-1.1,5.8l-4.9,3.3c-1.8,1.3-4.4,1-5.8-0.8l-11.5-15.2c-1.4-1.8-1-4.4,0.8-5.7
		l6.4-4.4c1.8-1.3,4.4-0.8,5.6,1.1L157.6,106.3z"/>
	<path fill="#004371" d="M174.1,96.6c1.1,2,0.3,4.5-1.7,5.6l-5,3c-1.9,1.2-4.5,0.5-5.7-1.4l-10.1-16.2c-1.2-1.9-0.6-4.4,1.3-5.6
		l6.6-3.9c2-1.1,4.5-0.3,5.5,1.7L174.1,96.6z"/>
	<path fill="#004371" d="M191.3,88.3c0.9,2.1-0.1,4.6-2.1,5.5l-5.4,2.4c-2,1-4.5,0.2-5.5-1.9l-8.6-17c-1-2-0.2-4.5,1.8-5.5l7.1-3.2
		c2.1-1,4.5,0,5.3,2.1L191.3,88.3z"/>
	<path fill="#004371" d="M209.3,81.7c0.7,2.2-0.5,4.5-2.6,5.2l-5.5,2c-2.1,0.8-4.5-0.3-5.4-2.4l-7.1-17.7c-0.8-2.1,0.2-4.5,2.3-5.3
		l7.3-2.7c2.1-0.7,4.5,0.5,5.2,2.6L209.3,81.7z"/>
	<path fill="#004371" d="M227.8,76.6c0.5,2.2-0.9,4.5-3.1,5L219,83c-2.2,0.6-4.5-0.7-5.1-2.9l-5.4-18.3c-0.6-2.2,0.6-4.4,2.8-5
		l7.5-1.9c2.2-0.6,4.4,0.8,4.9,3L227.8,76.6z"/>
	<path fill="#004371" d="M246.6,73.3c0.3,2.2-1.3,4.3-3.5,4.6l-5.8,1c-2.2,0.4-4.4-1.1-4.8-3.3l-3.7-18.7c-0.4-2.2,1-4.4,3.2-4.8
		l7.6-1.3c2.2-0.3,4.3,1.3,4.6,3.5L246.6,73.3z"/>
	<path fill="#004371" d="M265.7,71.6c0.1,2.3-1.7,4.2-3.9,4.4l-5.9,0.5c-2.3,0.2-4.3-1.5-4.5-3.8l-2-19c-0.2-2.2,1.4-4.2,3.7-4.4
		l7.7-0.6c2.3-0.1,4.2,1.6,4.3,3.8L265.7,71.6z"/>
	<path fill="#004371" d="M248.7,87.6c-0.3-2.2,1.3-4.2,3.6-4.4l8.3-0.9c2.3-0.1,4.2,1.6,4.3,3.9l0.9,19.1c0.1,2.3-1.7,4.2-3.9,4.3
		l-6.1,0.7c-2.2,0.2-4.3-1.5-4.6-3.7L248.7,87.6z"/>
	<path fill="#004371" d="M227.5,91.5c-0.5-2.2,0.8-4.4,3-4.9l8.2-1.5c2.2-0.4,4.3,1.1,4.7,3.3l3,18.9c0.3,2.2-1.2,4.4-3.4,4.8
		l-6,1.1c-2.2,0.5-4.4-0.9-5-3.1L227.5,91.5z"/>
	<path fill="#004371" d="M206.8,97.7c-0.8-2.1,0.3-4.5,2.5-5.2l8-2.4c2.2-0.7,4.4,0.6,5,2.8l5,18.4c0.6,2.2-0.7,4.5-2.9,5.2
		l-5.9,1.7c-2.1,0.7-4.5-0.4-5.3-2.5L206.8,97.7z"/>
	<path fill="#004371" d="M186.9,106.2c-1-2-0.1-4.5,1.9-5.4l7.6-3.3c2.1-0.9,4.5,0.1,5.3,2.2l7,17.8c0.8,2.1-0.2,4.5-2.3,5.4
		l-5.6,2.4c-2,1-4.5,0.1-5.5-1.9L186.9,106.2z"/>
	<path fill="#004371" d="M168.1,116.8c-1.2-1.9-0.6-4.4,1.3-5.6l7.2-4.2c2-1.1,4.5-0.3,5.5,1.7l8.9,16.9c1.1,2,0.3,4.5-1.7,5.6
		l-5.2,3.1c-1.9,1.2-4.5,0.6-5.7-1.3L168.1,116.8z"/>
	<path fill="#004371" d="M150.5,129.4c-1.4-1.8-1.1-4.3,0.7-5.7l6.6-5.1c1.9-1.3,4.4-0.8,5.7,1.1l10.7,15.8c1.3,1.9,0.8,4.5-1.1,5.7
		l-4.8,3.7c-1.8,1.4-4.4,1-5.9-0.7L150.5,129.4z"/>
	<path fill="#004371" d="M134.4,143.8c-1.6-1.6-1.6-4.2,0.1-5.7l6.1-5.7c1.7-1.5,4.3-1.3,5.7,0.4l12.3,14.6c1.5,1.7,1.3,4.3-0.4,5.8
		l-4.4,4.2c-1.6,1.5-4.3,1.5-5.9-0.1L134.4,143.8z"/>
	<path fill="#004371" d="M119.9,159.8c-1.8-1.4-2-4-0.6-5.7l5.5-6.2c1.5-1.7,4.1-1.8,5.7-0.2l13.8,13.2c1.6,1.6,1.7,4.2,0.2,5.9
		l-4.1,4.6c-1.4,1.7-4.1,2-5.8,0.6L119.9,159.8z"/>
	<path fill="#F13516" d="M107.2,177.3c-1.9-1.2-2.4-3.8-1.2-5.6l4.9-6.7c1.3-1.8,3.8-2.2,5.6-0.9l15.2,11.6c1.8,1.4,2.2,4,0.9,5.8
		l-3.7,4.9c-1.2,1.9-3.8,2.4-5.7,1.2L107.2,177.3z"/>
	<path fill="#F13516" d="M161.2,192.3c1.8,1.4,2.1,4.1,0.7,5.9l-3.9,5.2c-1.3,1.9-3.9,2.4-5.8,1.1l-16-10.5
		c-1.9-1.2-2.4-3.8-1.1-5.6l5.5-7.5c1.4-1.8,3.9-2.1,5.7-0.7L161.2,192.3z"/>
	<path fill="#004371" d="M190.7,164.9c1.3,1.8,0.9,4.5-0.9,5.8l-5.1,4c-1.7,1.4-4.4,1.2-5.9-0.5l-12.5-14.4
		c-1.5-1.7-1.3-4.3,0.5-5.7l7.4-5.7c1.8-1.3,4.4-0.9,5.7,0.9L190.7,164.9z"/>
	<path fill="#004371" d="M207.9,154.4c1,2,0.3,4.5-1.7,5.6l-5.6,3.3c-1.9,1.2-4.5,0.6-5.7-1.3l-10.4-16c-1.2-1.9-0.7-4.4,1.3-5.6
		l8-4.7c2-1.1,4.4-0.3,5.5,1.7L207.9,154.4z"/>
	<path fill="#004371" d="M226.4,146.5c0.7,2.1-0.4,4.5-2.5,5.3l-6,2.5c-2.1,0.9-4.5,0-5.5-2.1l-8.1-17.3c-1-2-0.1-4.5,2-5.4l8.6-3.5
		c2.1-0.8,4.5,0.3,5.2,2.5L226.4,146.5z"/>
	<path fill="#004371" d="M245.9,141.3c0.4,2.2-1,4.4-3.2,5l-6.3,1.5c-2.2,0.6-4.5-0.7-5.2-2.8l-5.6-18.3c-0.7-2.2,0.6-4.4,2.7-5
		l9.1-2.2c2.2-0.5,4.4,0.9,4.8,3.1L245.9,141.3z"/>
	<path fill="#004371" d="M265.9,138.7c0.1,2.3-1.6,4.2-3.9,4.4l-6.4,0.8c-2.2,0.3-4.4-1.3-4.7-3.5l-3-18.8c-0.4-2.2,1.2-4.3,3.4-4.6
		l9.3-1.1c2.2-0.2,4.2,1.5,4.3,3.8L265.9,138.7z"/>
	<path fill="#004371" d="M246.2,156.5c-0.5-2.2,0.9-4.3,3.2-4.7l10.9-1.7c2.2-0.2,4.2,1.4,4.4,3.7l1.4,19c0.2,2.3-1.5,4.3-3.8,4.5
		l-7,1.1c-2.2,0.4-4.4-1.1-4.9-3.3L246.2,156.5z"/>
	<path fill="#004371" d="M222.6,164.1c-0.9-2.1,0.1-4.4,2.2-5.3l10.4-3.6c2.2-0.7,4.4,0.6,5,2.8l5,18.4c0.6,2.2-0.7,4.5-2.9,5.2
		l-6.7,2.3c-2.1,0.8-4.6-0.2-5.4-2.3L222.6,164.1z"/>
	<path fill="#004371" d="M200.8,176c-1.3-1.9-0.7-4.4,1.2-5.6l9.5-5.5c2-1.1,4.4-0.3,5.4,1.8l8.4,17.2c1,2,0.2,4.6-1.8,5.6l-6.2,3.5
		c-1.9,1.2-4.5,0.7-5.8-1.2L200.8,176z"/>
	<path fill="#004371" d="M181.8,191.9c-1.6-1.6-1.5-4.2,0.1-5.7l8.2-7.3c1.8-1.4,4.3-1.1,5.7,0.7l11.5,15.3c1.4,1.8,1,4.4-0.7,5.8
		l-5.3,4.7c-1.7,1.5-4.3,1.5-5.9-0.1L181.8,191.9z"/>
	<path fill="#F13516" d="M166,211c-1.9-1.3-2.3-3.8-1-5.6l6.9-8.6c1.4-1.7,4-1.9,5.7-0.4l14.1,12.8c1.7,1.5,1.9,4.2,0.4,5.9
		l-4.5,5.5c-1.3,1.8-3.9,2.3-5.8,1L166,211z"/>
	<path fill="#F13516" d="M144.6,373c-2.3,0-4.1-1.8-4.1-4.1l0-7.2c0-2.3,1.8-4.1,4.1-4.1l19,0c2.3,0,4.1,1.8,4.1,4.1l0,7.2
		c0,2.3-1.8,4.1-4.1,4.1L144.6,373z"/>
	<path fill="#F13516" d="M62.6,439.5c2.2,0,4.1,1.8,4.1,4.1l0,7.2c0,2.3-1.8,4.1-4.1,4.1l-19,0c-2.3,0-4.1-1.8-4.1-4.1l0-7.2
		c0-2.2,1.8-4.1,4.1-4.1L62.6,439.5z"/>
	<path fill="#F13516" d="M62.7,419c2.2,0,4.1,1.8,4.1,4.1l0,7.2c0,2.3-1.8,4.1-4.1,4.1l-19,0c-2.3,0-4.1-1.8-4.1-4.1l0-7.2
		c0-2.2,1.8-4.1,4.1-4.1L62.7,419z"/>
	<path fill="#F13516" d="M62.7,398.6c2.2,0,4.1,1.8,4.1,4.1l0,7.2c0,2.3-1.8,4.1-4.1,4.1l-19,0c-2.3,0-4.1-1.8-4.1-4.1l0-7.2
		c0-2.2,1.8-4.1,4.1-4.1L62.7,398.6z"/>
	<path fill="#F13516" d="M62.7,378.1c2.2,0,4.1,1.8,4.1,4.1l0,7.2c0,2.3-1.8,4.1-4.1,4.1l-19,0c-2.3,0-4.1-1.8-4.1-4.1l0-7.2
		c0-2.2,1.8-4.1,4.1-4.1L62.7,378.1z"/>
	<path fill="#F13516" d="M62.8,357.6c2.2,0,4.1,1.8,4.1,4.1l0,7.2c0,2.3-1.8,4.1-4.1,4.1l-19,0c-2.3,0-4.1-1.8-4.1-4.1l0-7.2
		c0-2.2,1.8-4.1,4.1-4.1L62.8,357.6z"/>
	<path fill="#F13516" d="M129.8,459.9c2.2,0,4.1,1.8,4.1,4.1l0,7.2c0,2.3-1.8,4.1-4.1,4.1l-19,0c-2.3,0-4.1-1.8-4.1-4.1l0-7.2
		c0-2.2,1.8-4.1,4.1-4.1L129.8,459.9z"/>
	<path fill="#F13516" d="M129.8,439.4c2.2,0,4.1,1.8,4.1,4.1l0,7.2c0,2.3-1.8,4.1-4.1,4.1l-19,0c-2.3,0-4.1-1.8-4.1-4.1l0-7.2
		c0-2.2,1.8-4.1,4.1-4.1L129.8,439.4z"/>
	<path fill="#F13516" d="M163.6,459.9c2.2,0,4.1,1.8,4.1,4.1l0,7.2c0,2.3-1.8,4.1-4.1,4.1l-19,0c-2.3,0-4.1-1.8-4.1-4.1l0-7.2
		c0-2.2,1.8-4.1,4.1-4.1L163.6,459.9z"/>
	<path fill="#F13516" d="M163.6,439.4c2.2,0,4.1,1.8,4.1,4.1l0,7.2c0,2.3-1.8,4.1-4.1,4.1l-19,0c-2.3,0-4.1-1.8-4.1-4.1l0-7.2
		c0-2.2,1.8-4.1,4.1-4.1L163.6,439.4z"/>
	<path fill="#F13516" d="M129.8,419c2.2,0,4.1,1.8,4.1,4.1l0,7.2c0,2.3-1.8,4.1-4.1,4.1l-19,0c-2.3,0-4.1-1.8-4.1-4.1l0-7.2
		c0-2.2,1.8-4.1,4.1-4.1L129.8,419z"/>
	<path fill="#F13516" d="M129.8,398.5c2.2,0,4.1,1.8,4.1,4.1l0,7.2c0,2.3-1.8,4.1-4.1,4.1l-19,0c-2.3,0-4.1-1.8-4.1-4.1l0-7.2
		c0-2.2,1.8-4.1,4.1-4.1L129.8,398.5z"/>
	<path fill="#F13516" d="M129.8,378c2.2,0,4.1,1.8,4.1,4.1l0,7.2c0,2.3-1.8,4.1-4.1,4.1l-19,0c-2.3,0-4.1-1.8-4.1-4.1l0-7.2
		c0-2.2,1.8-4.1,4.1-4.1L129.8,378z"/>
	<path fill="#F13516" d="M129.7,357.6c2.2,0,4.1,1.8,4.1,4.1l0,7.2c0,2.3-1.8,4.1-4.1,4.1l-19,0c-2.3,0-4.1-1.8-4.1-4.1l0-7.2
		c0-2.2,1.8-4.1,4.1-4.1L129.7,357.6z"/>
	<path fill="#F13516" d="M77.3,373c-2.2,0-4.1-1.8-4.1-4.1l0-7.2c0-2.3,1.8-4.1,4.1-4.1l19,0c2.3,0,4.1,1.8,4.1,4.1l0,7.2
		c0,2.2-1.8,4.1-4.1,4.1L77.3,373z"/>
	<path fill="#F13516" d="M77.3,393.4c-2.2,0-4.1-1.8-4.1-4.1l0-7.2c0-2.3,1.8-4.1,4.1-4.1l19,0c2.3,0,4.1,1.8,4.1,4.1l0,7.2
		c0,2.2-1.8,4.1-4.1,4.1L77.3,393.4z"/>
	<path fill="#F13516" d="M77.2,413.9c-2.2,0-4.1-1.8-4.1-4.1l0-7.2c0-2.3,1.8-4.1,4.1-4.1l19,0c2.3,0,4.1,1.8,4.1,4.1l0,7.2
		c0,2.2-1.8,4.1-4.1,4.1L77.2,413.9z"/>
	<path fill="#F13516" d="M77.2,434.3c-2.2,0-4.1-1.8-4.1-4.1l0-7.2c0-2.3,1.8-4.1,4.1-4.1l19,0c2.3,0,4.1,1.8,4.1,4.1l0,7.2
		c0,2.2-1.8,4.1-4.1,4.1L77.2,434.3z"/>
	<path fill="#F13516" d="M77.2,454.8c-2.2,0-4.1-1.8-4.1-4.1l0-7.2c0-2.3,1.8-4.1,4.1-4.1l19,0c2.3,0,4.1,1.8,4.1,4.1l0,7.2
		c0,2.2-1.8,4.1-4.1,4.1L77.2,454.8z"/>
	<path fill="#F13516" d="M77.2,475.2c-2.2,0-4.1-1.8-4.1-4.1l0-7.2c0-2.3,1.8-4.1,4.1-4.1l19,0c2.3,0,4.1,1.8,4.1,4.1l0,7.2
		c0,2.2-1.8,4.1-4.1,4.1L77.2,475.2z"/>
	<path fill="#F13516" d="M144.6,393.4c-2.2,0-4.1-1.8-4.1-4.1l0-7.2c0-2.3,1.8-4.1,4.1-4.1l19,0c2.3,0,4.1,1.8,4.1,4.1l0,7.2
		c0,2.2-1.8,4.1-4.1,4.1L144.6,393.4z"/>
	<path fill="#F13516" d="M144.6,413.9c-2.2,0-4.1-1.8-4.1-4.1l0-7.2c0-2.3,1.8-4.1,4.1-4.1l19,0c2.3,0,4.1,1.8,4.1,4.1l0,7.2
		c0,2.2-1.8,4.1-4.1,4.1L144.6,413.9z"/>
	<path fill="#F13516" d="M144.6,434.3c-2.2,0-4.1-1.8-4.1-4.1l0-7.2c0-2.3,1.8-4.1,4.1-4.1l19,0c2.3,0,4.1,1.8,4.1,4.1l0,7.2
		c0,2.2-1.8,4.1-4.1,4.1L144.6,434.3z"/>
	<path fill="#004371" d="M175,177.6c1.5,1.7,1.5,4.3-0.1,5.9l-4.5,4.7c-1.5,1.7-4.2,1.8-5.9,0.3l-14.4-12.6
		c-1.7-1.5-1.8-4.1-0.3-5.7l6.4-6.7c1.6-1.6,4.2-1.5,5.7,0.1L175,177.6z"/>
	<path fill="#F13516" d="M62.9,307.3c2.2,0,4.1,1.8,4.1,4.1l0,8c0,2.2-1.8,4.1-4.1,4.1l-19,0c-2.3,0-4.1-1.8-4.1-4.1l0-8
		c0-2.2,1.8-4.1,4.1-4.1L62.9,307.3z"/>
	<path fill="#F13516" d="M62.9,285.8c2.2,0,4.1,1.8,4.1,4.1l0,8c0,2.2-1.8,4.1-4.1,4.1l-19,0c-2.2,0-4.1-1.8-4.1-4.1l0-8
		c0-2.2,1.8-4.1,4.1-4.1L62.9,285.8z"/>
	<path fill="#F13516" d="M64,265.1c2.2,0.2,3.9,2.2,3.7,4.5l-0.5,7c-0.1,2.2-2,4-4.2,4l-19-0.4c-2.2-0.1-4-1.9-4-4.2l0.6-9
		c0.2-2.2,2.2-3.9,4.4-3.7L64,265.1z"/>
	<path fill="#F13516" d="M66.8,244.7c2.2,0.4,3.7,2.6,3.3,4.8l-1.1,6.9c-0.3,2.2-2.4,3.8-4.6,3.6l-18.9-2.3
		c-2.2-0.3-3.8-2.3-3.5-4.5l1.4-8.9c0.4-2.2,2.5-3.7,4.7-3.3L66.8,244.7z"/>
	<path fill="#F13516" d="M71.8,224.7c2.2,0.6,3.4,2.9,2.8,5.1l-1.7,6.8c-0.5,2.2-2.8,3.6-5,3.1l-18.6-4.1c-2.2-0.5-3.6-2.7-3-4.9
		l2.2-8.7c0.6-2.2,2.9-3.4,5.1-2.8L71.8,224.7z"/>
	<path fill="#F13516" d="M78.7,205.2c2.1,0.9,3.1,3.3,2.4,5.4l-2.6,6.5c-0.7,2.1-3,3.3-5.2,2.6l-18.1-5.9c-2.1-0.7-3.3-3-2.6-5.2
		l3.2-8.4c0.8-2.1,3.1-3.1,5.2-2.3L78.7,205.2z"/>
	<path fill="#F13516" d="M87.3,186.5c2,1,2.8,3.5,1.8,5.6l-2.9,6.4c-1,2-3.5,2.9-5.5,2l-17.4-7.6c-2.1-0.9-3-3.3-2-5.3l3.8-8.2
		c1-2,3.5-2.8,5.5-1.7L87.3,186.5z"/>
	<path fill="#F13516" d="M34,175.4c-2-0.9-2.9-3.3-1.9-5.4l3.8-7.6c1-2,3.4-2.8,5.4-1.7l16.8,9c2,1.1,2.8,3.6,1.8,5.6l-3,6.1
		c-1,2-3.5,2.9-5.5,2L34,175.4z"/>
	<path fill="#F13516" d="M25.8,195.7c-2.1-0.8-3.2-3.1-2.4-5.2l3.1-7.9c0.9-2.1,3.3-3,5.4-2.1l17.5,7.6c2.1,0.9,3,3.3,2.1,5.4
		l-2.4,6.3c-0.8,2.1-3.2,3.2-5.3,2.4L25.8,195.7z"/>
	<path fill="#F13516" d="M19.2,216.6c-2.2-0.6-3.5-2.8-2.9-5l2.6-8.1c0.6-2.2,2.9-3.3,5.1-2.6l18,6.1c2.1,0.7,3.4,3.1,2.7,5.2
		l-2.1,6.5c-0.6,2.2-2.8,3.5-5,2.9L19.2,216.6z"/>
	<path fill="#F13516" d="M14.4,238c-2.2-0.4-3.6-2.5-3.2-4.7l1.7-8.3c0.5-2.2,2.7-3.5,4.9-3l18.5,4.6c2.2,0.5,3.6,2.8,3,5l-1.3,6.7
		c-0.5,2.2-2.7,3.7-4.9,3.3L14.4,238z"/>
	<path fill="#F13516" d="M11.5,259.7c-2.2-0.2-3.9-2.2-3.6-4.5l1.1-8.4c0.3-2.2,2.4-3.8,4.7-3.4l18.8,3c2.2,0.4,3.8,2.5,3.4,4.7
		l-0.8,6.8c-0.2,2.2-2.3,3.9-4.5,3.7L11.5,259.7z"/>
	<path fill="#F13516" d="M129.7,304.8c2.3,0,4.1,1.8,4.1,4.1l0,9.1c0,2.2-1.8,4.1-4.1,4.1l-19,0c-2.2,0-4.1-1.8-4.1-4.1l0-9.1
		c0-2.3,1.8-4.1,4.1-4.1L129.7,304.8z"/>
	<path fill="#F13516" d="M129.8,282.1c2.2,0.1,4.1,1.9,4.1,4.2l-0.1,8.7c0,2.2-1.8,4.1-4.1,4.1l-19,0c-2.3,0-4.1-1.8-4.1-4.1
		l0.1-9.4c0-2.3,1.9-4.1,4.1-4L129.8,282.1z"/>
	<path fill="#F13516" d="M131.8,260.6c2.2,0.4,3.8,2.5,3.5,4.7l-0.9,7.5c-0.2,2.2-2.2,4-4.5,3.8l-19-1.1c-2.2-0.1-3.9-2.1-3.7-4.3
		l1.2-10.5c0.3-2.2,2.4-3.7,4.6-3.4L131.8,260.6z"/>
	<path fill="#F13516" d="M137.1,239.7c2.1,0.7,3.3,3.1,2.7,5.2l-1.9,7.3c-0.5,2.2-2.7,3.6-4.9,3.1l-18.6-3.9
		c-2.2-0.5-3.6-2.6-3.1-4.8l2.7-10.2c0.7-2.2,2.9-3.3,5.1-2.6L137.1,239.7z"/>
	<path fill="#F13516" d="M145.3,219.8c2,1,2.9,3.5,1.9,5.6l-3,6.9c-0.9,2.1-3.3,3.1-5.4,2.4l-17.8-6.7c-2.1-0.8-3.1-3.1-2.3-5.2
		l4.2-9.7c1-2,3.4-2.9,5.4-1.9L145.3,219.8z"/>
	<path fill="#F13516" d="M92.2,210.3c-2.1-0.9-3-3.2-2.1-5.3l3.9-8.8c1-2,3.5-2.8,5.5-1.8l16.9,8.8c2,1,2.8,3.5,1.8,5.5l-2.9,6.6
		c-0.9,2.1-3.4,3-5.5,2.2L92.2,210.3z"/>
	<path fill="#F13516" d="M84.6,232.3c-2.2-0.6-3.4-2.9-2.7-5l2.9-9.2c0.8-2.1,3.1-3.2,5.2-2.4l17.8,6.7c2.1,0.8,3.2,3.2,2.4,5.3
		l-2.1,6.9c-0.7,2.1-3,3.4-5.2,2.8L84.6,232.3z"/>
	<path fill="#F13516" d="M79.7,255c-2.2-0.3-3.7-2.4-3.3-4.6l1.7-9.5c0.5-2.2,2.7-3.5,4.9-3l18.5,4.6c2.2,0.5,3.6,2.8,3.1,5
		l-1.3,7.1c-0.4,2.2-2.6,3.7-4.8,3.4L79.7,255z"/>
	<path fill="#F13516" d="M77.5,278.2c-2.2-0.1-4-2-3.8-4.2l0.6-9.6c0.2-2.2,2.3-3.8,4.5-3.6l18.9,2.4c2.2,0.3,3.9,2.3,3.6,4.6
		l-0.4,7.2c-0.2,2.2-2.1,4-4.4,3.9L77.5,278.2z"/>
	<path fill="#F13516" d="M77.3,300.7c-2.3,0-4.1-1.8-4.1-4.1l0.1-8.5c0-2.3,1.8-4.1,4.1-4.1l19,0.1c2.2,0,4.1,1.9,4.1,4.1l0,8.4
		c0,2.2-1.8,4.1-4.1,4.1L77.3,300.7z"/>
	<path fill="#F13516" d="M77.3,322.9c-2.3,0-4.1-1.8-4.1-4.1l0-8.4c0-2.2,1.8-4.1,4.1-4.1l19,0c2.2,0,4.1,1.8,4.1,4.1l0,8.4
		c0,2.2-1.8,4.1-4.1,4.1L77.3,322.9z"/>
	<path fill="#F13516" d="M150.6,246.4c-2.1-0.7-3.3-3-2.5-5.1l4.3-11.1c0.9-2.1,3.3-2.9,5.3-1.9l17.1,8.3c2,1,2.9,3.5,2,5.5
		l-2.8,7.3c-0.8,2.1-3.2,3.3-5.3,2.6L150.6,246.4z"/>
	<path fill="#F13516" d="M145.3,271.8c-2.2-0.2-3.8-2.2-3.5-4.5l2.1-11.7c0.5-2.2,2.7-3.5,4.8-3l18.4,4.8c2.2,0.6,3.6,2.8,3.1,5
		l-1.4,7.7c-0.3,2.2-2.4,3.9-4.6,3.6L145.3,271.8z"/>
	<path fill="#F13516" d="M144.6,296.9c-2.2,0-4.1-1.8-4.1-4.1l0.2-10.6c0-2.2,1.9-4,4.2-3.9l19,1c2.2,0.1,4.1,2.1,4,4.3l-0.1,9.1
		c0,2.2-1.8,4.1-4.1,4.1L144.6,296.9z"/>
	<path fill="#F13516" d="M144.6,321c-2.3,0-4.1-1.8-4.1-4.1l0-9.9c0-2.2,1.8-4.1,4.1-4.1h19c2.2,0,4.1,1.8,4.1,4.1v9.9
		c0,2.2-1.8,4.1-4.1,4.1L144.6,321z"/>
	<path fill="#F13516" d="M62.9,329.6c2.2,0,4.1,1.8,4.1,4.1l0,8c0,2.2-1.8,4.1-4.1,4.1l-19,0c-2.3,0-4.1-1.8-4.1-4.1l0-8
		c0-2.2,1.8-4.1,4.1-4.1L62.9,329.6z"/>
	<path fill="#F13516" d="M129.7,327.1c2.3,0,4.1,1.8,4.1,4.1l0,9.1c0,2.2-1.8,4.1-4.1,4.1l-19,0c-2.2,0-4.1-1.8-4.1-4.1l0-9.1
		c0-2.3,1.8-4.1,4.1-4.1L129.7,327.1z"/>
	<path fill="#F13516" d="M80,345.1c-2.3,0-4.1-1.8-4.1-4.1l0-8.4c0-2.2,1.8-4.1,4.1-4.1l19,0c2.2,0,4.1,1.8,4.1,4.1l0,8.4
		c0,2.2-1.8,4.1-4.1,4.1L80,345.1z"/>
	<path fill="#F13516" d="M144.6,343.2c-2.3,0-4.1-1.8-4.1-4.1l0-9.9c0-2.2,1.8-4.1,4.1-4.1h19c2.2,0,4.1,1.8,4.1,4.1v9.9
		c0,2.2-1.8,4.1-4.1,4.1L144.6,343.2z"/>
	<path fill="#F13516" d="M9.8,281.9c-2.2,0-4.1-1.9-4-4.1l0.5-8.5c0.1-2.2,2-4,4.3-3.8l19,1.4c2.2,0.2,4,2.1,3.9,4.4l-0.5,6.8
		c0,2.2-1.9,4.1-4.1,4L9.8,281.9z"/>
</g>
</svg>
