<?xml version="1.0" encoding="UTF-8" standalone="no"?>
<!-- Generator: Adobe Illustrator 23.0.1, SVG Export Plug-In . SVG Version: 6.00 Build 0)  -->

<svg
   xmlns:dc="http://purl.org/dc/elements/1.1/"
   xmlns:cc="http://creativecommons.org/ns#"
   xmlns:rdf="http://www.w3.org/1999/02/22-rdf-syntax-ns#"
   xmlns:svg="http://www.w3.org/2000/svg"
   xmlns="http://www.w3.org/2000/svg"
   xmlns:sodipodi="http://sodipodi.sourceforge.net/DTD/sodipodi-0.dtd"
   xmlns:inkscape="http://www.inkscape.org/namespaces/inkscape"
   version="1.0"
   id="Layer_1"
   x="0px"
   y="0px"
   viewBox="0 0 536.00757 460.50418"
   enable-background="new 0 0 550 488"
   xml:space="preserve"
   sodipodi:docname="08_fizetesi_kategoriak.svg"
   width="536.00757"
   height="460.50418"
   inkscape:version="0.92.3 (2405546, 2018-03-11)"><metadata
   id="metadata411"><rdf:RDF><cc:Work
       rdf:about=""><dc:format>image/svg+xml</dc:format><dc:type
         rdf:resource="http://purl.org/dc/dcmitype/StillImage" /><dc:title></dc:title></cc:Work></rdf:RDF></metadata><defs
   id="defs409" /><sodipodi:namedview
   pagecolor="#ffffff"
   bordercolor="#666666"
   borderopacity="1"
   objecttolerance="10"
   gridtolerance="10"
   guidetolerance="10"
   inkscape:pageopacity="0"
   inkscape:pageshadow="2"
   inkscape:window-width="1920"
   inkscape:window-height="1052"
   id="namedview407"
   showgrid="false"
   fit-margin-top="0"
   fit-margin-left="0"
   fit-margin-right="0"
   fit-margin-bottom="0"
   inkscape:zoom="0.96721311"
   inkscape:cx="-36.616434"
   inkscape:cy="261.90564"
   inkscape:window-x="1600"
   inkscape:window-y="0"
   inkscape:window-maximized="1"
   inkscape:current-layer="g404" />
<g
   id="g404"
   transform="translate(-5.796223,-14.795805)">
	<g
   id="g4">
		<rect
   width="550"
   height="488"
   id="rect2"
   x="0"
   y="0"
   style="fill:none" />
	</g>
	<path
   d="m 298.3,19.7 c 0.2,-2.2 -1.5,-4.2 -3.7,-4.4 l -7.3,-0.5 c -2.3,-0.1 -4.2,1.6 -4.2,3.8 l -0.7,19.1 c -0.1,2.3 1.7,4.2 4,4.4 l 5.7,0.4 c 2.3,0.1 4.3,-1.6 4.5,-3.8 z"
   id="path6"
   inkscape:connector-curvature="0"
   style="fill:#004371" />
	<path
   d="m 318.5,22.3 c 0.4,-2.2 -1.1,-4.3 -3.4,-4.6 l -7.2,-1.1 c -2.2,-0.3 -4.3,1.4 -4.5,3.6 l -2.1,19 c -0.2,2.2 1.4,4.3 3.6,4.6 l 5.7,0.9 c 2.2,0.3 4.4,-1.3 4.8,-3.5 z"
   id="path8"
   inkscape:connector-curvature="0"
   style="fill:#004371" />
	<path
   d="m 338.5,26.5 c 0.5,-2.2 -0.8,-4.4 -3,-4.9 L 328.4,20 c -2.2,-0.4 -4.4,1.1 -4.8,3.3 L 320,42 c -0.4,2.2 1.1,4.4 3.3,4.8 l 5.6,1.3 c 2.2,0.5 4.5,-0.9 5,-3.1 z"
   id="path10"
   inkscape:connector-curvature="0"
   style="fill:#004371" />
	<path
   d="m 358,32.3 c 0.7,-2.1 -0.4,-4.5 -2.6,-5.2 l -7,-2 c -2.2,-0.6 -4.4,0.6 -5,2.8 l -5,18.4 c -0.6,2.2 0.7,4.5 2.9,5.1 l 5.5,1.6 c 2.1,0.7 4.5,-0.4 5.2,-2.6 z"
   id="path12"
   inkscape:connector-curvature="0"
   style="fill:#004371" />
	<path
   d="m 377.1,39.4 c 0.9,-2.1 -0.1,-4.5 -2.2,-5.3 l -6.8,-2.6 c -2.1,-0.8 -4.4,0.2 -5.2,2.4 l -6.4,18 c -0.8,2.1 0.3,4.5 2.4,5.4 l 5.4,2 c 2.1,0.9 4.5,-0.1 5.4,-2.2 z"
   id="path14"
   inkscape:connector-curvature="0"
   style="fill:#004371" />
	<path
   d="m 413.3,58.2 c 1.2,-1.9 0.6,-4.4 -1.4,-5.6 l -6.3,-3.7 c -2,-1.1 -4.5,-0.3 -5.6,1.7 l -9,16.7 c -1.1,2 -0.3,4.5 1.7,5.6 l 4.9,3 c 1.9,1.2 4.5,0.5 5.7,-1.4 z"
   id="path16"
   inkscape:connector-curvature="0"
   style="fill:#004371" />
	<path
   d="m 430.2,69.6 c 1.3,-1.8 0.9,-4.4 -0.9,-5.7 l -6.1,-4.1 c -1.9,-1.3 -4.4,-0.7 -5.6,1.1 l -10.4,16 c -1.2,1.9 -0.7,4.5 1.2,5.8 l 4.8,3.2 c 1.8,1.3 4.4,0.9 5.7,-0.9 z"
   id="path18"
   inkscape:connector-curvature="0"
   style="fill:#004371" />
	<path
   d="m 446.2,82.2 c 1.5,-1.7 1.2,-4.3 -0.5,-5.7 L 440,71.9 c -1.8,-1.4 -4.3,-1.1 -5.7,0.7 l -11.6,15.2 c -1.4,1.8 -1,4.4 0.7,5.9 l 4.5,3.6 c 1.8,1.4 4.4,1.2 5.9,-0.5 z"
   id="path20"
   inkscape:connector-curvature="0"
   style="fill:#004371" />
	<path
   d="m 461.2,96 c 1.6,-1.6 1.6,-4.2 -0.1,-5.7 l -5.3,-5.1 c -1.7,-1.5 -4.3,-1.3 -5.8,0.3 l -12.7,14.3 c -1.5,1.7 -1.3,4.3 0.3,5.8 l 4.1,4 c 1.6,1.5 4.3,1.5 5.9,-0.1 z"
   id="path22"
   inkscape:connector-curvature="0"
   style="fill:#004371" />
	<path
   d="m 475.1,111 c 1.7,-1.5 1.9,-4.1 0.4,-5.8 l -4.9,-5.4 c -1.6,-1.6 -4.2,-1.7 -5.8,-0.1 L 451,112.9 c -1.6,1.6 -1.7,4.2 -0.1,5.8 l 3.9,4.3 c 1.5,1.7 4.1,1.9 5.8,0.4 z"
   id="path24"
   inkscape:connector-curvature="0"
   style="fill:#004371" />
	<path
   d="m 487.8,126.9 c 1.8,-1.3 2.2,-3.9 0.9,-5.8 l -4.6,-5.7 c -1.4,-1.8 -3.9,-2.1 -5.7,-0.6 L 463.7,127 c -1.7,1.4 -2,4.1 -0.6,5.9 l 3.7,4.4 c 1.3,1.8 3.9,2.2 5.7,0.9 z"
   id="path26"
   inkscape:connector-curvature="0"
   style="fill:#004371" />
	<path
   d="m 499.3,143.7 c 1.9,-1.2 2.5,-3.7 1.2,-5.6 l -4.1,-6.1 c -1.3,-1.9 -3.8,-2.4 -5.6,-1 l -15.6,11 c -1.8,1.3 -2.3,3.9 -1.1,5.8 l 3.2,4.8 c 1.3,1.9 3.8,2.4 5.8,1.2 z"
   id="path28"
   inkscape:connector-curvature="0"
   style="fill:#004371" />
	<path
   d="m 445.7,158.9 c -1.8,1.3 -2.3,3.9 -1,5.8 l 3.4,4.8 c 1.2,1.9 3.8,2.4 5.7,1.2 L 470,160.5 c 1.9,-1.2 2.5,-3.7 1.2,-5.6 l -4.4,-6.3 c -1.3,-1.9 -3.8,-2.3 -5.6,-1 z"
   id="path30"
   inkscape:connector-curvature="0"
   style="fill:#004371" />
	<path
   d="m 433.7,144 c -1.7,1.5 -1.9,4.1 -0.4,5.8 l 3.7,4.6 c 1.4,1.8 4,2.1 5.8,0.7 L 458,143.5 c 1.8,-1.4 2.1,-3.9 0.7,-5.7 l -4.9,-6 c -1.5,-1.7 -4.1,-1.9 -5.8,-0.4 z"
   id="path32"
   inkscape:connector-curvature="0"
   style="fill:#004371" />
	<path
   d="m 420.4,130.2 c -1.6,1.6 -1.5,4.3 0,5.9 l 4.2,4.1 c 1.6,1.6 4.2,1.7 5.9,0.2 l 14.1,-12.9 c 1.7,-1.5 1.8,-4.1 0.2,-5.8 l -5.5,-5.4 c -1.6,-1.6 -4.2,-1.6 -5.7,0.1 z"
   id="path34"
   inkscape:connector-curvature="0"
   style="fill:#004371" />
	<path
   d="m 405.9,117.6 c -1.4,1.8 -1.1,4.4 0.7,5.8 l 4.4,3.9 c 1.7,1.5 4.3,1.3 5.9,-0.3 l 12.9,-14.1 c 1.5,-1.7 1.4,-4.3 -0.3,-5.7 l -5.8,-5 c -1.8,-1.4 -4.4,-1.1 -5.8,0.6 z"
   id="path36"
   inkscape:connector-curvature="0"
   style="fill:#004371" />
	<path
   d="m 390.4,106.3 c -1.2,1.9 -0.7,4.5 1.1,5.8 l 4.9,3.3 c 1.8,1.3 4.4,1 5.8,-0.8 l 11.5,-15.2 c 1.4,-1.8 1,-4.4 -0.8,-5.7 l -6.4,-4.4 c -1.8,-1.3 -4.4,-0.8 -5.6,1.1 z"
   id="path38"
   inkscape:connector-curvature="0"
   style="fill:#004371" />
	<path
   d="m 374,96.6 c -1.1,2 -0.3,4.5 1.7,5.6 l 5,3 c 1.9,1.2 4.5,0.5 5.7,-1.4 l 10.1,-16.2 c 1.2,-1.9 0.6,-4.4 -1.3,-5.6 l -6.6,-3.9 c -2,-1.1 -4.5,-0.3 -5.5,1.7 z"
   id="path40"
   inkscape:connector-curvature="0"
   style="fill:#004371" />
	<path
   d="m 356.7,88.3 c -0.9,2.1 0.1,4.6 2.1,5.5 l 5.4,2.4 c 2,1 4.5,0.2 5.5,-1.9 l 8.6,-17 c 1,-2 0.2,-4.5 -1.8,-5.5 l -7.1,-3.2 c -2.1,-1 -4.5,0 -5.3,2.1 z"
   id="path42"
   inkscape:connector-curvature="0"
   style="fill:#004371" />
	<path
   d="m 338.7,81.7 c -0.7,2.2 0.5,4.5 2.6,5.2 l 5.5,2 c 2.1,0.8 4.5,-0.3 5.4,-2.4 l 7.1,-17.7 c 0.8,-2.1 -0.2,-4.5 -2.3,-5.3 l -7.3,-2.7 c -2.1,-0.7 -4.5,0.5 -5.2,2.6 z"
   id="path44"
   inkscape:connector-curvature="0"
   style="fill:#004371" />
	<path
   d="m 320.3,76.6 c -0.5,2.2 0.9,4.5 3.1,5 l 5.7,1.4 c 2.2,0.6 4.5,-0.7 5.1,-2.9 l 5.4,-18.3 c 0.6,-2.2 -0.6,-4.4 -2.8,-5 l -7.5,-1.9 c -2.2,-0.6 -4.4,0.8 -4.9,3 z"
   id="path46"
   inkscape:connector-curvature="0"
   style="fill:#004371" />
	<path
   d="m 301.4,73.3 c -0.3,2.2 1.3,4.3 3.5,4.6 l 5.8,1 c 2.2,0.4 4.4,-1.1 4.8,-3.3 l 3.7,-18.7 c 0.4,-2.2 -1,-4.4 -3.2,-4.8 l -7.6,-1.3 c -2.2,-0.3 -4.3,1.3 -4.6,3.5 z"
   id="path48"
   inkscape:connector-curvature="0"
   style="fill:#004371" />
	<path
   d="m 282.3,71.6 c -0.1,2.3 1.7,4.2 3.9,4.4 l 5.9,0.5 c 2.3,0.2 4.3,-1.5 4.5,-3.8 l 2,-19 c 0.2,-2.2 -1.4,-4.2 -3.7,-4.4 l -7.7,-0.6 c -2.3,-0.1 -4.2,1.6 -4.3,3.8 z"
   id="path50"
   inkscape:connector-curvature="0"
   style="fill:#004371" />
	<path
   d="m 299.3,87.6 c 0.3,-2.2 -1.3,-4.2 -3.6,-4.4 l -8.3,-0.9 c -2.3,-0.1 -4.2,1.6 -4.3,3.9 l -0.9,19.1 c -0.1,2.3 1.7,4.2 3.9,4.3 l 6.1,0.7 c 2.2,0.2 4.3,-1.5 4.6,-3.7 z"
   id="path52"
   inkscape:connector-curvature="0"
   style="fill:#004371" />
	<path
   d="m 320.6,91.5 c 0.5,-2.2 -0.8,-4.4 -3,-4.9 l -8.2,-1.5 c -2.2,-0.4 -4.3,1.1 -4.7,3.3 l -3,18.9 c -0.3,2.2 1.2,4.4 3.4,4.8 l 6,1.1 c 2.2,0.5 4.4,-0.9 5,-3.1 z"
   id="path54"
   inkscape:connector-curvature="0"
   style="fill:#004371" />
	<path
   d="m 341.3,97.7 c 0.8,-2.1 -0.3,-4.5 -2.5,-5.2 l -8,-2.4 c -2.2,-0.7 -4.4,0.6 -5,2.8 l -5,18.4 c -0.6,2.2 0.7,4.5 2.9,5.2 l 5.9,1.7 c 2.1,0.7 4.5,-0.4 5.3,-2.5 z"
   id="path56"
   inkscape:connector-curvature="0"
   style="fill:#004371" />
	<path
   d="m 361.1,106.2 c 1,-2 0.1,-4.5 -1.9,-5.4 l -7.6,-3.3 c -2.1,-0.9 -4.5,0.1 -5.3,2.2 l -7,17.8 c -0.8,2.1 0.2,4.5 2.3,5.4 l 5.6,2.4 c 2,1 4.5,0.1 5.5,-1.9 z"
   id="path58"
   inkscape:connector-curvature="0"
   style="fill:#004371" />
	<path
   d="m 380,116.8 c 1.2,-1.9 0.6,-4.4 -1.3,-5.6 l -7.2,-4.2 c -2,-1.1 -4.5,-0.3 -5.5,1.7 l -8.9,16.9 c -1.1,2 -0.3,4.5 1.7,5.6 l 5.2,3.1 c 1.9,1.2 4.5,0.6 5.7,-1.3 z"
   id="path60"
   inkscape:connector-curvature="0"
   style="fill:#004371" />
	<path
   d="m 397.6,129.4 c 1.4,-1.8 1.1,-4.3 -0.7,-5.7 l -6.6,-5.1 c -1.9,-1.3 -4.4,-0.8 -5.7,1.1 l -10.7,15.8 c -1.3,1.9 -0.8,4.5 1.1,5.7 l 4.8,3.7 c 1.8,1.4 4.4,1 5.9,-0.7 z"
   id="path62"
   inkscape:connector-curvature="0"
   style="fill:#004371" />
	<path
   d="m 413.7,143.8 c 1.6,-1.6 1.6,-4.2 -0.1,-5.7 l -6.1,-5.7 c -1.7,-1.5 -4.3,-1.3 -5.7,0.4 l -12.3,14.6 c -1.5,1.7 -1.3,4.3 0.4,5.8 l 4.4,4.2 c 1.6,1.5 4.3,1.5 5.9,-0.1 z"
   id="path64"
   inkscape:connector-curvature="0"
   style="fill:#004371" />
	<path
   d="m 428.1,159.8 c 1.8,-1.4 2,-4 0.6,-5.7 l -5.5,-6.2 c -1.5,-1.7 -4.1,-1.8 -5.7,-0.2 l -13.8,13.2 c -1.6,1.6 -1.7,4.2 -0.2,5.9 l 4.1,4.6 c 1.4,1.7 4.1,2 5.8,0.6 z"
   id="path66"
   inkscape:connector-curvature="0"
   style="fill:#004371" />
	<path
   d="m 440.8,177.3 c 1.9,-1.2 2.4,-3.8 1.2,-5.6 l -4.9,-6.7 c -1.3,-1.8 -3.8,-2.2 -5.6,-0.9 l -15.2,11.6 c -1.8,1.4 -2.2,4 -0.9,5.8 l 3.7,4.9 c 1.2,1.9 3.8,2.4 5.7,1.2 z"
   id="path68"
   inkscape:connector-curvature="0"
   style="fill:#004371" />
	<path
   d="m 386.8,192.3 c -1.8,1.4 -2.1,4.1 -0.7,5.9 l 3.9,5.2 c 1.3,1.9 3.9,2.4 5.8,1.1 l 16,-10.5 c 1.9,-1.2 2.4,-3.8 1.1,-5.6 l -5.5,-7.5 c -1.4,-1.8 -3.9,-2.1 -5.7,-0.7 z"
   id="path70"
   inkscape:connector-curvature="0"
   style="fill:#004371" />
	<path
   d="m 373,177.6 c -1.5,1.7 -1.5,4.3 0.1,5.9 l 4.5,4.7 c 1.5,1.7 4.2,1.8 5.9,0.3 l 14.4,-12.6 c 1.7,-1.5 1.8,-4.1 0.3,-5.7 l -6.4,-6.7 c -1.6,-1.6 -4.2,-1.5 -5.7,0.1 z"
   id="path72"
   inkscape:connector-curvature="0"
   style="fill:#004371" />
	<path
   d="m 357.4,164.9 c -1.3,1.8 -0.9,4.5 0.9,5.8 l 5.1,4 c 1.7,1.4 4.4,1.2 5.9,-0.5 l 12.5,-14.4 c 1.5,-1.7 1.3,-4.3 -0.5,-5.7 l -7.4,-5.7 c -1.8,-1.3 -4.4,-0.9 -5.7,0.9 z"
   id="path74"
   inkscape:connector-curvature="0"
   style="fill:#004371" />
	<path
   d="m 340.1,154.4 c -1,2 -0.3,4.5 1.7,5.6 l 5.6,3.3 c 1.9,1.2 4.5,0.6 5.7,-1.3 l 10.4,-16 c 1.2,-1.9 0.7,-4.4 -1.3,-5.6 l -8,-4.7 c -2,-1.1 -4.4,-0.3 -5.5,1.7 z"
   id="path76"
   inkscape:connector-curvature="0"
   style="fill:#004371" />
	<path
   d="m 321.6,146.5 c -0.7,2.1 0.4,4.5 2.5,5.3 l 6,2.5 c 2.1,0.9 4.5,0 5.5,-2.1 l 8.1,-17.3 c 1,-2 0.1,-4.5 -2,-5.4 l -8.6,-3.5 c -2.1,-0.8 -4.5,0.3 -5.2,2.5 z"
   id="path78"
   inkscape:connector-curvature="0"
   style="fill:#004371" />
	<path
   d="m 302.2,141.3 c -0.4,2.2 1,4.4 3.2,5 l 6.3,1.5 c 2.2,0.6 4.5,-0.7 5.2,-2.8 l 5.6,-18.3 c 0.7,-2.2 -0.6,-4.4 -2.7,-5 l -9.1,-2.2 c -2.2,-0.5 -4.4,0.9 -4.8,3.1 z"
   id="path80"
   inkscape:connector-curvature="0"
   style="fill:#004371" />
	<path
   d="m 282.2,138.7 c -0.1,2.3 1.6,4.2 3.9,4.4 l 6.4,0.8 c 2.2,0.3 4.4,-1.3 4.7,-3.5 l 3,-18.8 c 0.4,-2.2 -1.2,-4.3 -3.4,-4.6 l -9.3,-1.1 c -2.2,-0.2 -4.2,1.5 -4.3,3.8 z"
   id="path82"
   inkscape:connector-curvature="0"
   style="fill:#004371" />
	<path
   d="m 301.8,156.5 c 0.5,-2.2 -0.9,-4.3 -3.2,-4.7 l -10.9,-1.7 c -2.2,-0.2 -4.2,1.4 -4.4,3.7 l -1.4,19 c -0.2,2.3 1.5,4.3 3.8,4.5 l 7,1.1 c 2.2,0.4 4.4,-1.1 4.9,-3.3 z"
   id="path84"
   inkscape:connector-curvature="0"
   style="fill:#004371" />
	<path
   d="m 325.4,164.1 c 0.9,-2.1 -0.1,-4.4 -2.2,-5.3 l -10.4,-3.6 c -2.2,-0.7 -4.4,0.6 -5,2.8 l -5,18.4 c -0.6,2.2 0.7,4.5 2.9,5.2 l 6.7,2.3 c 2.1,0.8 4.6,-0.2 5.4,-2.3 z"
   id="path86"
   inkscape:connector-curvature="0"
   style="fill:#004371" />
	<path
   d="m 347.2,176 c 1.3,-1.9 0.7,-4.4 -1.2,-5.6 l -9.5,-5.5 c -2,-1.1 -4.4,-0.3 -5.4,1.8 l -8.4,17.2 c -1,2 -0.2,4.6 1.8,5.6 l 6.2,3.5 c 1.9,1.2 4.5,0.7 5.8,-1.2 z"
   id="path88"
   inkscape:connector-curvature="0"
   style="fill:#004371" />
	<path
   d="m 366.3,191.9 c 1.6,-1.6 1.5,-4.2 -0.1,-5.7 l -8.2,-7.3 c -1.8,-1.4 -4.3,-1.1 -5.7,0.7 l -11.5,15.3 c -1.4,1.8 -1,4.4 0.7,5.8 l 5.3,4.7 c 1.7,1.5 4.3,1.5 5.9,-0.1 z"
   id="path90"
   inkscape:connector-curvature="0"
   style="fill:#004371" />
	<path
   d="m 382.1,211 c 1.9,-1.3 2.3,-3.8 1,-5.6 l -6.9,-8.6 c -1.4,-1.7 -4,-1.9 -5.7,-0.4 l -14.1,12.8 c -1.7,1.5 -1.9,4.2 -0.4,5.9 l 4.5,5.5 c 1.3,1.8 3.9,2.3 5.8,1 z"
   id="path92"
   inkscape:connector-curvature="0"
   style="fill:#004371" />
	<path
   d="m 403.4,373 c 2.3,0 4.1,-1.8 4.1,-4.1 v -7.2 c 0,-2.3 -1.8,-4.1 -4.1,-4.1 h -19 c -2.3,0 -4.1,1.8 -4.1,4.1 v 7.2 c 0,2.3 1.8,4.1 4.1,4.1 z"
   id="path94"
   inkscape:connector-curvature="0"
   style="fill:#ffb02a" />
	<path
   d="m 485.4,459.9 c -2.2,0 -4.1,1.8 -4.1,4.1 v 7.2 c 0,2.3 1.8,4.1 4.1,4.1 h 19 c 2.3,0 4.1,-1.8 4.1,-4.1 V 464 c 0,-2.2 -1.8,-4.1 -4.1,-4.1 z"
   id="path96"
   inkscape:connector-curvature="0"
   style="fill:#752994" />
	<path
   d="m 485.4,439.5 c -2.2,0 -4.1,1.8 -4.1,4.1 v 7.2 c 0,2.3 1.8,4.1 4.1,4.1 h 19 c 2.3,0 4.1,-1.8 4.1,-4.1 v -7.2 c 0,-2.2 -1.8,-4.1 -4.1,-4.1 z"
   id="path98"
   inkscape:connector-curvature="0"
   style="fill:#ffb02a" />
	<path
   d="m 485.4,419 c -2.2,0 -4.1,1.8 -4.1,4.1 v 7.2 c 0,2.3 1.8,4.1 4.1,4.1 h 19 c 2.3,0 4.1,-1.8 4.1,-4.1 v -7.2 c 0,-2.3 -1.8,-4.1 -4.1,-4.1 z"
   id="path100"
   inkscape:connector-curvature="0"
   style="fill:#ffb02a" />
	<path
   d="m 485.3,398.6 c -2.2,0 -4.1,1.8 -4.1,4.1 v 7.2 c 0,2.3 1.8,4.1 4.1,4.1 h 19 c 2.3,0 4.1,-1.8 4.1,-4.1 v -7.2 c 0,-2.2 -1.8,-4.1 -4.1,-4.1 z"
   id="path102"
   inkscape:connector-curvature="0"
   style="fill:#ffb02a" />
	<path
   d="m 485.3,378.1 c -2.2,0 -4.1,1.8 -4.1,4.1 v 7.2 c 0,2.3 1.8,4.1 4.1,4.1 h 19 c 2.3,0 4.1,-1.8 4.1,-4.1 v -7.2 c 0,-2.2 -1.8,-4.1 -4.1,-4.1 z"
   id="path104"
   inkscape:connector-curvature="0"
   style="fill:#ffb02a" />
	<path
   d="m 485.3,357.6 c -2.2,0 -4.1,1.8 -4.1,4.1 v 7.2 c 0,2.3 1.8,4.1 4.1,4.1 h 19 c 2.3,0 4.1,-1.8 4.1,-4.1 v -7.2 c 0,-2.2 -1.8,-4.1 -4.1,-4.1 z"
   id="path106"
   inkscape:connector-curvature="0"
   style="fill:#ffb02a" />
	<path
   d="m 418.2,459.9 c -2.2,0 -4.1,1.8 -4.1,4.1 v 7.2 c 0,2.3 1.8,4.1 4.1,4.1 h 19 c 2.3,0 4.1,-1.8 4.1,-4.1 V 464 c 0,-2.2 -1.8,-4.1 -4.1,-4.1 z"
   id="path108"
   inkscape:connector-curvature="0"
   style="fill:#ffb02a" />
	<path
   d="m 418.2,439.4 c -2.2,0 -4.1,1.8 -4.1,4.1 v 7.2 c 0,2.3 1.8,4.1 4.1,4.1 h 19 c 2.3,0 4.1,-1.8 4.1,-4.1 v -7.2 c 0,-2.2 -1.8,-4.1 -4.1,-4.1 z"
   id="path110"
   inkscape:connector-curvature="0"
   style="fill:#ffb02a" />
	<path
   d="m 384.4,459.9 c -2.2,0 -4.1,1.8 -4.1,4.1 v 7.2 c 0,2.3 1.8,4.1 4.1,4.1 h 19 c 2.3,0 4.1,-1.8 4.1,-4.1 V 464 c 0,-2.2 -1.8,-4.1 -4.1,-4.1 z"
   id="path112"
   inkscape:connector-curvature="0"
   style="fill:#ffb02a" />
	<path
   d="m 384.4,439.4 c -2.2,0 -4.1,1.8 -4.1,4.1 v 7.2 c 0,2.3 1.8,4.1 4.1,4.1 h 19 c 2.3,0 4.1,-1.8 4.1,-4.1 v -7.2 c 0,-2.2 -1.8,-4.1 -4.1,-4.1 z"
   id="path114"
   inkscape:connector-curvature="0"
   style="fill:#ffb02a" />
	<path
   d="m 418.2,419 c -2.2,0 -4.1,1.8 -4.1,4.1 v 7.2 c 0,2.3 1.8,4.1 4.1,4.1 h 19 c 2.3,0 4.1,-1.8 4.1,-4.1 v -7.2 c 0,-2.2 -1.8,-4.1 -4.1,-4.1 z"
   id="path116"
   inkscape:connector-curvature="0"
   style="fill:#ffb02a" />
	<path
   d="m 418.3,398.5 c -2.2,0 -4.1,1.8 -4.1,4.1 v 7.2 c 0,2.3 1.8,4.1 4.1,4.1 h 19 c 2.3,0 4.1,-1.8 4.1,-4.1 v -7.2 c 0,-2.2 -1.8,-4.1 -4.1,-4.1 z"
   id="path118"
   inkscape:connector-curvature="0"
   style="fill:#ffb02a" />
	<path
   d="m 418.3,378 c -2.2,0 -4.1,1.8 -4.1,4.1 v 7.2 c 0,2.3 1.8,4.1 4.1,4.1 h 19 c 2.3,0 4.1,-1.8 4.1,-4.1 v -7.2 c 0,-2.2 -1.8,-4.1 -4.1,-4.1 z"
   id="path120"
   inkscape:connector-curvature="0"
   style="fill:#ffb02a" />
	<path
   d="m 418.3,357.6 c -2.2,0 -4.1,1.8 -4.1,4.1 v 7.2 c 0,2.3 1.8,4.1 4.1,4.1 h 19 c 2.3,0 4.1,-1.8 4.1,-4.1 v -7.2 c 0,-2.2 -1.8,-4.1 -4.1,-4.1 z"
   id="path122"
   inkscape:connector-curvature="0"
   style="fill:#ffb02a" />
	<path
   d="m 470.8,373 c 2.2,0 4.1,-1.8 4.1,-4.1 v -7.2 c 0,-2.3 -1.8,-4.1 -4.1,-4.1 h -19 c -2.3,0 -4.1,1.8 -4.1,4.1 v 7.2 c 0,2.2 1.8,4.1 4.1,4.1 z"
   id="path124"
   inkscape:connector-curvature="0"
   style="fill:#ffb02a" />
	<path
   d="m 470.8,393.4 c 2.2,0 4.1,-1.8 4.1,-4.1 v -7.2 c 0,-2.3 -1.8,-4.1 -4.1,-4.1 h -19 c -2.3,0 -4.1,1.8 -4.1,4.1 v 7.2 c 0,2.2 1.8,4.1 4.1,4.1 z"
   id="path126"
   inkscape:connector-curvature="0"
   style="fill:#ffb02a" />
	<path
   d="m 470.8,413.9 c 2.2,0 4.1,-1.8 4.1,-4.1 v -7.2 c 0,-2.3 -1.8,-4.1 -4.1,-4.1 h -19 c -2.3,0 -4.1,1.8 -4.1,4.1 v 7.2 c 0,2.2 1.8,4.1 4.1,4.1 z"
   id="path128"
   inkscape:connector-curvature="0"
   style="fill:#ffb02a" />
	<path
   d="m 470.8,434.3 c 2.2,0 4.1,-1.8 4.1,-4.1 V 423 c 0,-2.3 -1.8,-4.1 -4.1,-4.1 h -19 c -2.3,0 -4.1,1.8 -4.1,4.1 v 7.2 c 0,2.2 1.8,4.1 4.1,4.1 z"
   id="path130"
   inkscape:connector-curvature="0"
   style="fill:#ffb02a" />
	<path
   d="m 470.8,454.8 c 2.2,0 4.1,-1.8 4.1,-4.1 v -7.2 c 0,-2.3 -1.8,-4.1 -4.1,-4.1 h -19 c -2.3,0 -4.1,1.8 -4.1,4.1 v 7.2 c 0,2.2 1.8,4.1 4.1,4.1 z"
   id="path132"
   inkscape:connector-curvature="0"
   style="fill:#ffb02a" />
	<path
   d="m 470.8,475.2 c 2.2,0 4.1,-1.8 4.1,-4.1 v -7.2 c 0,-2.3 -1.8,-4.1 -4.1,-4.1 h -19 c -2.3,0 -4.1,1.8 -4.1,4.1 v 7.2 c 0,2.2 1.8,4.1 4.1,4.1 z"
   id="path134"
   inkscape:connector-curvature="0"
   style="fill:#ffb02a" />
	<path
   d="m 403.4,393.4 c 2.2,0 4.1,-1.8 4.1,-4.1 v -7.2 c 0,-2.3 -1.8,-4.1 -4.1,-4.1 h -19 c -2.3,0 -4.1,1.8 -4.1,4.1 v 7.2 c 0,2.2 1.8,4.1 4.1,4.1 z"
   id="path136"
   inkscape:connector-curvature="0"
   style="fill:#ffb02a" />
	<path
   d="m 403.4,413.9 c 2.2,0 4.1,-1.8 4.1,-4.1 v -7.2 c 0,-2.3 -1.8,-4.1 -4.1,-4.1 h -19 c -2.3,0 -4.1,1.8 -4.1,4.1 v 7.2 c 0,2.2 1.8,4.1 4.1,4.1 z"
   id="path138"
   inkscape:connector-curvature="0"
   style="fill:#ffb02a" />
	<path
   d="m 403.4,434.3 c 2.2,0 4.1,-1.8 4.1,-4.1 V 423 c 0,-2.3 -1.8,-4.1 -4.1,-4.1 h -19 c -2.3,0 -4.1,1.8 -4.1,4.1 v 7.2 c 0,2.2 1.8,4.1 4.1,4.1 z"
   id="path140"
   inkscape:connector-curvature="0"
   style="fill:#ffb02a" />
	<path
   d="m 485.2,307.3 c -2.2,0 -4.1,1.8 -4.1,4.1 v 8 c 0,2.2 1.8,4.1 4.1,4.1 h 19 c 2.3,0 4.1,-1.8 4.1,-4.1 v -8 c 0,-2.2 -1.8,-4.1 -4.1,-4.1 z"
   id="path142"
   inkscape:connector-curvature="0"
   style="fill:#ffb02a" />
	<path
   d="m 485.1,285.8 c -2.2,0 -4.1,1.8 -4.1,4.1 v 8 c 0,2.2 1.8,4.1 4.1,4.1 h 19 c 2.2,0 4.1,-1.8 4.1,-4.1 v -8 c 0,-2.2 -1.8,-4.1 -4.1,-4.1 z"
   id="path144"
   inkscape:connector-curvature="0"
   style="fill:#ffb02a" />
	<path
   d="m 484.1,265.1 c -2.2,0.2 -3.9,2.2 -3.7,4.5 l 0.5,7 c 0.1,2.2 2,4 4.2,4 l 19,-0.4 c 2.2,-0.1 4,-1.9 4,-4.2 l -0.6,-9 c -0.2,-2.2 -2.2,-3.9 -4.4,-3.7 z"
   id="path146"
   inkscape:connector-curvature="0"
   style="fill:#ffb02a" />
	<path
   d="m 481.2,244.7 c -2.2,0.4 -3.7,2.6 -3.3,4.8 l 1.1,6.9 c 0.3,2.2 2.4,3.8 4.6,3.6 l 18.9,-2.3 c 2.2,-0.3 3.8,-2.3 3.5,-4.5 l -1.4,-8.9 c -0.4,-2.2 -2.5,-3.7 -4.7,-3.3 z"
   id="path148"
   inkscape:connector-curvature="0"
   style="fill:#ffb02a" />
	<path
   d="m 476.2,224.7 c -2.2,0.6 -3.4,2.9 -2.8,5.1 l 1.7,6.8 c 0.5,2.2 2.8,3.6 5,3.1 l 18.6,-4.1 c 2.2,-0.5 3.6,-2.7 3,-4.9 l -2.2,-8.7 c -0.6,-2.2 -2.9,-3.4 -5.1,-2.8 z"
   id="path150"
   inkscape:connector-curvature="0"
   style="fill:#ffb02a" />
	<path
   d="m 469.4,205.2 c -2.1,0.9 -3.1,3.3 -2.4,5.4 l 2.6,6.5 c 0.7,2.1 3,3.3 5.2,2.6 l 18.1,-5.9 c 2.1,-0.7 3.3,-3 2.6,-5.2 l -3.2,-8.4 c -0.8,-2.1 -3.1,-3.1 -5.2,-2.3 z"
   id="path152"
   inkscape:connector-curvature="0"
   style="fill:#ffb02a" />
	<path
   d="m 460.7,186.5 c -2,1 -2.8,3.5 -1.8,5.6 l 2.9,6.4 c 1,2 3.5,2.9 5.5,2 l 17.4,-7.6 c 2.1,-0.9 3,-3.3 2,-5.3 l -3.8,-8.2 c -1,-2 -3.5,-2.8 -5.5,-1.7 z"
   id="path154"
   inkscape:connector-curvature="0"
   style="fill:#ffb02a" />
	<path
   d="m 514,175.4 c 2,-0.9 2.9,-3.3 1.9,-5.4 l -3.8,-7.6 c -1,-2 -3.4,-2.8 -5.4,-1.7 l -16.8,9 c -2,1.1 -2.8,3.6 -1.8,5.6 l 3,6.1 c 1,2 3.5,2.9 5.5,2 z"
   id="path156"
   inkscape:connector-curvature="0"
   style="fill:#ffb02a" />
	<path
   d="m 522.2,195.7 c 2.1,-0.8 3.2,-3.1 2.4,-5.2 l -3.1,-7.9 c -0.9,-2.1 -3.3,-3 -5.4,-2.1 l -17.5,7.6 c -2.1,0.9 -3,3.3 -2.1,5.4 l 2.4,6.3 c 0.8,2.1 3.2,3.2 5.3,2.4 z"
   id="path158"
   inkscape:connector-curvature="0"
   style="fill:#ffb02a" />
	<path
   d="m 528.8,216.6 c 2.2,-0.6 3.5,-2.8 2.9,-5 l -2.6,-8.1 c -0.6,-2.2 -2.9,-3.3 -5.1,-2.6 l -18,6.1 c -2.1,0.7 -3.4,3.1 -2.7,5.2 l 2.1,6.5 c 0.6,2.2 2.8,3.5 5,2.9 z"
   id="path160"
   inkscape:connector-curvature="0"
   style="fill:#ffb02a" />
	<path
   d="m 533.6,238 c 2.2,-0.4 3.6,-2.5 3.2,-4.7 l -1.7,-8.3 c -0.5,-2.2 -2.7,-3.5 -4.9,-3 l -18.5,4.6 c -2.2,0.5 -3.6,2.8 -3,5 l 1.3,6.7 c 0.5,2.2 2.7,3.7 4.9,3.3 z"
   id="path162"
   inkscape:connector-curvature="0"
   style="fill:#ffb02a" />
	<path
   d="m 536.6,259.7 c 2.2,-0.2 3.9,-2.2 3.6,-4.5 l -1.1,-8.4 c -0.3,-2.2 -2.4,-3.8 -4.7,-3.4 l -18.8,3 c -2.2,0.4 -3.8,2.5 -3.4,4.7 l 0.8,6.8 c 0.2,2.2 2.3,3.9 4.5,3.7 z"
   id="path164"
   inkscape:connector-curvature="0"
   style="fill:#ffb02a" />
	<path
   d="m 537.8,281.6 c 2.2,0 4.1,-1.9 4,-4.1 l -0.5,-8.5 c -0.1,-2.2 -2,-4 -4.3,-3.8 l -19,1.4 c -2.2,0.2 -4,2.1 -3.9,4.4 l 0.5,6.8 c 0,2.2 1.9,4.1 4.1,4 z"
   id="path166"
   inkscape:connector-curvature="0"
   style="fill:#ffb02a" />
	<path
   d="m 418.4,304.8 c -2.3,0 -4.1,1.8 -4.1,4.1 v 9.1 c 0,2.2 1.8,4.1 4.1,4.1 h 19 c 2.2,0 4.1,-1.8 4.1,-4.1 v -9.1 c 0,-2.3 -1.8,-4.1 -4.1,-4.1 z"
   id="path168"
   inkscape:connector-curvature="0"
   style="fill:#ffb02a" />
	<path
   d="m 418.3,282.1 c -2.2,0.1 -4.1,1.9 -4.1,4.2 l 0.1,8.7 c 0,2.2 1.8,4.1 4.1,4.1 h 19 c 2.3,0 4.1,-1.8 4.1,-4.1 l -0.1,-9.4 c 0,-2.3 -1.9,-4.1 -4.1,-4 z"
   id="path170"
   inkscape:connector-curvature="0"
   style="fill:#ffb02a" />
	<path
   d="m 416.2,260.6 c -2.2,0.4 -3.8,2.5 -3.5,4.7 l 0.9,7.5 c 0.2,2.2 2.2,4 4.5,3.8 l 19,-1.1 c 2.2,-0.1 3.9,-2.1 3.7,-4.3 l -1.2,-10.5 c -0.3,-2.2 -2.4,-3.7 -4.6,-3.4 z"
   id="path172"
   inkscape:connector-curvature="0"
   style="fill:#ffb02a" />
	<path
   d="m 411,239.7 c -2.1,0.7 -3.3,3.1 -2.7,5.2 l 1.9,7.3 c 0.5,2.2 2.7,3.6 4.9,3.1 l 18.6,-3.9 c 2.2,-0.5 3.6,-2.6 3.1,-4.8 l -2.7,-10.2 c -0.7,-2.2 -2.9,-3.3 -5.1,-2.6 z"
   id="path174"
   inkscape:connector-curvature="0"
   style="fill:#ffb02a" />
	<path
   d="m 402.8,219.8 c -2,1 -2.9,3.5 -1.9,5.6 l 3,6.9 c 0.9,2.1 3.3,3.1 5.4,2.4 l 17.8,-6.7 c 2.1,-0.8 3.1,-3.1 2.3,-5.2 l -4.2,-9.7 c -1,-2 -3.4,-2.9 -5.4,-1.9 z"
   id="path176"
   inkscape:connector-curvature="0"
   style="fill:#ffb02a" />
	<path
   d="m 455.9,210.3 c 2.1,-0.9 3,-3.2 2.1,-5.3 l -3.9,-8.8 c -1,-2 -3.5,-2.8 -5.5,-1.8 l -16.9,8.8 c -2,1 -2.8,3.5 -1.8,5.5 l 2.9,6.6 c 0.9,2.1 3.4,3 5.5,2.2 z"
   id="path178"
   inkscape:connector-curvature="0"
   style="fill:#ffb02a" />
	<path
   d="m 463.4,232.3 c 2.2,-0.6 3.4,-2.9 2.7,-5 l -2.9,-9.2 c -0.8,-2.1 -3.1,-3.2 -5.2,-2.4 l -17.8,6.7 c -2.1,0.8 -3.2,3.2 -2.4,5.3 l 2.1,6.9 c 0.7,2.1 3,3.4 5.2,2.8 z"
   id="path180"
   inkscape:connector-curvature="0"
   style="fill:#ffb02a" />
	<path
   d="m 468.3,255 c 2.2,-0.3 3.7,-2.4 3.3,-4.6 l -1.7,-9.5 c -0.5,-2.2 -2.7,-3.5 -4.9,-3 l -18.5,4.6 c -2.2,0.5 -3.6,2.8 -3.1,5 l 1.3,7.1 c 0.4,2.2 2.6,3.7 4.8,3.4 z"
   id="path182"
   inkscape:connector-curvature="0"
   style="fill:#ffb02a" />
	<path
   d="m 470.5,278.2 c 2.2,-0.1 4,-2 3.8,-4.2 l -0.6,-9.6 c -0.2,-2.2 -2.3,-3.8 -4.5,-3.6 l -18.9,2.4 c -2.2,0.3 -3.9,2.3 -3.6,4.6 l 0.4,7.2 c 0.2,2.2 2.1,4 4.4,3.9 z"
   id="path184"
   inkscape:connector-curvature="0"
   style="fill:#ffb02a" />
	<path
   d="m 470.7,300.7 c 2.3,0 4.1,-1.8 4.1,-4.1 l -0.1,-8.5 c 0,-2.3 -1.8,-4.1 -4.1,-4.1 l -19,0.1 c -2.2,0 -4.1,1.9 -4.1,4.1 v 8.4 c 0,2.2 1.8,4.1 4.1,4.1 z"
   id="path186"
   inkscape:connector-curvature="0"
   style="fill:#ffb02a" />
	<path
   d="m 470.7,322.9 c 2.3,0 4.1,-1.8 4.1,-4.1 v -8.4 c 0,-2.2 -1.8,-4.1 -4.1,-4.1 h -19 c -2.2,0 -4.1,1.8 -4.1,4.1 v 8.4 c 0,2.2 1.8,4.1 4.1,4.1 z"
   id="path188"
   inkscape:connector-curvature="0"
   style="fill:#ffb02a" />
	<path
   d="m 397.5,246.4 c 2.1,-0.7 3.3,-3 2.5,-5.1 l -4.3,-11.1 c -0.9,-2.1 -3.3,-2.9 -5.3,-1.9 l -17.1,8.3 c -2,1 -2.9,3.5 -2,5.5 l 2.8,7.3 c 0.8,2.1 3.2,3.3 5.3,2.6 z"
   id="path190"
   inkscape:connector-curvature="0"
   style="fill:#004371" />
	<path
   d="m 402.7,271.8 c 2.2,-0.2 3.8,-2.2 3.5,-4.5 l -2.1,-11.7 c -0.5,-2.2 -2.7,-3.5 -4.8,-3 l -18.4,4.8 c -2.2,0.6 -3.6,2.8 -3.1,5 l 1.4,7.7 c 0.3,2.2 2.4,3.9 4.6,3.6 z"
   id="path192"
   inkscape:connector-curvature="0"
   style="fill:#ffb02a" />
	<path
   d="m 403.4,296.9 c 2.2,0 4.1,-1.8 4.1,-4.1 l -0.2,-10.6 c 0,-2.2 -1.9,-4 -4.2,-3.9 l -19,1 c -2.2,0.1 -4.1,2.1 -4,4.3 l 0.1,9.1 c 0,2.2 1.8,4.1 4.1,4.1 z"
   id="path194"
   inkscape:connector-curvature="0"
   style="fill:#ffb02a" />
	<path
   d="m 403.4,321 c 2.3,0 4.1,-1.8 4.1,-4.1 V 307 c 0,-2.2 -1.8,-4.1 -4.1,-4.1 h -19 c -2.2,0 -4.1,1.8 -4.1,4.1 v 9.9 c 0,2.2 1.8,4.1 4.1,4.1 z"
   id="path196"
   inkscape:connector-curvature="0"
   style="fill:#ffb02a" />
	<path
   d="m 485.2,329.6 c -2.2,0 -4.1,1.8 -4.1,4.1 v 8 c 0,2.2 1.8,4.1 4.1,4.1 h 19 c 2.3,0 4.1,-1.8 4.1,-4.1 v -8 c 0,-2.2 -1.8,-4.1 -4.1,-4.1 z"
   id="path198"
   inkscape:connector-curvature="0"
   style="fill:#ffb02a" />
	<path
   d="m 418.4,327.1 c -2.3,0 -4.1,1.8 -4.1,4.1 v 9.1 c 0,2.2 1.8,4.1 4.1,4.1 h 19 c 2.2,0 4.1,-1.8 4.1,-4.1 v -9.1 c 0,-2.3 -1.8,-4.1 -4.1,-4.1 z"
   id="path200"
   inkscape:connector-curvature="0"
   style="fill:#ffb02a" />
	<path
   d="m 470.7,345.1 c 2.3,0 4.1,-1.8 4.1,-4.1 v -8.4 c 0,-2.2 -1.8,-4.1 -4.1,-4.1 h -19 c -2.2,0 -4.1,1.8 -4.1,4.1 v 8.4 c 0,2.2 1.8,4.1 4.1,4.1 z"
   id="path202"
   inkscape:connector-curvature="0"
   style="fill:#ffb02a" />
	<path
   d="m 403.4,343.2 c 2.3,0 4.1,-1.8 4.1,-4.1 v -9.9 c 0,-2.2 -1.8,-4.1 -4.1,-4.1 h -19 c -2.2,0 -4.1,1.8 -4.1,4.1 v 9.9 c 0,2.2 1.8,4.1 4.1,4.1 z"
   id="path204"
   inkscape:connector-curvature="0"
   style="fill:#ffb02a" />
	<path
   d="m 249.7,19.7 c -0.2,-2.2 1.5,-4.2 3.7,-4.4 l 7.3,-0.5 c 2.3,-0.1 4.2,1.6 4.2,3.8 l 0.7,19.1 c 0.1,2.3 -1.7,4.2 -4,4.4 l -5.7,0.4 c -2.3,0.1 -4.3,-1.6 -4.5,-3.8 z"
   id="path206"
   inkscape:connector-curvature="0"
   style="fill:#004371" />
	<path
   d="m 229.5,22.3 c -0.4,-2.2 1.1,-4.3 3.4,-4.6 l 7.2,-1.1 c 2.2,-0.3 4.3,1.4 4.5,3.6 l 2.1,19 c 0.2,2.2 -1.4,4.3 -3.6,4.6 l -5.7,0.9 c -2.2,0.3 -4.4,-1.3 -4.8,-3.5 z"
   id="path208"
   inkscape:connector-curvature="0"
   style="fill:#004371" />
	<path
   d="m 209.6,26.5 c -0.5,-2.2 0.8,-4.4 3,-4.9 l 7.1,-1.6 c 2.2,-0.4 4.4,1.1 4.8,3.3 l 3.6,18.8 c 0.4,2.2 -1.1,4.4 -3.3,4.8 l -5.6,1.3 c -2.2,0.5 -4.5,-0.9 -5,-3.1 z"
   id="path210"
   inkscape:connector-curvature="0"
   style="fill:#004371" />
	<path
   d="m 190,32.3 c -0.7,-2.1 0.4,-4.5 2.6,-5.2 l 7,-2 c 2.2,-0.6 4.4,0.6 5,2.8 l 5,18.4 c 0.6,2.2 -0.7,4.5 -2.9,5.1 l -5.5,1.6 c -2.1,0.7 -4.5,-0.4 -5.2,-2.6 z"
   id="path212"
   inkscape:connector-curvature="0"
   style="fill:#004371" />
	<path
   d="m 170.9,39.4 c -0.9,-2.1 0.1,-4.5 2.2,-5.3 l 6.8,-2.6 c 2.1,-0.8 4.4,0.2 5.2,2.4 l 6.4,18 c 0.8,2.1 -0.3,4.5 -2.4,5.4 l -5.4,2 c -2.1,0.9 -4.5,-0.1 -5.4,-2.2 z"
   id="path214"
   inkscape:connector-curvature="0"
   style="fill:#004371" />
	<path
   d="m 134.7,58.2 c -1.2,-1.9 -0.6,-4.4 1.4,-5.6 l 6.3,-3.7 c 2,-1.1 4.5,-0.3 5.6,1.7 l 9.1,16.8 c 1.1,2 0.3,4.5 -1.7,5.6 l -4.9,3 c -1.9,1.2 -4.5,0.5 -5.7,-1.4 z"
   id="path216"
   inkscape:connector-curvature="0"
   style="fill:#004371" />
	<path
   d="m 117.8,69.6 c -1.3,-1.8 -0.9,-4.4 0.9,-5.7 l 6.1,-4.1 c 1.9,-1.3 4.4,-0.7 5.6,1.1 l 10.4,16 c 1.2,1.9 0.7,4.5 -1.2,5.8 l -4.8,3.2 c -1.8,1.3 -4.4,0.9 -5.7,-0.9 z"
   id="path218"
   inkscape:connector-curvature="0"
   style="fill:#004371" />
	<path
   d="m 101.8,82.2 c -1.5,-1.7 -1.2,-4.3 0.5,-5.7 l 5.7,-4.6 c 1.8,-1.4 4.3,-1.1 5.7,0.7 l 11.6,15.2 c 1.4,1.8 1,4.4 -0.7,5.9 l -4.5,3.6 c -1.8,1.4 -4.4,1.2 -5.9,-0.5 z"
   id="path220"
   inkscape:connector-curvature="0"
   style="fill:#004371" />
	<path
   d="m 86.8,96 c -1.6,-1.6 -1.6,-4.2 0.1,-5.7 l 5.3,-5.1 c 1.7,-1.5 4.3,-1.3 5.8,0.3 l 12.7,14.3 c 1.5,1.7 1.3,4.3 -0.3,5.8 l -4.1,4 c -1.6,1.5 -4.3,1.5 -5.9,-0.1 z"
   id="path222"
   inkscape:connector-curvature="0"
   style="fill:#004371" />
	<path
   d="m 73,111 c -1.7,-1.5 -1.9,-4.1 -0.4,-5.8 l 4.9,-5.4 c 1.6,-1.6 4.2,-1.7 5.8,-0.1 L 97,112.9 c 1.6,1.6 1.7,4.2 0.1,5.8 l -3.9,4.3 c -1.5,1.7 -4.1,1.9 -5.8,0.4 z"
   id="path224"
   inkscape:connector-curvature="0"
   style="fill:#004371" />
	<path
   d="m 60.3,126.9 c -1.8,-1.3 -2.2,-3.9 -0.9,-5.8 l 4.6,-5.7 c 1.4,-1.8 3.9,-2.1 5.7,-0.6 L 84.4,127 c 1.7,1.4 2,4.1 0.6,5.9 l -3.7,4.4 c -1.3,1.8 -3.9,2.2 -5.7,0.9 z"
   id="path226"
   inkscape:connector-curvature="0"
   style="fill:#004371" />
	<path
   d="m 48.7,143.7 c -1.9,-1.2 -2.5,-3.7 -1.2,-5.6 l 4.1,-6.1 c 1.3,-1.9 3.8,-2.4 5.6,-1 l 15.6,11 c 1.8,1.3 2.3,3.9 1.1,5.8 l -3.2,4.8 c -1.3,1.9 -3.8,2.4 -5.8,1.2 z"
   id="path228"
   inkscape:connector-curvature="0"
   style="fill:#004371" />
	<path
   d="m 102.4,158.9 c 1.8,1.3 2.3,3.9 1,5.8 l -3.4,4.8 c -1.2,1.9 -3.8,2.4 -5.7,1.2 L 78.1,160.5 c -1.9,-1.2 -2.5,-3.7 -1.2,-5.6 l 4.4,-6.3 c 1.3,-1.9 3.8,-2.3 5.6,-1 z"
   id="path230"
   inkscape:connector-curvature="0"
   style="fill:#004371" />
	<path
   d="m 114.4,144 c 1.7,1.5 1.9,4.1 0.4,5.8 l -3.7,4.6 c -1.4,1.8 -4,2.1 -5.8,0.7 L 90.1,143.5 c -1.8,-1.4 -2.1,-3.9 -0.7,-5.7 l 4.9,-6 c 1.5,-1.7 4.1,-1.9 5.8,-0.4 z"
   id="path232"
   inkscape:connector-curvature="0"
   style="fill:#004371" />
	<path
   d="m 127.6,130.2 c 1.6,1.6 1.5,4.3 0,5.9 l -4.2,4.1 c -1.6,1.6 -4.2,1.7 -5.9,0.2 l -14.1,-12.9 c -1.7,-1.5 -1.8,-4.1 -0.2,-5.8 l 5.5,-5.4 c 1.6,-1.6 4.2,-1.6 5.7,0.1 z"
   id="path234"
   inkscape:connector-curvature="0"
   style="fill:#004371" />
	<path
   d="m 142.1,117.6 c 1.4,1.8 1.1,4.4 -0.7,5.8 l -4.4,3.9 c -1.7,1.5 -4.3,1.3 -5.9,-0.3 l -12.9,-14.1 c -1.5,-1.7 -1.4,-4.3 0.3,-5.7 l 5.8,-5 c 1.8,-1.4 4.4,-1.1 5.8,0.6 z"
   id="path236"
   inkscape:connector-curvature="0"
   style="fill:#004371" />
	<path
   d="m 157.6,106.3 c 1.2,1.9 0.7,4.5 -1.1,5.8 l -4.9,3.3 c -1.8,1.3 -4.4,1 -5.8,-0.8 L 134.3,99.4 c -1.4,-1.8 -1,-4.4 0.8,-5.7 l 6.4,-4.4 c 1.8,-1.3 4.4,-0.8 5.6,1.1 z"
   id="path238"
   inkscape:connector-curvature="0"
   style="fill:#004371" />
	<path
   d="m 174.1,96.6 c 1.1,2 0.3,4.5 -1.7,5.6 l -5,3 c -1.9,1.2 -4.5,0.5 -5.7,-1.4 L 151.6,87.6 c -1.2,-1.9 -0.6,-4.4 1.3,-5.6 l 6.6,-3.9 c 2,-1.1 4.5,-0.3 5.5,1.7 z"
   id="path240"
   inkscape:connector-curvature="0"
   style="fill:#004371" />
	<path
   d="m 191.3,88.3 c 0.9,2.1 -0.1,4.6 -2.1,5.5 l -5.4,2.4 c -2,1 -4.5,0.2 -5.5,-1.9 l -8.6,-17 c -1,-2 -0.2,-4.5 1.8,-5.5 l 7.1,-3.2 c 2.1,-1 4.5,0 5.3,2.1 z"
   id="path242"
   inkscape:connector-curvature="0"
   style="fill:#004371" />
	<path
   d="m 209.3,81.7 c 0.7,2.2 -0.5,4.5 -2.6,5.2 l -5.5,2 c -2.1,0.8 -4.5,-0.3 -5.4,-2.4 l -7.1,-17.7 c -0.8,-2.1 0.2,-4.5 2.3,-5.3 l 7.3,-2.7 c 2.1,-0.7 4.5,0.5 5.2,2.6 z"
   id="path244"
   inkscape:connector-curvature="0"
   style="fill:#004371" />
	<path
   d="m 227.8,76.6 c 0.5,2.2 -0.9,4.5 -3.1,5 L 219,83 c -2.2,0.6 -4.5,-0.7 -5.1,-2.9 l -5.4,-18.3 c -0.6,-2.2 0.6,-4.4 2.8,-5 l 7.5,-1.9 c 2.2,-0.6 4.4,0.8 4.9,3 z"
   id="path246"
   inkscape:connector-curvature="0"
   style="fill:#004371" />
	<path
   d="m 246.6,73.3 c 0.3,2.2 -1.3,4.3 -3.5,4.6 l -5.8,1 c -2.2,0.4 -4.4,-1.1 -4.8,-3.3 l -3.7,-18.7 c -0.4,-2.2 1,-4.4 3.2,-4.8 l 7.6,-1.3 c 2.2,-0.3 4.3,1.3 4.6,3.5 z"
   id="path248"
   inkscape:connector-curvature="0"
   style="fill:#004371" />
	<path
   d="m 265.7,71.6 c 0.1,2.3 -1.7,4.2 -3.9,4.4 l -5.9,0.5 c -2.3,0.2 -4.3,-1.5 -4.5,-3.8 l -2,-19 c -0.2,-2.2 1.4,-4.2 3.7,-4.4 l 7.7,-0.6 c 2.3,-0.1 4.2,1.6 4.3,3.8 z"
   id="path250"
   inkscape:connector-curvature="0"
   style="fill:#004371" />
	<path
   d="m 248.7,87.6 c -0.3,-2.2 1.3,-4.2 3.6,-4.4 l 8.3,-0.9 c 2.3,-0.1 4.2,1.6 4.3,3.9 l 0.9,19.1 c 0.1,2.3 -1.7,4.2 -3.9,4.3 l -6.1,0.7 c -2.2,0.2 -4.3,-1.5 -4.6,-3.7 z"
   id="path252"
   inkscape:connector-curvature="0"
   style="fill:#004371" />
	<path
   d="m 227.5,91.5 c -0.5,-2.2 0.8,-4.4 3,-4.9 l 8.2,-1.5 c 2.2,-0.4 4.3,1.1 4.7,3.3 l 3,18.9 c 0.3,2.2 -1.2,4.4 -3.4,4.8 l -6,1.1 c -2.2,0.5 -4.4,-0.9 -5,-3.1 z"
   id="path254"
   inkscape:connector-curvature="0"
   style="fill:#004371" />
	<path
   d="m 206.8,97.7 c -0.8,-2.1 0.3,-4.5 2.5,-5.2 l 8,-2.4 c 2.2,-0.7 4.4,0.6 5,2.8 l 5,18.4 c 0.6,2.2 -0.7,4.5 -2.9,5.2 l -5.9,1.7 c -2.1,0.7 -4.5,-0.4 -5.3,-2.5 z"
   id="path256"
   inkscape:connector-curvature="0"
   style="fill:#004371" />
	<path
   d="m 186.9,106.2 c -1,-2 -0.1,-4.5 1.9,-5.4 l 7.6,-3.3 c 2.1,-0.9 4.5,0.1 5.3,2.2 l 7,17.8 c 0.8,2.1 -0.2,4.5 -2.3,5.4 l -5.6,2.4 c -2,1 -4.5,0.1 -5.5,-1.9 z"
   id="path258"
   inkscape:connector-curvature="0"
   style="fill:#004371" />
	<path
   d="m 168.1,116.8 c -1.2,-1.9 -0.6,-4.4 1.3,-5.6 l 7.2,-4.2 c 2,-1.1 4.5,-0.3 5.5,1.7 l 8.9,16.9 c 1.1,2 0.3,4.5 -1.7,5.6 l -5.2,3.1 c -1.9,1.2 -4.5,0.6 -5.7,-1.3 z"
   id="path260"
   inkscape:connector-curvature="0"
   style="fill:#004371" />
	<path
   d="m 150.5,129.4 c -1.4,-1.8 -1.1,-4.3 0.7,-5.7 l 6.6,-5.1 c 1.9,-1.3 4.4,-0.8 5.7,1.1 l 10.7,15.8 c 1.3,1.9 0.8,4.5 -1.1,5.7 l -4.8,3.7 c -1.8,1.4 -4.4,1 -5.9,-0.7 z"
   id="path262"
   inkscape:connector-curvature="0"
   style="fill:#004371" />
	<path
   d="m 134.4,143.8 c -1.6,-1.6 -1.6,-4.2 0.1,-5.7 l 6.1,-5.7 c 1.7,-1.5 4.3,-1.3 5.7,0.4 l 12.3,14.6 c 1.5,1.7 1.3,4.3 -0.4,5.8 l -4.4,4.2 c -1.6,1.5 -4.3,1.5 -5.9,-0.1 z"
   id="path264"
   inkscape:connector-curvature="0"
   style="fill:#004371" />
	<path
   d="m 119.9,159.8 c -1.8,-1.4 -2,-4 -0.6,-5.7 l 5.5,-6.2 c 1.5,-1.7 4.1,-1.8 5.7,-0.2 l 13.8,13.2 c 1.6,1.6 1.7,4.2 0.2,5.9 l -4.1,4.6 c -1.4,1.7 -4.1,2 -5.8,0.6 z"
   id="path266"
   inkscape:connector-curvature="0"
   style="fill:#004371" />
	<path
   d="m 107.2,177.3 c -1.9,-1.2 -2.4,-3.8 -1.2,-5.6 l 4.9,-6.7 c 1.3,-1.8 3.8,-2.2 5.6,-0.9 l 15.2,11.6 c 1.8,1.4 2.2,4 0.9,5.8 l -3.7,4.9 c -1.2,1.9 -3.8,2.4 -5.7,1.2 z"
   id="path268"
   inkscape:connector-curvature="0"
   style="fill:#004371" />
	<path
   d="m 161.2,192.3 c 1.8,1.4 2.1,4.1 0.7,5.9 l -3.9,5.2 c -1.3,1.9 -3.9,2.4 -5.8,1.1 l -16,-10.5 c -1.9,-1.2 -2.4,-3.8 -1.1,-5.6 l 5.5,-7.5 c 1.4,-1.8 3.9,-2.1 5.7,-0.7 z"
   id="path270"
   inkscape:connector-curvature="0"
   style="fill:#004371" />
	<path
   d="m 190.7,164.9 c 1.3,1.8 0.9,4.5 -0.9,5.8 l -5.1,4 c -1.7,1.4 -4.4,1.2 -5.9,-0.5 l -12.5,-14.4 c -1.5,-1.7 -1.3,-4.3 0.5,-5.7 l 7.4,-5.7 c 1.8,-1.3 4.4,-0.9 5.7,0.9 z"
   id="path272"
   inkscape:connector-curvature="0"
   style="fill:#004371" />
	<path
   d="m 207.9,154.4 c 1,2 0.3,4.5 -1.7,5.6 l -5.6,3.3 c -1.9,1.2 -4.5,0.6 -5.7,-1.3 l -10.4,-16 c -1.2,-1.9 -0.7,-4.4 1.3,-5.6 l 8,-4.7 c 2,-1.1 4.4,-0.3 5.5,1.7 z"
   id="path274"
   inkscape:connector-curvature="0"
   style="fill:#004371" />
	<path
   d="m 226.4,146.5 c 0.7,2.1 -0.4,4.5 -2.5,5.3 l -6,2.5 c -2.1,0.9 -4.5,0 -5.5,-2.1 l -8.1,-17.3 c -1,-2 -0.1,-4.5 2,-5.4 l 8.6,-3.5 c 2.1,-0.8 4.5,0.3 5.2,2.5 z"
   id="path276"
   inkscape:connector-curvature="0"
   style="fill:#004371" />
	<path
   d="m 245.9,141.3 c 0.4,2.2 -1,4.4 -3.2,5 l -6.3,1.5 c -2.2,0.6 -4.5,-0.7 -5.2,-2.8 l -5.6,-18.3 c -0.7,-2.2 0.6,-4.4 2.7,-5 l 9.1,-2.2 c 2.2,-0.5 4.4,0.9 4.8,3.1 z"
   id="path278"
   inkscape:connector-curvature="0"
   style="fill:#004371" />
	<path
   d="m 265.9,138.7 c 0.1,2.3 -1.6,4.2 -3.9,4.4 l -6.4,0.8 c -2.2,0.3 -4.4,-1.3 -4.7,-3.5 l -3,-18.8 c -0.4,-2.2 1.2,-4.3 3.4,-4.6 l 9.3,-1.1 c 2.2,-0.2 4.2,1.5 4.3,3.8 z"
   id="path280"
   inkscape:connector-curvature="0"
   style="fill:#004371" />
	<path
   d="m 246.2,156.5 c -0.5,-2.2 0.9,-4.3 3.2,-4.7 l 10.9,-1.7 c 2.2,-0.2 4.2,1.4 4.4,3.7 l 1.4,19 c 0.2,2.3 -1.5,4.3 -3.8,4.5 l -7,1.1 c -2.2,0.4 -4.4,-1.1 -4.9,-3.3 z"
   id="path282"
   inkscape:connector-curvature="0"
   style="fill:#004371" />
	<path
   d="m 222.6,164.1 c -0.9,-2.1 0.1,-4.4 2.2,-5.3 l 10.4,-3.6 c 2.2,-0.7 4.4,0.6 5,2.8 l 5,18.4 c 0.6,2.2 -0.7,4.5 -2.9,5.2 l -6.7,2.3 c -2.1,0.8 -4.6,-0.2 -5.4,-2.3 z"
   id="path284"
   inkscape:connector-curvature="0"
   style="fill:#004371" />
	<path
   d="m 200.8,176 c -1.3,-1.9 -0.7,-4.4 1.2,-5.6 l 9.5,-5.5 c 2,-1.1 4.4,-0.3 5.4,1.8 l 8.4,17.2 c 1,2 0.2,4.6 -1.8,5.6 l -6.2,3.5 c -1.9,1.2 -4.5,0.7 -5.8,-1.2 z"
   id="path286"
   inkscape:connector-curvature="0"
   style="fill:#004371" />
	<path
   d="m 181.8,191.9 c -1.6,-1.6 -1.5,-4.2 0.1,-5.7 l 8.2,-7.3 c 1.8,-1.4 4.3,-1.1 5.7,0.7 l 11.5,15.3 c 1.4,1.8 1,4.4 -0.7,5.8 l -5.3,4.7 c -1.7,1.5 -4.3,1.5 -5.9,-0.1 z"
   id="path288"
   inkscape:connector-curvature="0"
   style="fill:#004371" />
	<path
   d="m 166,211 c -1.9,-1.3 -2.3,-3.8 -1,-5.6 l 6.9,-8.6 c 1.4,-1.7 4,-1.9 5.7,-0.4 l 14.1,12.8 c 1.7,1.5 1.9,4.2 0.4,5.9 l -4.5,5.5 c -1.3,1.8 -3.9,2.3 -5.8,1 z"
   id="path290"
   inkscape:connector-curvature="0"
   style="fill:#004371" />
	<path
   d="m 144.6,373 c -2.3,0 -4.1,-1.8 -4.1,-4.1 v -7.2 c 0,-2.3 1.8,-4.1 4.1,-4.1 h 19 c 2.3,0 4.1,1.8 4.1,4.1 v 7.2 c 0,2.3 -1.8,4.1 -4.1,4.1 z"
   id="path292"
   inkscape:connector-curvature="0"
   style="fill:#f13516" />
	<path
   d="m 62.6,439.5 c 2.2,0 4.1,1.8 4.1,4.1 v 7.2 c 0,2.3 -1.8,4.1 -4.1,4.1 h -19 c -2.3,0 -4.1,-1.8 -4.1,-4.1 v -7.2 c 0,-2.2 1.8,-4.1 4.1,-4.1 z"
   id="path294"
   inkscape:connector-curvature="0"
   style="fill:#f13516" />
	<path
   d="m 62.7,419 c 2.2,0 4.1,1.8 4.1,4.1 v 7.2 c 0,2.3 -1.8,4.1 -4.1,4.1 h -19 c -2.3,0 -4.1,-1.8 -4.1,-4.1 v -7.2 c 0,-2.2 1.8,-4.1 4.1,-4.1 z"
   id="path296"
   inkscape:connector-curvature="0"
   style="fill:#f13516" />
	<path
   d="m 62.7,398.6 c 2.2,0 4.1,1.8 4.1,4.1 v 7.2 c 0,2.3 -1.8,4.1 -4.1,4.1 h -19 c -2.3,0 -4.1,-1.8 -4.1,-4.1 v -7.2 c 0,-2.2 1.8,-4.1 4.1,-4.1 z"
   id="path298"
   inkscape:connector-curvature="0"
   style="fill:#f13516" />
	<path
   d="m 62.7,378.1 c 2.2,0 4.1,1.8 4.1,4.1 v 7.2 c 0,2.3 -1.8,4.1 -4.1,4.1 h -19 c -2.3,0 -4.1,-1.8 -4.1,-4.1 v -7.2 c 0,-2.2 1.8,-4.1 4.1,-4.1 z"
   id="path300"
   inkscape:connector-curvature="0"
   style="fill:#f13516" />
	<path
   d="m 62.8,357.6 c 2.2,0 4.1,1.8 4.1,4.1 v 7.2 c 0,2.3 -1.8,4.1 -4.1,4.1 h -19 c -2.3,0 -4.1,-1.8 -4.1,-4.1 v -7.2 c 0,-2.2 1.8,-4.1 4.1,-4.1 z"
   id="path302"
   inkscape:connector-curvature="0"
   style="fill:#f13516" />
	<path
   d="m 129.8,459.9 c 2.2,0 4.1,1.8 4.1,4.1 v 7.2 c 0,2.3 -1.8,4.1 -4.1,4.1 h -19 c -2.3,0 -4.1,-1.8 -4.1,-4.1 V 464 c 0,-2.2 1.8,-4.1 4.1,-4.1 z"
   id="path304"
   inkscape:connector-curvature="0"
   style="fill:#f13516" />
	<path
   d="m 129.8,439.4 c 2.2,0 4.1,1.8 4.1,4.1 v 7.2 c 0,2.3 -1.8,4.1 -4.1,4.1 h -19 c -2.3,0 -4.1,-1.8 -4.1,-4.1 v -7.2 c 0,-2.2 1.8,-4.1 4.1,-4.1 z"
   id="path306"
   inkscape:connector-curvature="0"
   style="fill:#f13516" />
	<path
   d="m 163.6,459.9 c 2.2,0 4.1,1.8 4.1,4.1 v 7.2 c 0,2.3 -1.8,4.1 -4.1,4.1 h -19 c -2.3,0 -4.1,-1.8 -4.1,-4.1 V 464 c 0,-2.2 1.8,-4.1 4.1,-4.1 z"
   id="path308"
   inkscape:connector-curvature="0"
   style="fill:#f13516" />
	<path
   d="m 163.6,439.4 c 2.2,0 4.1,1.8 4.1,4.1 v 7.2 c 0,2.3 -1.8,4.1 -4.1,4.1 h -19 c -2.3,0 -4.1,-1.8 -4.1,-4.1 v -7.2 c 0,-2.2 1.8,-4.1 4.1,-4.1 z"
   id="path310"
   inkscape:connector-curvature="0"
   style="fill:#f13516" />
	<path
   d="m 129.8,419 c 2.2,0 4.1,1.8 4.1,4.1 v 7.2 c 0,2.3 -1.8,4.1 -4.1,4.1 h -19 c -2.3,0 -4.1,-1.8 -4.1,-4.1 v -7.2 c 0,-2.2 1.8,-4.1 4.1,-4.1 z"
   id="path312"
   inkscape:connector-curvature="0"
   style="fill:#f13516" />
	<path
   d="m 129.8,398.5 c 2.2,0 4.1,1.8 4.1,4.1 v 7.2 c 0,2.3 -1.8,4.1 -4.1,4.1 h -19 c -2.3,0 -4.1,-1.8 -4.1,-4.1 v -7.2 c 0,-2.2 1.8,-4.1 4.1,-4.1 z"
   id="path314"
   inkscape:connector-curvature="0"
   style="fill:#f13516" />
	<path
   d="m 129.8,378 c 2.2,0 4.1,1.8 4.1,4.1 v 7.2 c 0,2.3 -1.8,4.1 -4.1,4.1 h -19 c -2.3,0 -4.1,-1.8 -4.1,-4.1 v -7.2 c 0,-2.2 1.8,-4.1 4.1,-4.1 z"
   id="path316"
   inkscape:connector-curvature="0"
   style="fill:#f13516" />
	<path
   d="m 129.7,357.6 c 2.2,0 4.1,1.8 4.1,4.1 v 7.2 c 0,2.3 -1.8,4.1 -4.1,4.1 h -19 c -2.3,0 -4.1,-1.8 -4.1,-4.1 v -7.2 c 0,-2.2 1.8,-4.1 4.1,-4.1 z"
   id="path318"
   inkscape:connector-curvature="0"
   style="fill:#f13516" />
	<path
   d="m 77.3,373 c -2.2,0 -4.1,-1.8 -4.1,-4.1 v -7.2 c 0,-2.3 1.8,-4.1 4.1,-4.1 h 19 c 2.3,0 4.1,1.8 4.1,4.1 v 7.2 c 0,2.2 -1.8,4.1 -4.1,4.1 z"
   id="path320"
   inkscape:connector-curvature="0"
   style="fill:#f13516" />
	<path
   d="m 77.3,393.4 c -2.2,0 -4.1,-1.8 -4.1,-4.1 v -7.2 c 0,-2.3 1.8,-4.1 4.1,-4.1 h 19 c 2.3,0 4.1,1.8 4.1,4.1 v 7.2 c 0,2.2 -1.8,4.1 -4.1,4.1 z"
   id="path322"
   inkscape:connector-curvature="0"
   style="fill:#f13516" />
	<path
   d="m 77.2,413.9 c -2.2,0 -4.1,-1.8 -4.1,-4.1 v -7.2 c 0,-2.3 1.8,-4.1 4.1,-4.1 h 19 c 2.3,0 4.1,1.8 4.1,4.1 v 7.2 c 0,2.2 -1.8,4.1 -4.1,4.1 z"
   id="path324"
   inkscape:connector-curvature="0"
   style="fill:#f13516" />
	<path
   d="m 77.2,434.3 c -2.2,0 -4.1,-1.8 -4.1,-4.1 V 423 c 0,-2.3 1.8,-4.1 4.1,-4.1 h 19 c 2.3,0 4.1,1.8 4.1,4.1 v 7.2 c 0,2.2 -1.8,4.1 -4.1,4.1 z"
   id="path326"
   inkscape:connector-curvature="0"
   style="fill:#f13516" />
	<path
   d="m 77.2,454.8 c -2.2,0 -4.1,-1.8 -4.1,-4.1 v -7.2 c 0,-2.3 1.8,-4.1 4.1,-4.1 h 19 c 2.3,0 4.1,1.8 4.1,4.1 v 7.2 c 0,2.2 -1.8,4.1 -4.1,4.1 z"
   id="path328"
   inkscape:connector-curvature="0"
   style="fill:#f13516" />
	<path
   d="m 77.2,475.2 c -2.2,0 -4.1,-1.8 -4.1,-4.1 v -7.2 c 0,-2.3 1.8,-4.1 4.1,-4.1 h 19 c 2.3,0 4.1,1.8 4.1,4.1 v 7.2 c 0,2.2 -1.8,4.1 -4.1,4.1 z"
   id="path330"
   inkscape:connector-curvature="0"
   style="fill:#f13516" />
	<path
   d="m 144.6,393.4 c -2.2,0 -4.1,-1.8 -4.1,-4.1 v -7.2 c 0,-2.3 1.8,-4.1 4.1,-4.1 h 19 c 2.3,0 4.1,1.8 4.1,4.1 v 7.2 c 0,2.2 -1.8,4.1 -4.1,4.1 z"
   id="path332"
   inkscape:connector-curvature="0"
   style="fill:#f13516" />
	<path
   d="m 144.6,413.9 c -2.2,0 -4.1,-1.8 -4.1,-4.1 v -7.2 c 0,-2.3 1.8,-4.1 4.1,-4.1 h 19 c 2.3,0 4.1,1.8 4.1,4.1 v 7.2 c 0,2.2 -1.8,4.1 -4.1,4.1 z"
   id="path334"
   inkscape:connector-curvature="0"
   style="fill:#f13516" />
	<path
   d="m 144.6,434.3 c -2.2,0 -4.1,-1.8 -4.1,-4.1 V 423 c 0,-2.3 1.8,-4.1 4.1,-4.1 h 19 c 2.3,0 4.1,1.8 4.1,4.1 v 7.2 c 0,2.2 -1.8,4.1 -4.1,4.1 z"
   id="path336"
   inkscape:connector-curvature="0"
   style="fill:#f13516" />
	<path
   d="m 175,177.6 c 1.5,1.7 1.5,4.3 -0.1,5.9 l -4.5,4.7 c -1.5,1.7 -4.2,1.8 -5.9,0.3 l -14.4,-12.6 c -1.7,-1.5 -1.8,-4.1 -0.3,-5.7 l 6.4,-6.7 c 1.6,-1.6 4.2,-1.5 5.7,0.1 z"
   id="path338"
   inkscape:connector-curvature="0"
   style="fill:#004371" />
	<path
   d="m 64,265.1 c 2.2,0.2 3.9,2.2 3.7,4.5 l -0.5,7 c -0.1,2.2 -2,4 -4.2,4 l -19,-0.4 c -2.2,-0.1 -4,-1.9 -4,-4.2 l 0.6,-9 c 0.2,-2.2 2.2,-3.9 4.4,-3.7 z"
   id="path340"
   inkscape:connector-curvature="0"
   style="fill:#004371" />
	<path
   d="m 66.8,244.7 c 2.2,0.4 3.7,2.6 3.3,4.8 l -1.1,6.9 c -0.3,2.2 -2.4,3.8 -4.6,3.6 l -18.9,-2.3 c -2.2,-0.3 -3.8,-2.3 -3.5,-4.5 l 1.4,-8.9 c 0.4,-2.2 2.5,-3.7 4.7,-3.3 z"
   id="path342"
   inkscape:connector-curvature="0"
   style="fill:#004371" />
	<path
   d="m 71.8,224.7 c 2.2,0.6 3.4,2.9 2.8,5.1 l -1.7,6.8 c -0.5,2.2 -2.8,3.6 -5,3.1 l -18.6,-4.1 c -2.2,-0.5 -3.6,-2.7 -3,-4.9 l 2.2,-8.7 c 0.6,-2.2 2.9,-3.4 5.1,-2.8 z"
   id="path344"
   inkscape:connector-curvature="0"
   style="fill:#004371" />
	<path
   d="m 78.7,205.2 c 2.1,0.9 3.1,3.3 2.4,5.4 l -2.6,6.5 c -0.7,2.1 -3,3.3 -5.2,2.6 l -18.1,-5.9 c -2.1,-0.7 -3.3,-3 -2.6,-5.2 l 3.2,-8.4 c 0.8,-2.1 3.1,-3.1 5.2,-2.3 z"
   id="path346"
   inkscape:connector-curvature="0"
   style="fill:#004371" />
	<path
   d="m 87.3,186.5 c 2,1 2.8,3.5 1.8,5.6 l -2.9,6.4 c -1,2 -3.5,2.9 -5.5,2 l -17.4,-7.6 c -2.1,-0.9 -3,-3.3 -2,-5.3 l 3.8,-8.2 c 1,-2 3.5,-2.8 5.5,-1.7 z"
   id="path348"
   inkscape:connector-curvature="0"
   style="fill:#004371" />
	<path
   d="m 34,175.4 c -2,-0.9 -2.9,-3.3 -1.9,-5.4 l 3.8,-7.6 c 1,-2 3.4,-2.8 5.4,-1.7 l 16.8,9 c 2,1.1 2.8,3.6 1.8,5.6 l -3,6.1 c -1,2 -3.5,2.9 -5.5,2 z"
   id="path350"
   inkscape:connector-curvature="0"
   style="fill:#004371" />
	<path
   d="m 25.8,195.7 c -2.1,-0.8 -3.2,-3.1 -2.4,-5.2 l 3.1,-7.9 c 0.9,-2.1 3.3,-3 5.4,-2.1 l 17.5,7.6 c 2.1,0.9 3,3.3 2.1,5.4 l -2.4,6.3 c -0.8,2.1 -3.2,3.2 -5.3,2.4 z"
   id="path352"
   inkscape:connector-curvature="0"
   style="fill:#004371" />
	<path
   d="m 19.2,216.6 c -2.2,-0.6 -3.5,-2.8 -2.9,-5 l 2.6,-8.1 c 0.6,-2.2 2.9,-3.3 5.1,-2.6 l 18,6.1 c 2.1,0.7 3.4,3.1 2.7,5.2 l -2.1,6.5 c -0.6,2.2 -2.8,3.5 -5,2.9 z"
   id="path354"
   inkscape:connector-curvature="0"
   style="fill:#004371" />
	<path
   d="m 14.4,238 c -2.2,-0.4 -3.6,-2.5 -3.2,-4.7 l 1.7,-8.3 c 0.5,-2.2 2.7,-3.5 4.9,-3 l 18.5,4.6 c 2.2,0.5 3.6,2.8 3,5 l -1.3,6.7 c -0.5,2.2 -2.7,3.7 -4.9,3.3 z"
   id="path356"
   inkscape:connector-curvature="0"
   style="fill:#004371" />
	<path
   d="M 11.5,259.7 C 9.3,259.5 7.6,257.5 7.9,255.2 L 9,246.8 c 0.3,-2.2 2.4,-3.8 4.7,-3.4 l 18.8,3 c 2.2,0.4 3.8,2.5 3.4,4.7 l -0.8,6.8 c -0.2,2.2 -2.3,3.9 -4.5,3.7 z"
   id="path358"
   inkscape:connector-curvature="0"
   style="fill:#004371" />
	<path
   d="m 131.8,260.6 c 2.2,0.4 3.8,2.5 3.5,4.7 l -0.9,7.5 c -0.2,2.2 -2.2,4 -4.5,3.8 l -19,-1.1 c -2.2,-0.1 -3.9,-2.1 -3.7,-4.3 l 1.2,-10.5 c 0.3,-2.2 2.4,-3.7 4.6,-3.4 z"
   id="path360"
   inkscape:connector-curvature="0"
   style="fill:#004371" />
	<path
   d="m 137.1,239.7 c 2.1,0.7 3.3,3.1 2.7,5.2 l -1.9,7.3 c -0.5,2.2 -2.7,3.6 -4.9,3.1 l -18.6,-3.9 c -2.2,-0.5 -3.6,-2.6 -3.1,-4.8 l 2.7,-10.2 c 0.7,-2.2 2.9,-3.3 5.1,-2.6 z"
   id="path362"
   inkscape:connector-curvature="0"
   style="fill:#004371" />
	<path
   d="m 145.3,219.8 c 2,1 2.9,3.5 1.9,5.6 l -3,6.9 c -0.9,2.1 -3.3,3.1 -5.4,2.4 L 121,228 c -2.1,-0.8 -3.1,-3.1 -2.3,-5.2 l 4.2,-9.7 c 1,-2 3.4,-2.9 5.4,-1.9 z"
   id="path364"
   inkscape:connector-curvature="0"
   style="fill:#004371" />
	<path
   d="m 92.2,210.3 c -2.1,-0.9 -3,-3.2 -2.1,-5.3 l 3.9,-8.8 c 1,-2 3.5,-2.8 5.5,-1.8 l 16.9,8.8 c 2,1 2.8,3.5 1.8,5.5 l -2.9,6.6 c -0.9,2.1 -3.4,3 -5.5,2.2 z"
   id="path366"
   inkscape:connector-curvature="0"
   style="fill:#004371" />
	<path
   d="m 84.6,232.3 c -2.2,-0.6 -3.4,-2.9 -2.7,-5 l 2.9,-9.2 c 0.8,-2.1 3.1,-3.2 5.2,-2.4 l 17.8,6.7 c 2.1,0.8 3.2,3.2 2.4,5.3 l -2.1,6.9 c -0.7,2.1 -3,3.4 -5.2,2.8 z"
   id="path368"
   inkscape:connector-curvature="0"
   style="fill:#004371" />
	<path
   d="m 79.7,255 c -2.2,-0.3 -3.7,-2.4 -3.3,-4.6 l 1.7,-9.5 c 0.5,-2.2 2.7,-3.5 4.9,-3 l 18.5,4.6 c 2.2,0.5 3.6,2.8 3.1,5 l -1.3,7.1 c -0.4,2.2 -2.6,3.7 -4.8,3.4 z"
   id="path370"
   inkscape:connector-curvature="0"
   style="fill:#004371" />
	<path
   d="m 77.5,278.2 c -2.2,-0.1 -4,-2 -3.8,-4.2 l 0.6,-9.6 c 0.2,-2.2 2.3,-3.8 4.5,-3.6 l 18.9,2.4 c 2.2,0.3 3.9,2.3 3.6,4.6 l -0.4,7.2 c -0.2,2.2 -2.1,4 -4.4,3.9 z"
   id="path372"
   inkscape:connector-curvature="0"
   style="fill:#004371" />
	<path
   d="m 150.6,246.4 c -2.1,-0.7 -3.3,-3 -2.5,-5.1 l 4.3,-11.1 c 0.9,-2.1 3.3,-2.9 5.3,-1.9 l 17.1,8.3 c 2,1 2.9,3.5 2,5.5 l -2.8,7.3 c -0.8,2.1 -3.2,3.3 -5.3,2.6 z"
   id="path374"
   inkscape:connector-curvature="0"
   style="fill:#004371" />
	<path
   d="m 62.9,307.3 c 2.2,0 4.1,1.8 4.1,4.1 v 8 c 0,2.2 -1.8,4.1 -4.1,4.1 h -19 c -2.3,0 -4.1,-1.8 -4.1,-4.1 v -8 c 0,-2.2 1.8,-4.1 4.1,-4.1 z"
   id="path376"
   inkscape:connector-curvature="0"
   style="fill:#f13516" />
	<path
   d="m 62.9,285.8 c 2.2,0 4.1,1.8 4.1,4.1 v 8 c 0,2.2 -1.8,4.1 -4.1,4.1 h -19 c -2.2,0 -4.1,-1.8 -4.1,-4.1 v -8 c 0,-2.2 1.8,-4.1 4.1,-4.1 z"
   id="path378"
   inkscape:connector-curvature="0"
   style="fill:#f13516" />
	<path
   d="m 129.7,304.8 c 2.3,0 4.1,1.8 4.1,4.1 v 9.1 c 0,2.2 -1.8,4.1 -4.1,4.1 h -19 c -2.2,0 -4.1,-1.8 -4.1,-4.1 v -9.1 c 0,-2.3 1.8,-4.1 4.1,-4.1 z"
   id="path380"
   inkscape:connector-curvature="0"
   style="fill:#f13516" />
	<path
   d="m 129.8,282.1 c 2.2,0.1 4.1,1.9 4.1,4.2 l -0.1,8.7 c 0,2.2 -1.8,4.1 -4.1,4.1 h -19 c -2.3,0 -4.1,-1.8 -4.1,-4.1 l 0.1,-9.4 c 0,-2.3 1.9,-4.1 4.1,-4 z"
   id="path382"
   inkscape:connector-curvature="0"
   style="fill:#f13516" />
	<path
   d="m 77.3,300.7 c -2.3,0 -4.1,-1.8 -4.1,-4.1 l 0.1,-8.5 c 0,-2.3 1.8,-4.1 4.1,-4.1 l 19,0.1 c 2.2,0 4.1,1.9 4.1,4.1 v 8.4 c 0,2.2 -1.8,4.1 -4.1,4.1 z"
   id="path384"
   inkscape:connector-curvature="0"
   style="fill:#f13516" />
	<path
   d="m 77.3,322.9 c -2.3,0 -4.1,-1.8 -4.1,-4.1 v -8.4 c 0,-2.2 1.8,-4.1 4.1,-4.1 h 19 c 2.2,0 4.1,1.8 4.1,4.1 v 8.4 c 0,2.2 -1.8,4.1 -4.1,4.1 z"
   id="path386"
   inkscape:connector-curvature="0"
   style="fill:#f13516" />
	<path
   d="m 145.3,271.8 c -2.2,-0.2 -3.8,-2.2 -3.5,-4.5 l 2.1,-11.7 c 0.5,-2.2 2.7,-3.5 4.8,-3 l 18.4,4.8 c 2.2,0.6 3.6,2.8 3.1,5 l -1.4,7.7 c -0.3,2.2 -2.4,3.9 -4.6,3.6 z"
   id="path388"
   inkscape:connector-curvature="0"
   style="fill:#f13516" />
	<path
   d="m 144.6,296.9 c -2.2,0 -4.1,-1.8 -4.1,-4.1 l 0.2,-10.6 c 0,-2.2 1.9,-4 4.2,-3.9 l 19,1 c 2.2,0.1 4.1,2.1 4,4.3 l -0.1,9.1 c 0,2.2 -1.8,4.1 -4.1,4.1 z"
   id="path390"
   inkscape:connector-curvature="0"
   style="fill:#f13516" />
	<path
   d="m 144.6,321 c -2.3,0 -4.1,-1.8 -4.1,-4.1 V 307 c 0,-2.2 1.8,-4.1 4.1,-4.1 h 19 c 2.2,0 4.1,1.8 4.1,4.1 v 9.9 c 0,2.2 -1.8,4.1 -4.1,4.1 z"
   id="path392"
   inkscape:connector-curvature="0"
   style="fill:#f13516" />
	<path
   d="m 62.9,329.6 c 2.2,0 4.1,1.8 4.1,4.1 v 8 c 0,2.2 -1.8,4.1 -4.1,4.1 h -19 c -2.3,0 -4.1,-1.8 -4.1,-4.1 v -8 c 0,-2.2 1.8,-4.1 4.1,-4.1 z"
   id="path394"
   inkscape:connector-curvature="0"
   style="fill:#f13516" />
	<path
   d="m 129.7,327.1 c 2.3,0 4.1,1.8 4.1,4.1 v 9.1 c 0,2.2 -1.8,4.1 -4.1,4.1 h -19 c -2.2,0 -4.1,-1.8 -4.1,-4.1 v -9.1 c 0,-2.3 1.8,-4.1 4.1,-4.1 z"
   id="path396"
   inkscape:connector-curvature="0"
   style="fill:#f13516" />
	<path
   d="m 80,345.1 c -2.3,0 -4.1,-1.8 -4.1,-4.1 v -8.4 c 0,-2.2 1.8,-4.1 4.1,-4.1 h 19 c 2.2,0 4.1,1.8 4.1,4.1 v 8.4 c 0,2.2 -1.8,4.1 -4.1,4.1 z"
   id="path398"
   inkscape:connector-curvature="0"
   style="fill:#f13516" />
	<path
   d="m 144.6,343.2 c -2.3,0 -4.1,-1.8 -4.1,-4.1 v -9.9 c 0,-2.2 1.8,-4.1 4.1,-4.1 h 19 c 2.2,0 4.1,1.8 4.1,4.1 v 9.9 c 0,2.2 -1.8,4.1 -4.1,4.1 z"
   id="path400"
   inkscape:connector-curvature="0"
   style="fill:#f13516" />
	<path
   d="m 9.8,281.9 c -2.2,0 -4.1,-1.9 -4,-4.1 l 0.5,-8.5 c 0.1,-2.2 2,-4 4.3,-3.8 l 19,1.4 c 2.2,0.2 4,2.1 3.9,4.4 l -0.5,6.8 c 0,2.2 -1.9,4.1 -4.1,4 z"
   id="path402"
   inkscape:connector-curvature="0"
   style="fill:#004371" />
</g>
</svg>